<svg width="79" height="70" viewBox="0 0 79 70" fill="none" xmlns="http://www.w3.org/2000/svg">
<path fill-rule="evenodd" clip-rule="evenodd" d="M12.4149 0.19565C11.5071 0.517598 10.7142 1.4387 10.5048 2.41473C10.4055 2.87829 10.3324 4.75213 10.3324 6.83669V10.4543H6.33154C3.87983 10.4543 2.16257 10.5179 1.89647 10.6185C1.27911 10.8517 0.621636 11.5101 0.289198 12.2284C0.0146095 12.8215 0.00334822 13.9003 0.000108691 40.0885C-0.00251379 60.5268 0.0419141 67.4625 0.177512 67.8559C0.465059 68.6895 0.923992 69.202 1.75362 69.6154L2.52556 70L34.1577 69.9991C56.664 69.9985 65.9681 69.9494 66.4071 69.8288C67.3208 69.5778 68.2597 68.5371 68.4739 67.538C68.5704 67.0884 68.6439 65.182 68.6439 63.1347V59.524L72.8721 59.4785L77.1003 59.433L77.6929 58.9612C78.0188 58.7017 78.4423 58.1822 78.6342 57.8067L78.983 57.1241L78.9427 29.5602L78.9025 1.99637L78.4397 1.34121C78.1851 0.980851 77.6992 0.541046 77.3598 0.363798L76.7428 0.0415412L44.8874 0.00914605C17.7168 -0.0184671 12.9413 0.00899172 12.4149 0.19565ZM76.3209 7.3308L76.3616 11.9977L44.6969 11.9587L13.032 11.9198L12.9886 7.60045C12.9649 5.22479 12.9837 3.12465 13.0303 2.93367L13.1151 2.58612L44.6976 2.62515L76.28 2.66402L76.3209 7.3308ZM18.2547 6.03776C17.9309 6.31636 17.8296 6.54174 17.8296 6.9834C17.8296 7.42505 17.9309 7.65043 18.2547 7.92903C18.6677 8.28414 18.7584 8.29463 21.4393 8.29463C24.1203 8.29463 24.211 8.28414 24.6239 7.92903C25.2197 7.41657 25.2197 6.55022 24.6239 6.03776C24.211 5.68265 24.1203 5.67216 21.4393 5.67216C18.7584 5.67216 18.6677 5.68265 18.2547 6.03776ZM29.3839 5.85033C28.9169 6.10564 28.6897 6.45689 28.6897 6.92308C28.6897 8.1379 29.1104 8.29463 32.3726 8.29463C34.9644 8.29463 34.9957 8.29062 35.4654 7.89525C35.8201 7.5969 35.9401 7.36628 35.9401 6.9834C35.9401 6.60051 35.8201 6.36989 35.4654 6.07154C34.9946 5.6754 34.9698 5.67216 32.3416 5.67678C30.7238 5.67971 29.5723 5.74728 29.3839 5.85033ZM10.3324 17.6276V22.3326H6.47578H2.61919V17.7175C2.61919 14.1699 2.66378 13.0845 2.81202 13.0247C2.91816 12.9819 4.65362 12.9414 6.66861 12.9347L10.3324 12.9225V17.6276ZM76.3571 35.6599C76.3571 54.8444 76.334 56.8635 76.1131 56.9482C75.9789 56.9998 61.7966 57.0419 44.597 57.0419C20.4801 57.0419 13.2827 56.9995 13.14 56.8568C12.9977 56.7145 12.9548 51.7764 12.9548 35.5684V14.4652H44.656H76.3571V35.6599ZM43.4581 33.5585C41.5266 38.6262 39.9472 42.8245 39.9486 42.8882C39.9499 42.9519 40.4404 43.0039 41.0387 43.0039H42.1264L42.3684 42.4254C42.6612 41.7255 48.8448 25.7353 49.1393 24.9165L49.3473 24.338L48.1587 24.3413L46.9699 24.3445L43.4581 33.5585ZM10.3675 41.1142L10.4095 57.2733L10.8379 58.0019C11.1021 58.4517 11.5207 58.8798 11.9312 59.1203L12.5963 59.5101H39.3089H66.0215L66.0191 63.251C66.0178 65.3084 65.9616 67.0789 65.894 67.185C65.7964 67.339 59.3621 67.3704 34.2338 67.3393L2.69632 67.3004L2.65714 46.1277L2.61811 24.9551H6.47177H10.3254L10.3675 41.1142ZM31.0384 31.0291L24.9797 34.1338L25.0221 35.0291L25.0645 35.9244L31.0037 38.9954C34.2702 40.6844 36.9977 42.0691 37.065 42.0723C37.1322 42.0755 37.167 41.5403 37.1421 40.8828L37.0971 39.6872L32.6234 37.4219C30.1629 36.1759 28.0804 35.1275 27.9955 35.0922C27.9107 35.0569 29.9412 33.9763 32.5077 32.6906L37.1742 30.3534V29.1197C37.1742 28.4413 37.1568 27.8947 37.1356 27.9052C37.1145 27.9159 34.3706 29.3215 31.0384 31.0291ZM51.9835 29.1939V30.3702L56.707 32.705L61.4307 35.0397L56.707 37.4026L51.9835 39.7653V40.9218C51.9835 41.5578 52.0355 42.0772 52.0992 42.076C52.1629 42.0748 54.8875 40.6954 58.154 39.0106L64.0932 35.9474L64.1382 35.0385L64.1831 34.1296L58.3064 31.1235C55.0743 29.4702 52.3293 28.0951 52.2066 28.0677C52.0271 28.0275 51.9835 28.2477 51.9835 29.1939Z" fill="#0064AF"/>
</svg>
