<svg width="71" height="71" viewBox="0 0 71 71" fill="none" xmlns="http://www.w3.org/2000/svg">
<path fill-rule="evenodd" clip-rule="evenodd" d="M66.9364 0.184953C60.4786 0.926813 53.3748 2.90793 47.6982 5.55029C44.6452 6.9713 41.17 9.12001 38.5541 11.2041C37.1308 12.3379 34.2345 15.1262 32.9741 16.5761L32.3425 17.3027L31.1682 16.7523C25.1073 13.9112 19.2506 16.5457 15.6436 23.7355C14.4023 26.2097 13.555 29.164 13.3674 31.6734C13.2338 33.4569 13.5966 34.0943 14.745 34.0943C15.1259 34.0943 15.3999 33.9463 16.0372 33.3959C17.6135 32.0348 19.8666 31.1885 21.9282 31.1831C22.6307 31.1813 22.9268 31.2436 23.1765 31.4459L23.5038 31.7109L23.2429 32.3824C22.5877 34.0692 21.6369 36.9143 21.3418 38.072C21.0576 39.1866 21.0369 39.4358 21.1752 40.0837C21.3103 40.7174 21.302 40.8432 21.1168 40.9621C20.9979 41.0384 20.4304 41.403 19.8556 41.7724C17.7242 43.1419 16.4706 44.6584 15.4024 47.1592C14.674 48.8642 13.8187 52.2258 13.5066 54.6103C13.2743 56.3858 13.2744 56.4851 13.5109 56.9242C13.976 57.7881 14.3842 57.8201 17.7516 57.2579C21.0423 56.7084 24.1125 55.6707 26.0319 54.4592C27.1376 53.7613 28.5416 52.2429 29.4382 50.7753C29.9601 49.921 30.1986 49.6448 30.3602 49.7074C31.0324 49.9682 31.8955 49.927 33.1989 49.5717C34.4445 49.2323 36.9309 48.391 38.6011 47.7436L39.2725 47.4833L39.555 47.83C39.8102 48.143 39.8298 48.3048 39.7563 49.4948C39.6224 51.6573 38.9432 53.3624 37.5823 54.9517C37.0384 55.5869 36.8896 55.8647 36.8896 56.2443C36.8896 57.3929 37.5268 57.7559 39.3099 57.6223C44.4634 57.2365 50.2133 54.4227 52.9899 50.9279C55.635 47.5983 56.0649 43.7391 54.2274 39.8171L53.6772 38.6425L54.4036 38.0108C55.8444 36.7575 58.6376 33.8569 59.7439 32.4651C65.5823 25.1195 69.5444 14.863 70.7985 3.84833C71.0554 1.59236 71.0615 1.19486 70.8463 0.722722C70.4885 -0.0631194 69.8544 -0.15025 66.9364 0.184953ZM68.0379 3.6749C67.7015 6.55451 67.0267 10.0257 66.2646 12.7973C66.0337 13.6367 65.8142 14.464 65.7768 14.6356C65.7395 14.8072 65.6689 14.9478 65.6202 14.9478C65.4877 14.9478 55.9642 5.39351 56.0376 5.3344C56.1406 5.25144 58.0593 4.71658 59.8486 4.27205C61.9301 3.75509 66.4258 2.97244 67.7337 2.89932L68.1311 2.87713L68.0379 3.6749ZM58.8505 12.1484L64.6505 17.951L63.9915 19.6058C62.6557 22.9601 60.5269 26.7998 58.4725 29.5603C54.4727 34.935 48.2273 40.0031 41.3657 43.4421C40.6615 43.7951 40.0064 44.0838 39.9098 44.0838C39.6797 44.0838 26.9025 31.3049 26.9025 31.0747C26.9025 30.563 29.2716 26.2957 30.926 23.8273C35.6462 16.7852 40.9676 12.0055 47.917 8.5667C49.7581 7.65572 52.7102 6.36277 52.9804 6.34917C53.019 6.34723 55.6604 8.95685 58.8505 12.1484ZM48.9728 14.1335C47.6515 14.2944 46.21 15.0338 45.1493 16.0949C43.7614 17.4832 43.1315 19.0124 43.1315 20.9936C43.1315 24.8593 46.1223 27.8509 49.9871 27.8509C51.9678 27.8509 53.4967 27.2209 54.8846 25.8326C56.9618 23.7549 57.5 20.6775 56.2473 18.0391C54.9228 15.2494 52.1285 13.749 48.9728 14.1335ZM51.6692 17.1645C54.867 18.534 54.9746 23.0862 51.8461 24.6499C51.1321 25.0068 50.8318 25.076 49.9976 25.076C47.6368 25.076 45.9103 23.3433 45.9071 20.9706C45.906 20.1484 45.9756 19.8468 46.3317 19.1342C47.3243 17.1473 49.6366 16.294 51.6692 17.1645ZM28.2426 18.6103C28.6364 18.7152 29.3149 18.9643 29.7506 19.1636C30.4838 19.4995 30.5285 19.5461 30.3525 19.7914C28.4738 22.4086 26.8438 24.9993 25.5874 27.3653C25.1417 28.2047 24.7661 28.9073 24.7526 28.9267C24.7392 28.9461 24.5399 28.868 24.3097 28.7533C23.7266 28.4623 21.6365 28.3451 20.3324 28.5302C19.4043 28.6618 17.6628 29.1702 16.7223 29.5839C16.4832 29.6891 16.4685 29.6537 16.5566 29.1846C16.6096 28.9016 16.8123 28.1891 17.0071 27.6014C18.4634 23.2059 21.2427 19.8084 24.2513 18.7461C25.3299 18.3653 27.0968 18.3052 28.2426 18.6103ZM41.5363 27.5948C41.1015 27.8324 39.2492 29.6824 39.0294 30.0985C38.3543 31.3766 39.6066 32.6292 40.8844 31.9539C41.3262 31.7204 43.171 29.8579 43.3934 29.4209C43.978 28.2718 42.6631 26.9788 41.5363 27.5948ZM35.964 33.3687C34.9969 33.5241 34.6074 34.9033 35.3204 35.6476C36.0321 36.3907 37.4225 36.0143 37.6111 35.0274C37.6895 34.6174 37.4938 33.8918 37.2504 33.6898C36.9882 33.4721 36.3349 33.309 35.964 33.3687ZM31.4051 39.6386C34.5293 42.7642 37.057 45.346 37.0222 45.3758C36.8869 45.4919 34.4989 46.3051 33.0753 46.7198C32.1293 46.9955 31.4452 47.1234 31.2169 47.0671C30.7707 46.9572 24.2121 40.4588 23.9788 39.8953C23.8469 39.577 23.8609 39.3347 24.0516 38.6361C24.4222 37.2785 25.5519 33.9556 25.6427 33.9556C25.6878 33.9556 28.2808 36.5129 31.4051 39.6386ZM9.81113 39.6139C7.54545 41.88 7.48317 41.9579 7.48317 42.5198C7.48317 43.3835 7.95658 43.8757 8.78731 43.8757H9.42191L11.7121 41.5881C14.1889 39.1142 14.3697 38.8235 13.944 38.0001C13.6693 37.469 13.3406 37.2854 12.6637 37.2854C12.1699 37.2854 12.002 37.4224 9.81113 39.6139ZM51.713 40.9968C52.6138 42.768 52.8227 45.0679 52.234 46.7356C51.5861 48.5716 50.0523 50.3711 47.9505 51.7608C46.396 52.7887 45.3366 53.2997 43.4297 53.9415C41.5954 54.5589 41.2466 54.6115 41.4022 54.2468C42.2619 52.2329 42.6417 50.279 42.5345 48.4218C42.4912 47.6723 42.3691 46.9576 42.2406 46.6996C42.1196 46.457 42.0365 46.2474 42.0559 46.2335C42.0754 46.2196 42.7154 45.8774 43.4783 45.4728C45.9254 44.1751 49.043 42.2301 50.7458 40.9387C51.0809 40.6845 51.3762 40.4765 51.4018 40.4765C51.4274 40.4765 51.5675 40.7107 51.713 40.9968ZM25.4792 45.5044C26.7198 46.7435 27.7347 47.8429 27.7347 47.9477C27.7347 48.6725 25.8193 51.258 24.7235 52.0122C23.3639 52.948 20.6962 53.896 17.9557 54.4171C16.2482 54.7419 16.3117 54.7664 16.4263 53.8305C16.7139 51.484 17.99 47.6968 18.9761 46.2634C19.728 45.1702 22.2831 43.2682 23.0171 43.2551C23.1307 43.253 24.2386 44.2652 25.4792 45.5044ZM10.4256 47.0961C10.0535 47.1674 0.26431 56.9681 0.0769138 57.457C-0.287615 58.4084 0.70499 59.4022 1.7614 59.1436C2.0126 59.082 3.81319 57.3839 7.03638 54.1684C12.3452 48.8726 12.4567 48.7302 11.9972 47.8416C11.8619 47.5797 11.5675 47.3093 11.293 47.1946C11.0334 47.0862 10.8035 47.0059 10.782 47.0163C10.7605 47.0267 10.6001 47.0626 10.4256 47.0961ZM31.8267 56.9826C31.6741 57.047 30.5264 58.133 29.2762 59.3959L27.0031 61.6923L27.083 62.2876C27.1888 63.0771 27.6772 63.5079 28.4662 63.5079C29.0279 63.5079 29.1058 63.4456 31.3713 61.1793C33.5623 58.9879 33.6993 58.82 33.6993 58.3261C33.6993 57.6565 33.5162 57.3203 33.0085 57.0577C32.5611 56.8263 32.2453 56.8063 31.8267 56.9826ZM10.9509 58.9438C10.5331 59.1071 1.1687 68.4131 0.885312 68.9466C0.364181 69.9279 1.03997 71 2.17975 71C2.482 71 3.4882 70.0632 7.63977 65.916C11.0748 62.4849 12.7518 60.7146 12.7985 60.4705C12.8992 59.9437 12.5615 59.2578 12.0783 59.0079C11.602 58.7615 11.4407 58.7523 10.9509 58.9438ZM22.0477 58.9438C21.6299 59.1071 12.2655 68.4131 11.9821 68.9466C11.4609 69.9279 12.1367 71 13.2765 71C13.5788 71 14.585 70.0632 18.7365 65.916C22.1715 62.4849 23.8485 60.7146 23.8953 60.4705C23.996 59.9437 23.6582 59.2578 23.1751 59.0079C22.6988 58.7615 22.5374 58.7523 22.0477 58.9438Z" fill="#0064AF"/>
</svg>
