<svg width="70" height="70" viewBox="0 0 70 70" fill="none" xmlns="http://www.w3.org/2000/svg">
<path fill-rule="evenodd" clip-rule="evenodd" d="M11.6761 0.188717C10.9606 0.414328 9.74035 1.67845 9.52096 2.42134C9.38568 2.87927 9.3437 7.55831 9.3437 22.1524V41.2833L9.70158 41.6412C10.1749 42.1149 10.8449 42.1149 11.3182 41.6412L11.6761 41.2833V26.4741V11.6651H35H58.3239V26.4741V41.2833L58.6818 41.6412C58.9073 41.867 59.2061 41.9992 59.4901 41.9992C59.7741 41.9992 60.0729 41.867 60.2984 41.6412L60.6563 41.2833V22.1524C60.6563 7.55831 60.6143 2.87927 60.479 2.42134C60.2425 1.62026 59.0349 0.41214 58.2341 0.175446C57.4143 -0.0669353 12.4461 -0.0541017 11.6761 0.188717ZM57.966 2.68954C58.3239 3.04742 58.3239 3.04786 58.3239 6.18963V9.33169H35H11.6761V6.18963C11.6761 3.04786 11.6761 3.04742 12.034 2.68954L12.3917 2.3315H35H57.6083L57.966 2.68954ZM14.3664 5.02293C14.1407 5.24854 14.0085 5.54751 14.0085 5.8316C14.0085 6.11569 14.1407 6.41466 14.3664 6.64027C15.0894 7.36377 16.3409 6.85115 16.3409 5.8316C16.3409 5.23206 15.774 4.6649 15.1747 4.6649C14.8907 4.6649 14.5919 4.79718 14.3664 5.02293ZM19.0311 5.02293C18.308 5.74628 18.8204 6.9983 19.8395 6.9983C20.4387 6.9983 21.0057 6.43114 21.0057 5.8316C21.0057 5.23206 20.4387 4.6649 19.8395 4.6649C19.5555 4.6649 19.2567 4.79718 19.0311 5.02293ZM23.6959 5.02293C22.9727 5.74628 23.4851 6.9983 24.5042 6.9983C25.1035 6.9983 25.6704 6.43114 25.6704 5.8316C25.6704 5.23206 25.1035 4.6649 24.5042 4.6649C24.2203 4.6649 23.9214 4.79718 23.6959 5.02293ZM40.0227 5.02293C39.797 5.24854 39.6648 5.54751 39.6648 5.8316C39.6648 6.11569 39.797 6.41466 40.0227 6.64027L40.3804 6.9983H47.8054C54.8736 6.9983 55.2468 6.98503 55.5711 6.72223C56.053 6.33182 56.053 5.33138 55.5711 4.94097C55.2468 4.67817 54.8736 4.6649 47.8054 4.6649H40.3804L40.0227 5.02293ZM2.34652 7.18891C1.63106 7.41452 0.410785 8.67863 0.191395 9.42153C-0.0584628 10.2678 -0.0663347 52.7075 0.183377 53.5411C0.422884 54.3412 1.25773 55.2519 2.1197 55.6534L2.85673 55.9967H35H67.1433L67.8803 55.6534C68.7423 55.2519 69.5771 54.3412 69.8166 53.5411C70.0663 52.7075 70.0585 10.2678 69.8086 9.42153C69.572 8.62045 68.3644 7.41233 67.5637 7.17564C67.2337 7.07807 66.2303 6.9983 65.3341 6.9983C63.798 6.9983 63.6837 7.01886 63.3466 7.35633C62.8731 7.82986 62.8731 8.50013 63.3466 8.97366C63.6835 9.31069 63.7989 9.33169 65.3211 9.33169C66.8433 9.33169 66.9587 9.3527 67.2956 9.68972L67.6535 10.0476V27.1902V44.3326H35H2.34652V27.1902V10.0476L2.7044 9.68972C3.04129 9.3527 3.15674 9.33169 4.67892 9.33169C6.20109 9.33169 6.31655 9.31069 6.65343 8.97366C7.12691 8.50013 7.12691 7.82986 6.65343 7.35633C6.31203 7.01463 6.21713 6.99903 4.57614 7.01317C3.63051 7.02134 2.62714 7.10053 2.34652 7.18891ZM37.7839 16.5871C37.5566 16.7744 36.5244 19.6945 33.9047 27.5602C31.9415 33.4551 30.3352 38.4293 30.3352 38.6141C30.3352 39.4452 31.55 39.9596 32.2161 39.4106C32.4434 39.2234 33.4756 36.3033 36.0954 28.4375C38.0585 22.5427 39.6648 17.5684 39.6648 17.3837C39.6648 16.5525 38.45 16.0382 37.7839 16.5871ZM21.4844 24.1368C19.3814 25.8925 17.6652 27.4343 17.5883 27.6369C17.5021 27.8637 17.5021 28.1349 17.5883 28.3629C17.6664 28.5697 19.3537 30.0819 21.4939 31.863C24.6868 34.5201 25.334 34.9991 25.7324 34.9991C26.3675 34.9991 26.8366 34.4891 26.8366 33.7988C26.8366 33.2933 26.7206 33.1768 23.7389 30.6904C22.0353 29.2697 20.6412 28.0587 20.6412 27.9992C20.6412 27.9397 21.9204 26.8285 23.4838 25.5301C25.0473 24.2317 26.4411 23.0347 26.5815 22.8701C26.9483 22.4394 26.9037 21.7817 26.4788 21.3567C25.7478 20.6253 25.5747 20.7216 21.4844 24.1368ZM43.5212 21.3567C43.1294 21.7486 43.0492 22.3993 43.3456 22.7833C43.4459 22.9131 44.8398 24.1094 46.4433 25.4416C48.0468 26.774 49.3588 27.9246 49.3588 27.9989C49.3588 28.0731 48.0468 29.2238 46.4433 30.5561C44.8398 31.8883 43.4459 33.0846 43.3456 33.2144C43.0492 33.5984 43.1294 34.2492 43.5212 34.641C44.2473 35.3676 44.4172 35.2731 48.5499 31.8417C50.9731 29.8297 52.3838 28.56 52.4386 28.3416C52.4858 28.1532 52.4861 27.8456 52.4391 27.6583C52.3851 27.4429 50.9566 26.1555 48.5557 24.1582C44.4232 20.7203 44.2523 20.6252 43.5212 21.3567ZM67.6535 49.8081C67.6535 52.9499 67.6535 52.9503 67.2956 53.3082L66.9379 53.6662H35H3.06213L2.7044 53.3082C2.34652 52.9503 2.34652 52.9499 2.34652 49.8081V46.666H35H67.6535V49.8081ZM32.1313 49.1728C31.9567 49.2573 31.7355 49.5154 31.6399 49.7463C31.4156 50.2882 31.6882 51.0085 32.1896 51.1992C32.661 51.3786 37.7183 51.3706 38.0556 51.1901C38.4226 50.9935 38.6659 50.242 38.5021 49.8107C38.2205 49.0697 37.9167 48.9987 35.0768 49.0093C33.556 49.015 32.3151 49.0839 32.1313 49.1728ZM27.8384 58.4622C27.6347 58.6225 27.2111 59.1951 26.8971 59.7344C26.5833 60.2738 25.8441 61.2292 25.2544 61.8575L24.1824 62.9998H22.9389C22.2551 62.9998 21.4414 63.0759 21.1307 63.1691C20.331 63.4087 19.4206 64.2439 19.0193 65.1063C18.7203 65.7487 18.6759 66.0652 18.6747 67.5638C18.6733 69.1967 18.6915 69.3023 19.0311 69.642L19.3889 70H35H50.6111L50.9689 69.642C51.3062 69.3046 51.3267 69.1903 51.3267 67.6536C51.3267 65.5579 51.1595 65.0102 50.2384 64.0886C49.3601 63.21 48.7566 62.9998 47.1125 62.9998H45.9206L45.1793 62.3071C44.307 61.492 43.325 60.2467 42.908 59.4268C42.5061 58.6365 42.0829 58.2845 41.5349 58.2845C41.0193 58.2845 40.3937 58.8779 40.3937 59.3669C40.3937 59.7968 41.0205 60.9536 41.8412 62.0383L42.5686 62.9998H35H27.4314L28.1588 62.0383C28.9795 60.9536 29.6063 59.7968 29.6063 59.3669C29.6063 58.9792 29.0374 58.3644 28.5797 58.2573C28.3285 58.1987 28.0893 58.2648 27.8384 58.4622ZM48.6365 65.6912C48.9304 65.9851 48.9944 66.1936 48.9944 66.8579V67.6666H35H21.0057V66.8579C21.0057 66.1936 21.0697 65.9851 21.3635 65.6912L21.7213 65.3332H35H48.2787L48.6365 65.6912Z" fill="#0064AF"/>
</svg>
