<svg id="svg" version="1.1" xmlns="http://www.w3.org/2000/svg" xmlns:xlink="http://www.w3.org/1999/xlink" width="400" height="457.14285714285717" viewBox="0, 0, 400,457.14285714285717"><g id="svgg"><path id="path0" d="M206.429 54.400 C 187.416 73.430,171.786 89.225,171.696 89.500 C 171.607 89.775,171.363 90.000,171.154 90.000 C 170.702 90.000,166.000 94.815,166.000 95.278 C 166.000 95.455,165.814 95.600,165.587 95.600 C 165.089 95.600,158.400 102.346,158.400 102.848 C 158.400 103.042,158.220 103.200,158.000 103.200 C 157.495 103.200,152.800 107.870,152.800 108.373 C 152.800 108.578,152.449 108.857,152.020 108.994 C 151.592 109.130,151.130 109.592,150.994 110.020 C 150.857 110.449,150.484 110.800,150.164 110.800 C 149.845 110.800,149.379 111.247,149.131 111.792 C 148.882 112.338,148.346 112.890,147.939 113.019 C 147.533 113.148,147.200 113.483,147.200 113.763 C 147.200 114.043,146.750 114.477,146.200 114.727 C 145.650 114.978,145.200 115.445,145.200 115.764 C 145.200 116.084,144.849 116.457,144.420 116.594 C 143.992 116.730,143.530 117.192,143.394 117.620 C 143.257 118.049,143.013 118.400,142.851 118.400 C 142.375 118.400,139.600 121.069,139.600 121.527 C 139.600 121.757,139.249 122.057,138.820 122.194 C 138.392 122.330,137.933 122.783,137.800 123.200 C 137.667 123.617,137.217 124.067,136.800 124.200 C 136.383 124.333,135.933 124.783,135.800 125.200 C 135.667 125.617,135.208 126.070,134.780 126.206 C 134.351 126.343,134.000 126.716,134.000 127.036 C 134.000 127.355,133.565 127.815,133.034 128.057 C 132.503 128.299,131.979 128.836,131.871 129.249 C 131.763 129.662,131.417 130.000,131.102 130.000 C 130.786 130.000,130.323 130.450,130.073 131.000 C 129.822 131.550,129.355 132.000,129.036 132.000 C 128.716 132.000,128.343 132.351,128.206 132.780 C 128.070 133.208,127.617 133.667,127.200 133.800 C 126.783 133.933,126.330 134.392,126.194 134.820 C 126.057 135.249,125.684 135.600,125.363 135.600 C 125.043 135.600,124.609 136.050,124.400 136.600 C 124.191 137.150,123.774 137.600,123.474 137.600 C 123.174 137.600,122.723 138.050,122.473 138.600 C 122.222 139.150,121.755 139.600,121.436 139.600 C 121.116 139.600,120.743 139.951,120.606 140.380 C 120.470 140.808,120.017 141.267,119.600 141.400 C 119.183 141.533,118.733 141.983,118.600 142.400 C 118.467 142.817,118.008 143.270,117.580 143.406 C 117.151 143.543,116.800 143.916,116.800 144.237 C 116.800 144.557,116.375 144.982,115.855 145.179 C 115.335 145.377,114.812 145.912,114.692 146.369 C 114.573 146.826,114.188 147.200,113.837 147.200 C 113.487 147.200,113.200 147.376,113.200 147.591 C 113.200 148.128,102.567 158.800,102.031 158.800 C 101.794 158.800,101.600 158.975,101.600 159.190 C 101.600 159.735,96.981 164.400,96.442 164.400 C 96.199 164.400,96.000 164.674,96.000 165.009 C 96.000 165.343,95.550 165.822,95.000 166.073 C 94.450 166.323,94.000 166.694,94.000 166.896 C 94.000 167.414,89.357 172.000,88.832 172.000 C 88.594 172.000,88.400 172.274,88.400 172.609 C 88.400 172.943,87.950 173.422,87.400 173.673 C 86.850 173.923,86.400 174.294,86.400 174.496 C 86.400 174.698,85.334 175.930,84.032 177.232 C 82.730 178.534,81.498 179.600,81.296 179.600 C 81.094 179.600,80.723 180.050,80.473 180.600 C 80.222 181.150,79.743 181.600,79.409 181.600 C 79.074 181.600,78.800 181.799,78.800 182.042 C 78.800 182.543,74.154 187.200,73.654 187.200 C 73.475 187.200,73.123 187.650,72.873 188.200 C 72.622 188.750,72.143 189.200,71.809 189.200 C 71.474 189.200,71.200 189.399,71.200 189.642 C 71.200 190.153,66.549 194.800,66.036 194.800 C 65.848 194.800,65.596 195.173,65.476 195.630 C 65.357 196.086,64.903 196.553,64.467 196.667 C 64.031 196.781,63.581 197.231,63.467 197.667 C 63.353 198.103,62.886 198.557,62.430 198.676 C 61.973 198.796,61.600 199.110,61.600 199.375 C 61.600 199.639,61.150 200.247,60.600 200.725 C 60.050 201.203,59.600 201.776,59.600 201.997 C 59.600 202.219,59.429 202.400,59.220 202.400 C 58.719 202.400,54.000 207.112,54.000 207.612 C 54.000 207.826,53.838 208.000,53.640 208.000 C 53.159 208.000,48.400 212.745,48.400 213.224 C 48.400 213.431,48.246 213.600,48.058 213.600 C 47.450 213.600,33.297 227.986,33.077 228.828 C 32.919 229.430,33.117 229.740,33.832 230.012 C 34.364 230.215,34.800 230.655,34.800 230.990 C 34.800 231.326,34.980 231.600,35.200 231.600 C 35.721 231.600,38.800 234.679,38.800 235.200 C 38.800 235.420,39.074 235.600,39.410 235.600 C 39.745 235.600,40.191 236.050,40.400 236.600 C 40.609 237.150,40.971 237.600,41.203 237.600 C 41.748 237.600,44.400 240.243,44.400 240.787 C 44.400 241.014,44.674 241.200,45.009 241.200 C 45.343 241.200,45.822 241.650,46.073 242.200 C 46.323 242.750,46.773 243.200,47.073 243.200 C 47.372 243.200,47.822 243.650,48.073 244.200 C 48.323 244.750,48.786 245.200,49.102 245.200 C 49.417 245.200,49.763 245.538,49.871 245.951 C 49.979 246.364,50.503 246.901,51.034 247.143 C 51.565 247.385,52.000 247.836,52.000 248.145 C 52.000 248.454,52.373 248.804,52.830 248.924 C 53.286 249.043,53.755 249.508,53.873 249.957 C 53.990 250.406,54.418 250.879,54.823 251.007 C 55.228 251.136,55.670 251.592,55.806 252.020 C 55.943 252.449,56.329 252.800,56.664 252.800 C 57.000 252.800,57.363 253.138,57.471 253.551 C 57.579 253.964,58.103 254.501,58.634 254.743 C 59.165 254.985,59.600 255.445,59.600 255.764 C 59.600 256.084,59.951 256.457,60.380 256.594 C 60.808 256.730,61.267 257.183,61.400 257.600 C 61.533 258.017,61.992 258.470,62.420 258.606 C 62.849 258.743,63.200 259.116,63.200 259.437 C 63.200 259.757,63.650 260.191,64.200 260.400 C 64.750 260.609,65.200 261.043,65.200 261.363 C 65.200 261.684,65.570 262.064,66.023 262.207 C 66.476 262.351,67.011 262.903,67.213 263.434 C 67.415 263.965,67.843 264.400,68.163 264.400 C 68.484 264.400,68.857 264.751,68.994 265.180 C 69.130 265.608,69.592 266.070,70.020 266.206 C 70.449 266.343,70.800 266.716,70.800 267.037 C 70.800 267.357,71.250 267.791,71.800 268.000 C 72.350 268.209,72.800 268.643,72.800 268.963 C 72.800 269.284,73.170 269.664,73.623 269.807 C 74.076 269.951,74.611 270.503,74.813 271.034 C 75.015 271.565,75.443 272.000,75.763 272.000 C 76.084 272.000,76.457 272.351,76.594 272.780 C 76.730 273.208,77.192 273.670,77.620 273.806 C 78.049 273.943,78.400 274.316,78.400 274.637 C 78.400 274.957,78.850 275.391,79.400 275.600 C 79.950 275.809,80.400 276.259,80.400 276.600 C 80.400 276.941,80.825 277.382,81.345 277.579 C 81.865 277.777,82.388 278.312,82.508 278.769 C 82.627 279.226,83.000 279.600,83.336 279.600 C 83.671 279.600,84.057 279.951,84.194 280.380 C 84.330 280.808,84.792 281.270,85.220 281.406 C 85.649 281.543,86.000 281.916,86.000 282.237 C 86.000 282.557,86.435 282.985,86.966 283.187 C 87.497 283.389,88.049 283.924,88.193 284.377 C 88.336 284.830,88.716 285.200,89.037 285.200 C 89.357 285.200,89.791 285.650,90.000 286.200 C 90.209 286.750,90.643 287.200,90.963 287.200 C 91.284 287.200,91.652 287.533,91.781 287.939 C 91.910 288.346,92.462 288.882,93.008 289.131 C 93.553 289.379,94.000 289.837,94.000 290.148 C 94.000 290.459,94.450 290.826,95.000 290.964 C 95.550 291.102,96.000 291.362,96.000 291.542 C 96.000 291.721,102.165 285.650,109.700 278.050 C 139.261 248.234,183.066 204.261,236.900 150.363 C 267.865 119.361,293.200 93.817,293.200 93.598 C 293.200 93.379,293.474 93.200,293.809 93.200 C 294.143 93.200,294.622 92.750,294.873 92.200 C 295.123 91.650,295.480 91.200,295.664 91.200 C 296.113 91.200,300.800 86.497,300.800 86.047 C 300.800 85.852,301.173 85.596,301.630 85.476 C 302.086 85.357,302.555 84.892,302.673 84.443 C 302.790 83.994,303.218 83.521,303.623 83.393 C 304.028 83.264,304.464 82.828,304.593 82.423 C 304.721 82.018,305.181 81.594,305.613 81.481 C 306.046 81.367,306.400 81.017,306.400 80.702 C 306.400 80.386,306.850 79.923,307.400 79.673 C 307.950 79.422,308.400 78.955,308.400 78.636 C 308.400 78.316,308.751 77.943,309.180 77.806 C 309.608 77.670,310.070 77.208,310.206 76.780 C 310.343 76.351,310.622 76.000,310.827 76.000 C 311.330 76.000,316.000 71.305,316.000 70.800 C 316.000 70.580,316.173 70.400,316.385 70.400 C 316.914 70.400,321.600 65.732,321.600 65.205 C 321.600 64.971,322.035 64.615,322.566 64.413 C 323.097 64.211,323.649 63.676,323.793 63.223 C 323.936 62.770,324.300 62.400,324.600 62.400 C 324.900 62.400,325.257 62.049,325.394 61.620 C 325.530 61.192,325.992 60.730,326.420 60.594 C 326.849 60.457,327.200 60.100,327.200 59.800 C 327.200 59.500,327.571 59.136,328.024 58.992 C 328.478 58.848,329.047 58.296,329.289 57.765 C 329.530 57.234,329.973 56.800,330.273 56.800 C 330.572 56.800,331.022 56.350,331.273 55.800 C 331.523 55.250,331.957 54.800,332.237 54.800 C 332.517 54.800,332.857 54.449,332.994 54.020 C 333.130 53.592,333.592 53.130,334.020 52.994 C 334.449 52.857,334.800 52.484,334.800 52.163 C 334.800 51.843,335.235 51.415,335.766 51.213 C 336.297 51.011,336.849 50.476,336.993 50.023 C 337.136 49.570,337.443 49.200,337.673 49.200 C 338.110 49.200,340.800 46.435,340.800 45.986 C 340.800 45.844,341.250 45.523,341.800 45.273 C 342.350 45.022,342.800 44.543,342.800 44.209 C 342.800 43.874,343.074 43.600,343.409 43.600 C 343.743 43.600,344.215 43.165,344.457 42.634 C 344.699 42.103,345.236 41.579,345.649 41.471 C 346.062 41.363,346.400 41.017,346.400 40.702 C 346.400 40.386,346.850 39.923,347.400 39.673 C 347.950 39.422,348.400 38.955,348.400 38.636 C 348.400 38.316,348.751 37.943,349.180 37.806 C 349.608 37.670,350.070 37.208,350.206 36.780 C 350.343 36.351,350.716 36.000,351.036 36.000 C 351.355 36.000,351.815 35.565,352.057 35.034 C 352.299 34.503,352.836 33.979,353.249 33.871 C 353.662 33.763,354.000 33.417,354.000 33.102 C 354.000 32.786,354.450 32.323,355.000 32.073 C 355.550 31.822,356.000 31.355,356.000 31.036 C 356.000 30.716,356.351 30.343,356.780 30.206 C 357.208 30.070,357.667 29.617,357.800 29.200 C 357.933 28.783,358.392 28.330,358.820 28.194 C 359.249 28.057,359.600 27.684,359.600 27.364 C 359.600 27.045,360.050 26.578,360.600 26.327 C 361.150 26.077,361.600 25.614,361.600 25.298 C 361.600 24.983,361.954 24.633,362.387 24.519 C 362.819 24.406,363.279 23.982,363.407 23.577 C 363.536 23.172,363.992 22.730,364.420 22.594 C 364.849 22.457,365.200 22.090,365.200 21.776 C 365.200 21.463,365.560 20.982,366.000 20.707 C 366.440 20.432,366.800 20.116,366.800 20.004 C 366.800 19.892,338.495 19.800,303.900 19.800 L 240.999 19.800 206.429 54.400 M216.446 237.374 C 149.636 303.982,129.201 324.541,129.206 325.141 C 129.216 326.251,129.083 326.114,161.285 358.322 C 186.716 383.758,192.625 389.479,192.735 388.768 C 192.809 388.286,193.079 387.637,193.335 387.327 C 193.854 386.696,193.854 386.697,197.200 383.525 C 198.520 382.273,199.600 381.070,199.600 380.852 C 199.600 380.633,199.951 380.343,200.380 380.206 C 200.808 380.070,201.270 379.608,201.406 379.180 C 201.543 378.751,201.796 378.400,201.969 378.400 C 202.455 378.400,207.200 373.705,207.200 373.225 C 207.200 372.991,207.348 372.800,207.528 372.800 C 208.016 372.800,214.800 366.095,214.800 365.613 C 214.800 365.386,214.962 365.200,215.161 365.200 C 215.359 365.200,224.462 356.290,235.390 345.400 C 255.141 325.716,255.988 324.960,256.768 326.300 C 257.294 327.204,257.311 326.743,256.800 325.400 C 256.339 324.187,256.880 322.800,257.814 322.800 C 258.136 322.800,258.400 322.526,258.400 322.191 C 258.400 321.857,258.850 321.378,259.400 321.127 C 259.950 320.877,260.400 320.514,260.400 320.322 C 260.400 319.858,263.073 317.200,263.540 317.200 C 263.742 317.200,264.004 316.827,264.124 316.370 C 264.243 315.914,264.714 315.443,265.170 315.324 C 265.627 315.204,266.000 314.948,266.000 314.753 C 266.000 314.292,270.692 309.600,271.153 309.600 C 271.348 309.600,271.604 309.227,271.724 308.770 C 271.843 308.314,272.314 307.843,272.770 307.724 C 273.227 307.604,273.600 307.347,273.600 307.151 C 273.600 306.654,280.290 300.000,280.790 300.000 C 281.016 300.000,281.200 299.819,281.200 299.598 C 281.200 299.068,287.861 292.400,288.390 292.400 C 288.616 292.400,288.800 292.221,288.800 292.002 C 288.800 291.485,295.407 284.800,295.917 284.800 C 296.131 284.800,296.404 284.427,296.524 283.970 C 296.643 283.514,297.114 283.043,297.570 282.924 C 298.027 282.804,298.400 282.536,298.400 282.327 C 298.400 282.118,310.865 269.427,326.100 254.125 C 341.335 238.823,356.536 223.556,359.879 220.197 C 363.222 216.839,365.847 213.981,365.712 213.846 C 365.577 213.711,337.303 213.600,302.880 213.600 L 240.293 213.600 216.446 237.374 M288.030 357.991 C 304.997 374.966,318.953 388.780,319.044 388.690 C 319.249 388.485,258.239 327.480,257.625 327.275 C 257.380 327.193,271.063 341.016,288.030 357.991 M319.600 389.357 C 319.600 389.742,332.041 402.092,332.234 401.899 C 332.320 401.814,329.893 399.236,326.841 396.172 C 320.558 389.862,319.600 388.960,319.600 389.357 M193.889 390.802 C 197.168 394.484,241.842 438.966,240.800 437.512 C 240.363 436.903,197.985 394.444,195.577 392.202 C 194.159 390.884,193.400 390.254,193.889 390.802 M332.800 402.455 C 332.800 402.864,361.000 431.200,361.407 431.200 C 361.562 431.200,358.654 428.155,354.944 424.434 C 351.235 420.712,344.735 414.168,340.500 409.890 C 336.265 405.612,332.800 402.267,332.800 402.455 M363.863 433.943 C 365.218 435.294,366.445 436.400,366.591 436.400 C 367.007 436.400,363.092 432.406,362.200 431.921 C 361.760 431.682,362.508 432.592,363.863 433.943 " stroke="none" fill="#4cc1fa" fill-rule="evenodd"></path><path id="path1" d="M235.390 345.400 C 224.462 356.290,215.359 365.200,215.161 365.200 C 214.962 365.200,214.800 365.386,214.800 365.613 C 214.800 366.095,208.016 372.800,207.528 372.800 C 207.348 372.800,207.200 372.991,207.200 373.225 C 207.200 373.705,202.455 378.400,201.969 378.400 C 201.796 378.400,201.543 378.751,201.406 379.180 C 201.270 379.608,200.808 380.070,200.380 380.206 C 199.951 380.343,199.600 380.633,199.600 380.852 C 199.600 381.070,198.520 382.273,197.200 383.525 C 193.848 386.701,193.857 386.693,193.300 387.364 C 192.359 388.497,192.786 389.541,195.063 391.677 C 196.308 392.845,207.152 403.655,219.162 415.700 L 240.997 437.600 303.466 437.600 C 337.824 437.600,366.219 437.491,366.567 437.357 C 367.289 437.080,367.424 436.400,366.757 436.400 C 366.207 436.400,332.800 402.951,332.800 402.399 C 332.800 402.180,332.626 402.000,332.412 402.000 C 331.885 402.000,319.600 389.745,319.600 389.219 C 319.600 388.988,319.425 388.800,319.212 388.800 C 318.724 388.800,257.348 327.423,256.785 326.373 C 256.013 324.929,255.260 325.598,235.390 345.400 " stroke="none" fill="#045297" fill-rule="evenodd"></path><path id="path2" d="M0.000 228.400 L 0.000 456.800 200.000 456.800 L 400.000 456.800 400.000 228.400 L 400.000 0.000 200.000 0.000 L 0.000 0.000 0.000 228.400 M367.793 19.450 C 368.394 20.051,368.066 20.479,363.522 25.029 C 360.815 27.740,358.397 30.192,358.149 30.479 C 357.901 30.765,356.641 32.027,355.349 33.281 C 354.057 34.536,352.784 35.796,352.519 36.081 C 352.255 36.367,351.805 36.798,351.519 37.040 C 351.234 37.283,350.334 38.183,349.519 39.040 C 348.705 39.898,346.500 42.117,344.619 43.971 C 342.739 45.826,341.200 47.479,341.200 47.644 C 341.200 47.810,340.840 48.060,340.400 48.200 C 339.960 48.340,339.600 48.668,339.600 48.929 C 339.600 49.190,338.797 50.033,337.815 50.802 C 336.833 51.571,336.023 52.314,336.015 52.453 C 335.990 52.866,296.748 92.000,296.358 92.000 C 296.161 92.000,296.000 92.175,296.000 92.389 C 296.000 92.603,289.565 99.250,281.700 107.159 C 267.198 121.744,132.823 256.630,109.216 280.300 C 102.140 287.395,96.162 293.200,95.932 293.200 C 95.702 293.200,90.032 287.710,83.332 281.000 C 76.632 274.290,70.981 268.800,70.775 268.800 C 70.569 268.800,70.400 268.640,70.400 268.444 C 70.400 268.249,61.760 259.433,51.200 248.854 C 36.313 233.940,32.000 229.399,32.000 228.638 C 32.000 227.869,41.701 217.943,76.800 182.798 C 101.440 158.126,121.600 137.773,121.600 137.570 C 121.600 137.366,121.749 137.200,121.931 137.200 C 122.366 137.200,144.800 114.769,144.800 114.334 C 144.800 114.150,144.957 114.000,145.149 114.000 C 145.341 114.000,147.816 111.661,150.649 108.803 C 153.482 105.944,156.475 102.929,157.301 102.103 C 158.126 101.276,159.026 100.373,159.301 100.096 C 159.743 99.650,165.631 93.779,166.908 92.511 C 167.178 92.242,167.621 91.792,167.891 91.511 C 168.650 90.720,170.737 88.625,206.677 52.578 L 240.355 18.800 303.749 18.800 C 361.744 18.800,367.198 18.855,367.793 19.450 M367.120 212.880 C 367.384 213.144,367.600 213.569,367.600 213.824 C 367.600 214.079,342.843 239.094,312.584 269.414 C 260.714 321.388,257.582 324.606,257.816 325.671 C 257.952 326.292,258.194 326.800,258.354 326.800 C 258.827 326.800,261.600 329.471,261.600 329.927 C 261.600 330.157,261.951 330.457,262.380 330.594 C 262.808 330.730,263.267 331.183,263.400 331.600 C 263.533 332.017,263.983 332.467,264.400 332.600 C 264.817 332.733,265.270 333.192,265.406 333.620 C 265.543 334.049,265.807 334.400,265.995 334.400 C 266.183 334.400,267.409 335.502,268.720 336.848 C 270.031 338.194,271.311 339.499,271.563 339.748 C 271.816 339.997,272.242 340.434,272.511 340.719 C 272.780 341.005,273.230 341.455,273.512 341.719 C 276.326 344.362,278.800 346.928,278.800 347.205 C 278.800 347.393,279.151 347.657,279.580 347.794 C 280.008 347.930,280.462 348.364,280.587 348.760 C 280.713 349.155,281.262 349.682,281.808 349.931 C 282.353 350.179,282.800 350.657,282.800 350.991 C 282.800 351.326,283.001 351.600,283.246 351.600 C 283.703 351.600,286.400 354.349,286.400 354.814 C 286.400 354.956,286.850 355.277,287.400 355.527 C 287.950 355.778,288.400 356.153,288.400 356.361 C 288.400 356.832,290.738 359.200,291.204 359.200 C 291.392 359.200,291.664 359.570,291.807 360.023 C 291.951 360.476,292.503 361.011,293.034 361.213 C 293.565 361.415,294.000 361.745,294.000 361.947 C 294.000 362.424,298.376 366.800,298.853 366.800 C 299.055 366.800,299.385 367.235,299.587 367.766 C 299.789 368.297,300.324 368.849,300.777 368.993 C 301.230 369.136,301.600 369.402,301.600 369.583 C 301.600 370.036,305.998 374.400,306.453 374.400 C 306.655 374.400,306.985 374.835,307.187 375.366 C 307.389 375.897,307.924 376.449,308.377 376.593 C 308.830 376.736,309.200 377.013,309.200 377.208 C 309.200 377.639,311.998 380.400,312.434 380.400 C 312.606 380.400,312.857 380.751,312.994 381.180 C 313.130 381.608,313.592 382.070,314.020 382.206 C 314.449 382.343,314.800 382.716,314.800 383.036 C 314.800 383.355,315.250 383.822,315.800 384.073 C 316.350 384.323,316.800 384.757,316.800 385.037 C 316.800 385.317,317.151 385.657,317.580 385.794 C 318.008 385.930,318.467 386.383,318.600 386.800 C 318.733 387.217,319.183 387.667,319.600 387.800 C 320.017 387.933,320.467 388.383,320.600 388.800 C 320.733 389.217,321.183 389.667,321.600 389.800 C 322.017 389.933,322.470 390.392,322.606 390.820 C 322.743 391.249,323.100 391.600,323.400 391.600 C 323.700 391.600,324.057 391.951,324.194 392.380 C 324.330 392.808,324.783 393.267,325.200 393.400 C 325.617 393.533,326.067 393.983,326.200 394.400 C 326.333 394.817,326.783 395.267,327.200 395.400 C 327.617 395.533,328.067 395.983,328.200 396.400 C 328.333 396.817,328.783 397.267,329.200 397.400 C 329.617 397.533,330.070 397.992,330.206 398.420 C 330.343 398.849,330.700 399.200,331.000 399.200 C 331.300 399.200,331.664 399.570,331.807 400.023 C 331.951 400.476,332.503 401.011,333.034 401.213 C 333.565 401.415,334.000 401.843,334.000 402.163 C 334.000 402.484,334.360 402.860,334.800 403.000 C 335.240 403.140,335.600 403.401,335.600 403.580 C 335.600 404.021,338.803 407.200,339.247 407.200 C 339.441 407.200,339.600 407.364,339.600 407.563 C 339.600 408.027,367.107 435.600,367.570 435.600 C 368.088 435.600,368.450 436.813,368.182 437.656 C 367.919 438.486,241.190 438.858,239.674 438.034 C 238.906 437.616,171.537 370.067,165.439 363.600 C 164.713 362.830,163.507 361.640,162.759 360.956 C 162.012 360.271,160.361 358.606,159.090 357.256 C 157.820 355.905,156.723 354.800,156.654 354.800 C 156.360 354.800,151.600 349.842,151.600 349.536 C 151.600 349.351,151.360 349.200,151.068 349.200 C 150.775 349.200,150.294 348.750,150.000 348.200 C 149.706 347.650,149.333 347.200,149.172 347.200 C 148.892 347.200,146.000 344.457,146.000 344.191 C 146.000 344.029,143.582 341.600,143.421 341.600 C 143.121 341.600,138.400 336.669,138.400 336.356 C 138.400 336.160,138.253 336.000,138.074 336.000 C 137.895 336.000,136.230 334.455,134.374 332.567 C 132.518 330.680,130.426 328.591,129.724 327.926 C 129.023 327.260,128.279 326.228,128.071 325.631 C 127.687 324.531,141.800 310.139,200.700 251.563 C 205.595 246.695,209.600 242.552,209.600 242.356 C 209.600 242.160,209.740 242.000,209.911 242.000 C 210.082 242.000,213.457 238.742,217.411 234.760 C 221.365 230.779,225.292 226.864,226.139 226.060 C 226.985 225.257,229.505 222.732,231.739 220.450 C 236.909 215.166,238.656 213.520,239.735 212.914 C 240.986 212.211,366.418 212.178,367.120 212.880 " stroke="none" fill="#f4f4f3" fill-rule="evenodd"></path><path id="path3" d="M257.087 325.064 C 256.610 325.828,257.179 326.723,259.616 329.048 C 261.509 330.853,304.663 374.024,357.894 427.365 C 363.226 432.707,367.471 437.196,367.327 437.339 C 367.184 437.483,338.560 437.600,303.718 437.600 L 240.370 437.600 216.285 413.399 C 193.156 390.159,191.381 388.457,191.671 389.798 C 191.811 390.448,238.570 437.433,239.674 438.034 C 241.190 438.858,367.919 438.486,368.182 437.656 C 368.450 436.813,368.088 435.600,367.570 435.600 C 367.107 435.600,339.600 408.027,339.600 407.563 C 339.600 407.364,339.441 407.200,339.247 407.200 C 338.803 407.200,335.600 404.021,335.600 403.580 C 335.600 403.401,335.240 403.140,334.800 403.000 C 334.360 402.860,334.000 402.484,334.000 402.163 C 334.000 401.843,333.565 401.415,333.034 401.213 C 332.503 401.011,331.951 400.476,331.807 400.023 C 331.664 399.570,331.300 399.200,331.000 399.200 C 330.700 399.200,330.343 398.849,330.206 398.420 C 330.070 397.992,329.617 397.533,329.200 397.400 C 328.783 397.267,328.333 396.817,328.200 396.400 C 328.067 395.983,327.617 395.533,327.200 395.400 C 326.783 395.267,326.333 394.817,326.200 394.400 C 326.067 393.983,325.617 393.533,325.200 393.400 C 324.783 393.267,324.330 392.808,324.194 392.380 C 324.057 391.951,323.700 391.600,323.400 391.600 C 323.100 391.600,322.743 391.249,322.606 390.820 C 322.470 390.392,322.017 389.933,321.600 389.800 C 321.183 389.667,320.733 389.217,320.600 388.800 C 320.467 388.383,320.017 387.933,319.600 387.800 C 319.183 387.667,318.733 387.217,318.600 386.800 C 318.467 386.383,318.008 385.930,317.580 385.794 C 317.151 385.657,316.800 385.317,316.800 385.037 C 316.800 384.757,316.350 384.323,315.800 384.073 C 315.250 383.822,314.800 383.355,314.800 383.036 C 314.800 382.716,314.449 382.343,314.020 382.206 C 313.592 382.070,313.130 381.608,312.994 381.180 C 312.857 380.751,312.606 380.400,312.434 380.400 C 311.998 380.400,309.200 377.639,309.200 377.208 C 309.200 377.013,308.830 376.736,308.377 376.593 C 307.924 376.449,307.389 375.897,307.187 375.366 C 306.985 374.835,306.655 374.400,306.453 374.400 C 305.998 374.400,301.600 370.036,301.600 369.583 C 301.600 369.402,301.230 369.136,300.777 368.993 C 300.324 368.849,299.789 368.297,299.587 367.766 C 299.385 367.235,299.055 366.800,298.853 366.800 C 298.652 366.800,297.477 365.790,296.243 364.557 C 295.010 363.323,294.000 362.148,294.000 361.947 C 294.000 361.745,293.565 361.415,293.034 361.213 C 292.503 361.011,291.951 360.476,291.807 360.023 C 291.664 359.570,291.392 359.200,291.204 359.200 C 290.738 359.200,288.400 356.832,288.400 356.361 C 288.400 356.153,287.950 355.778,287.400 355.527 C 286.850 355.277,286.400 354.956,286.400 354.814 C 286.400 354.349,283.703 351.600,283.246 351.600 C 283.001 351.600,282.800 351.326,282.800 350.991 C 282.800 350.657,282.353 350.179,281.808 349.931 C 281.262 349.682,280.713 349.155,280.587 348.760 C 280.462 348.364,280.008 347.930,279.580 347.794 C 279.151 347.657,278.800 347.393,278.800 347.205 C 278.800 346.928,276.326 344.362,273.512 341.719 C 273.230 341.455,272.780 341.005,272.511 340.719 C 272.242 340.434,271.816 339.997,271.563 339.748 C 271.311 339.499,270.031 338.194,268.720 336.848 C 267.409 335.502,266.183 334.400,265.995 334.400 C 265.807 334.400,265.543 334.049,265.406 333.620 C 265.270 333.192,264.817 332.733,264.400 332.600 C 263.983 332.467,263.533 332.017,263.400 331.600 C 263.267 331.183,262.808 330.730,262.380 330.594 C 261.951 330.457,261.600 330.157,261.600 329.927 C 261.600 329.497,258.839 326.800,258.399 326.800 C 258.265 326.800,257.979 326.305,257.765 325.700 C 257.520 325.006,257.269 324.771,257.087 325.064 " stroke="none" fill="#94accc" fill-rule="evenodd"></path><path id="path4" d="M206.677 52.578 C 170.737 88.625,168.650 90.720,167.891 91.511 C 167.621 91.792,167.178 92.242,166.908 92.511 C 165.631 93.779,159.743 99.650,159.301 100.096 C 159.026 100.373,158.126 101.276,157.301 102.103 C 156.475 102.929,153.482 105.944,150.649 108.803 C 147.816 111.661,145.341 114.000,145.149 114.000 C 144.957 114.000,144.800 114.150,144.800 114.334 C 144.800 114.769,122.366 137.200,121.931 137.200 C 121.749 137.200,121.600 137.366,121.600 137.570 C 121.600 137.773,101.440 158.126,76.800 182.798 C 41.701 217.943,32.000 227.869,32.000 228.638 C 32.000 229.399,36.313 233.940,51.200 248.854 C 61.760 259.433,70.400 268.249,70.400 268.444 C 70.400 268.640,70.569 268.800,70.775 268.800 C 70.981 268.800,76.632 274.290,83.332 281.000 C 90.032 287.710,95.702 293.200,95.932 293.200 C 96.162 293.200,102.140 287.395,109.216 280.300 C 132.823 256.630,267.198 121.744,281.700 107.159 C 289.565 99.250,296.000 92.603,296.000 92.389 C 296.000 92.175,296.161 92.000,296.358 92.000 C 296.748 92.000,335.990 52.866,336.015 52.453 C 336.023 52.314,336.833 51.571,337.815 50.802 C 338.797 50.033,339.600 49.190,339.600 48.929 C 339.600 48.668,339.960 48.340,340.400 48.200 C 340.840 48.060,341.200 47.810,341.200 47.644 C 341.200 47.479,342.739 45.826,344.619 43.971 C 346.500 42.117,348.705 39.898,349.519 39.040 C 350.334 38.183,351.234 37.283,351.519 37.040 C 351.805 36.798,352.255 36.367,352.519 36.081 C 352.784 35.796,354.057 34.536,355.349 33.281 C 356.641 32.027,357.901 30.765,358.149 30.479 C 358.397 30.192,360.815 27.740,363.522 25.029 C 368.066 20.479,368.394 20.051,367.793 19.450 C 367.198 18.855,361.744 18.800,303.749 18.800 L 240.355 18.800 206.677 52.578 M366.800 20.004 C 366.800 20.116,366.440 20.432,366.000 20.707 C 365.560 20.982,365.200 21.463,365.200 21.776 C 365.200 22.090,364.849 22.457,364.420 22.594 C 363.992 22.730,363.536 23.172,363.407 23.577 C 363.279 23.982,362.819 24.406,362.387 24.519 C 361.954 24.633,361.600 24.983,361.600 25.298 C 361.600 25.614,361.150 26.077,360.600 26.327 C 360.050 26.578,359.600 27.045,359.600 27.364 C 359.600 27.684,359.249 28.057,358.820 28.194 C 358.392 28.330,357.933 28.783,357.800 29.200 C 357.667 29.617,357.208 30.070,356.780 30.206 C 356.351 30.343,356.000 30.716,356.000 31.036 C 356.000 31.355,355.550 31.822,355.000 32.073 C 354.450 32.323,354.000 32.786,354.000 33.102 C 354.000 33.417,353.662 33.763,353.249 33.871 C 352.836 33.979,352.299 34.503,352.057 35.034 C 351.815 35.565,351.355 36.000,351.036 36.000 C 350.716 36.000,350.343 36.351,350.206 36.780 C 350.070 37.208,349.608 37.670,349.180 37.806 C 348.751 37.943,348.400 38.316,348.400 38.636 C 348.400 38.955,347.950 39.422,347.400 39.673 C 346.850 39.923,346.400 40.386,346.400 40.702 C 346.400 41.017,346.062 41.363,345.649 41.471 C 345.236 41.579,344.699 42.103,344.457 42.634 C 344.215 43.165,343.743 43.600,343.409 43.600 C 343.074 43.600,342.800 43.874,342.800 44.209 C 342.800 44.543,342.350 45.022,341.800 45.273 C 341.250 45.523,340.800 45.844,340.800 45.986 C 340.800 46.435,338.110 49.200,337.673 49.200 C 337.443 49.200,337.136 49.570,336.993 50.023 C 336.849 50.476,336.297 51.011,335.766 51.213 C 335.235 51.415,334.800 51.843,334.800 52.163 C 334.800 52.484,334.449 52.857,334.020 52.994 C 333.592 53.130,333.130 53.592,332.994 54.020 C 332.857 54.449,332.517 54.800,332.237 54.800 C 331.957 54.800,331.523 55.250,331.273 55.800 C 331.022 56.350,330.572 56.800,330.273 56.800 C 329.973 56.800,329.530 57.234,329.289 57.765 C 329.047 58.296,328.478 58.848,328.024 58.992 C 327.571 59.136,327.200 59.500,327.200 59.800 C 327.200 60.100,326.849 60.457,326.420 60.594 C 325.992 60.730,325.530 61.192,325.394 61.620 C 325.257 62.049,324.900 62.400,324.600 62.400 C 324.300 62.400,323.936 62.770,323.793 63.223 C 323.649 63.676,323.097 64.211,322.566 64.413 C 322.035 64.615,321.600 64.971,321.600 65.205 C 321.600 65.732,316.914 70.400,316.385 70.400 C 316.173 70.400,316.000 70.580,316.000 70.800 C 316.000 71.305,311.330 76.000,310.827 76.000 C 310.622 76.000,310.343 76.351,310.206 76.780 C 310.070 77.208,309.608 77.670,309.180 77.806 C 308.751 77.943,308.400 78.316,308.400 78.636 C 308.400 78.955,307.950 79.422,307.400 79.673 C 306.850 79.923,306.400 80.386,306.400 80.702 C 306.400 81.017,306.046 81.367,305.613 81.481 C 305.181 81.594,304.721 82.018,304.593 82.423 C 304.464 82.828,304.028 83.264,303.623 83.393 C 303.218 83.521,302.790 83.994,302.673 84.443 C 302.555 84.892,302.086 85.357,301.630 85.476 C 301.173 85.596,300.800 85.852,300.800 86.047 C 300.800 86.497,296.113 91.200,295.664 91.200 C 295.480 91.200,295.123 91.650,294.873 92.200 C 294.622 92.750,294.143 93.200,293.809 93.200 C 293.474 93.200,293.200 93.379,293.200 93.598 C 293.200 93.817,267.865 119.361,236.900 150.363 C 183.066 204.261,139.261 248.234,109.700 278.050 C 102.165 285.650,96.000 291.721,96.000 291.542 C 96.000 291.362,95.550 291.102,95.000 290.964 C 94.450 290.826,94.000 290.459,94.000 290.148 C 94.000 289.837,93.553 289.379,93.008 289.131 C 92.462 288.882,91.910 288.346,91.781 287.939 C 91.652 287.533,91.284 287.200,90.963 287.200 C 90.643 287.200,90.209 286.750,90.000 286.200 C 89.791 285.650,89.357 285.200,89.037 285.200 C 88.716 285.200,88.336 284.830,88.193 284.377 C 88.049 283.924,87.497 283.389,86.966 283.187 C 86.435 282.985,86.000 282.557,86.000 282.237 C 86.000 281.916,85.649 281.543,85.220 281.406 C 84.792 281.270,84.330 280.808,84.194 280.380 C 84.057 279.951,83.671 279.600,83.336 279.600 C 83.000 279.600,82.627 279.226,82.508 278.769 C 82.388 278.312,81.865 277.777,81.345 277.579 C 80.825 277.382,80.400 276.941,80.400 276.600 C 80.400 276.259,79.950 275.809,79.400 275.600 C 78.850 275.391,78.400 274.957,78.400 274.637 C 78.400 274.316,78.049 273.943,77.620 273.806 C 77.192 273.670,76.730 273.208,76.594 272.780 C 76.457 272.351,76.084 272.000,75.763 272.000 C 75.443 272.000,75.015 271.565,74.813 271.034 C 74.611 270.503,74.076 269.951,73.623 269.807 C 73.170 269.664,72.800 269.284,72.800 268.963 C 72.800 268.643,72.350 268.209,71.800 268.000 C 71.250 267.791,70.800 267.357,70.800 267.037 C 70.800 266.716,70.449 266.343,70.020 266.206 C 69.592 266.070,69.130 265.608,68.994 265.180 C 68.857 264.751,68.484 264.400,68.163 264.400 C 67.843 264.400,67.415 263.965,67.213 263.434 C 67.011 262.903,66.476 262.351,66.023 262.207 C 65.570 262.064,65.200 261.684,65.200 261.363 C 65.200 261.043,64.750 260.609,64.200 260.400 C 63.650 260.191,63.200 259.757,63.200 259.437 C 63.200 259.116,62.849 258.743,62.420 258.606 C 61.992 258.470,61.533 258.017,61.400 257.600 C 61.267 257.183,60.808 256.730,60.380 256.594 C 59.951 256.457,59.600 256.084,59.600 255.764 C 59.600 255.445,59.165 254.985,58.634 254.743 C 58.103 254.501,57.579 253.964,57.471 253.551 C 57.363 253.138,57.000 252.800,56.664 252.800 C 56.329 252.800,55.943 252.449,55.806 252.020 C 55.670 251.592,55.228 251.136,54.823 251.007 C 54.418 250.879,53.990 250.406,53.873 249.957 C 53.755 249.508,53.286 249.043,52.830 248.924 C 52.373 248.804,52.000 248.454,52.000 248.145 C 52.000 247.836,51.565 247.385,51.034 247.143 C 50.503 246.901,49.979 246.364,49.871 245.951 C 49.763 245.538,49.417 245.200,49.102 245.200 C 48.786 245.200,48.323 244.750,48.073 244.200 C 47.822 243.650,47.372 243.200,47.073 243.200 C 46.773 243.200,46.323 242.750,46.073 242.200 C 45.822 241.650,45.343 241.200,45.009 241.200 C 44.674 241.200,44.400 241.014,44.400 240.787 C 44.400 240.243,41.748 237.600,41.203 237.600 C 40.971 237.600,40.609 237.150,40.400 236.600 C 40.191 236.050,39.745 235.600,39.410 235.600 C 39.074 235.600,38.800 235.420,38.800 235.200 C 38.800 234.679,35.721 231.600,35.200 231.600 C 34.980 231.600,34.800 231.326,34.800 230.990 C 34.800 230.655,34.364 230.215,33.832 230.012 C 33.117 229.740,32.919 229.430,33.077 228.828 C 33.297 227.986,47.450 213.600,48.058 213.600 C 48.246 213.600,48.400 213.431,48.400 213.224 C 48.400 212.745,53.159 208.000,53.640 208.000 C 53.838 208.000,54.000 207.826,54.000 207.612 C 54.000 207.112,58.719 202.400,59.220 202.400 C 59.429 202.400,59.600 202.219,59.600 201.997 C 59.600 201.776,60.050 201.203,60.600 200.725 C 61.150 200.247,61.600 199.639,61.600 199.375 C 61.600 199.110,61.973 198.796,62.430 198.676 C 62.886 198.557,63.353 198.103,63.467 197.667 C 63.581 197.231,64.031 196.781,64.467 196.667 C 64.903 196.553,65.357 196.086,65.476 195.630 C 65.596 195.173,65.848 194.800,66.036 194.800 C 66.549 194.800,71.200 190.153,71.200 189.642 C 71.200 189.399,71.474 189.200,71.809 189.200 C 72.143 189.200,72.622 188.750,72.873 188.200 C 73.123 187.650,73.475 187.200,73.654 187.200 C 74.154 187.200,78.800 182.543,78.800 182.042 C 78.800 181.799,79.074 181.600,79.409 181.600 C 79.743 181.600,80.222 181.150,80.473 180.600 C 80.723 180.050,81.094 179.600,81.296 179.600 C 81.498 179.600,82.730 178.534,84.032 177.232 C 85.334 175.930,86.400 174.698,86.400 174.496 C 86.400 174.294,86.850 173.923,87.400 173.673 C 87.950 173.422,88.400 172.943,88.400 172.609 C 88.400 172.274,88.594 172.000,88.832 172.000 C 89.357 172.000,94.000 167.414,94.000 166.896 C 94.000 166.694,94.450 166.323,95.000 166.073 C 95.550 165.822,96.000 165.343,96.000 165.009 C 96.000 164.674,96.199 164.400,96.442 164.400 C 96.981 164.400,101.600 159.735,101.600 159.190 C 101.600 158.975,101.794 158.800,102.031 158.800 C 102.567 158.800,113.200 148.128,113.200 147.591 C 113.200 147.376,113.487 147.200,113.837 147.200 C 114.188 147.200,114.573 146.826,114.692 146.369 C 114.812 145.912,115.335 145.377,115.855 145.179 C 116.375 144.982,116.800 144.557,116.800 144.237 C 116.800 143.916,117.151 143.543,117.580 143.406 C 118.008 143.270,118.467 142.817,118.600 142.400 C 118.733 141.983,119.183 141.533,119.600 141.400 C 120.017 141.267,120.470 140.808,120.606 140.380 C 120.743 139.951,121.116 139.600,121.436 139.600 C 121.755 139.600,122.222 139.150,122.473 138.600 C 122.723 138.050,123.174 137.600,123.474 137.600 C 123.774 137.600,124.191 137.150,124.400 136.600 C 124.609 136.050,125.043 135.600,125.363 135.600 C 125.684 135.600,126.057 135.249,126.194 134.820 C 126.330 134.392,126.783 133.933,127.200 133.800 C 127.617 133.667,128.070 133.208,128.206 132.780 C 128.343 132.351,128.716 132.000,129.036 132.000 C 129.355 132.000,129.822 131.550,130.073 131.000 C 130.323 130.450,130.786 130.000,131.102 130.000 C 131.417 130.000,131.763 129.662,131.871 129.249 C 131.979 128.836,132.503 128.299,133.034 128.057 C 133.565 127.815,134.000 127.355,134.000 127.036 C 134.000 126.716,134.351 126.343,134.780 126.206 C 135.208 126.070,135.667 125.617,135.800 125.200 C 135.933 124.783,136.383 124.333,136.800 124.200 C 137.217 124.067,137.667 123.617,137.800 123.200 C 137.933 122.783,138.392 122.330,138.820 122.194 C 139.249 122.057,139.600 121.757,139.600 121.527 C 139.600 121.069,142.375 118.400,142.851 118.400 C 143.013 118.400,143.257 118.049,143.394 117.620 C 143.530 117.192,143.992 116.730,144.420 116.594 C 144.849 116.457,145.200 116.084,145.200 115.764 C 145.200 115.445,145.650 114.978,146.200 114.727 C 146.750 114.477,147.200 114.043,147.200 113.763 C 147.200 113.483,147.533 113.148,147.939 113.019 C 148.346 112.890,148.882 112.338,149.131 111.792 C 149.379 111.247,149.845 110.800,150.164 110.800 C 150.484 110.800,150.857 110.449,150.994 110.020 C 151.130 109.592,151.592 109.130,152.020 108.994 C 152.449 108.857,152.800 108.578,152.800 108.373 C 152.800 107.870,157.495 103.200,158.000 103.200 C 158.220 103.200,158.400 103.042,158.400 102.848 C 158.400 102.346,165.089 95.600,165.587 95.600 C 165.814 95.600,166.000 95.455,166.000 95.278 C 166.000 94.815,170.702 90.000,171.154 90.000 C 171.363 90.000,171.607 89.775,171.696 89.500 C 171.786 89.225,187.416 73.430,206.429 54.400 L 240.999 19.800 303.900 19.800 C 338.495 19.800,366.800 19.892,366.800 20.004 M239.735 212.914 C 238.656 213.520,236.909 215.166,231.739 220.450 C 229.505 222.732,226.985 225.257,226.139 226.060 C 225.292 226.864,221.365 230.779,217.411 234.760 C 213.457 238.742,210.082 242.000,209.911 242.000 C 209.740 242.000,209.600 242.160,209.600 242.356 C 209.600 242.552,205.595 246.695,200.700 251.563 C 141.800 310.139,127.687 324.531,128.071 325.631 C 128.279 326.228,129.023 327.260,129.724 327.926 C 130.426 328.591,132.518 330.680,134.374 332.567 C 136.230 334.455,137.895 336.000,138.074 336.000 C 138.253 336.000,138.400 336.160,138.400 336.356 C 138.400 336.669,143.121 341.600,143.421 341.600 C 143.582 341.600,146.000 344.029,146.000 344.191 C 146.000 344.457,148.892 347.200,149.172 347.200 C 149.333 347.200,149.706 347.650,150.000 348.200 C 150.294 348.750,150.775 349.200,151.068 349.200 C 151.360 349.200,151.600 349.351,151.600 349.536 C 151.600 349.842,156.360 354.800,156.654 354.800 C 156.723 354.800,157.820 355.905,159.090 357.256 C 160.361 358.606,162.012 360.271,162.759 360.956 C 163.507 361.640,164.713 362.830,165.439 363.600 C 172.059 370.622,191.336 389.563,191.660 389.363 C 191.887 389.223,178.100 375.133,161.021 358.054 C 129.089 326.119,129.216 326.251,129.206 325.141 C 129.201 324.541,149.636 303.982,216.446 237.374 L 240.293 213.600 302.880 213.600 C 337.303 213.600,365.577 213.711,365.712 213.846 C 365.847 213.981,363.222 216.839,359.879 220.197 C 356.536 223.556,341.335 238.823,326.100 254.125 C 310.865 269.427,298.400 282.118,298.400 282.327 C 298.400 282.536,298.027 282.804,297.570 282.924 C 297.114 283.043,296.643 283.514,296.524 283.970 C 296.404 284.427,296.131 284.800,295.917 284.800 C 295.407 284.800,288.800 291.485,288.800 292.002 C 288.800 292.221,288.616 292.400,288.390 292.400 C 287.861 292.400,281.200 299.068,281.200 299.598 C 281.200 299.819,281.016 300.000,280.790 300.000 C 280.290 300.000,273.600 306.654,273.600 307.151 C 273.600 307.347,273.227 307.604,272.770 307.724 C 272.314 307.843,271.843 308.314,271.724 308.770 C 271.604 309.227,271.348 309.600,271.153 309.600 C 270.692 309.600,266.000 314.292,266.000 314.753 C 266.000 314.948,265.627 315.204,265.170 315.324 C 264.714 315.443,264.243 315.914,264.124 316.370 C 264.004 316.827,263.742 317.200,263.540 317.200 C 263.073 317.200,260.400 319.858,260.400 320.322 C 260.400 320.514,259.950 320.877,259.400 321.127 C 258.850 321.378,258.400 321.857,258.400 322.191 C 258.400 322.526,258.136 322.800,257.814 322.800 C 257.112 322.800,256.258 324.247,256.618 324.828 C 256.900 325.285,367.600 214.561,367.600 213.823 C 367.600 213.568,367.384 213.144,367.120 212.880 C 366.418 212.178,240.986 212.211,239.735 212.914 " stroke="none" fill="#8bd6fc" fill-rule="evenodd"></path></g></svg>