<svg id="svg" version="1.1" xmlns="http://www.w3.org/2000/svg" xmlns:xlink="http://www.w3.org/1999/xlink" width="400" height="400" viewBox="0, 0, 400,400"><g id="svgg"><path id="path0" d="M0.000 200.000 L 0.000 400.000 200.000 400.000 L 400.000 400.000 400.000 200.000 L 400.000 0.000 200.000 0.000 L 0.000 0.000 0.000 200.000 M110.185 150.500 C 112.828 152.239,114.170 155.790,113.064 158.121 C 112.699 158.891,112.387 159.674,112.371 159.860 C 112.158 162.368,105.018 163.618,102.522 161.584 C 95.772 156.087,102.933 145.729,110.185 150.500 M180.355 152.401 C 182.937 152.634,184.755 152.994,185.155 153.352 C 185.510 153.669,186.657 154.056,187.705 154.211 C 188.752 154.365,190.012 154.808,190.505 155.194 C 190.997 155.580,191.997 156.026,192.727 156.186 C 193.457 156.345,194.151 156.728,194.270 157.038 C 194.388 157.347,194.705 157.600,194.974 157.600 C 196.406 157.600,205.200 165.097,205.200 166.317 C 205.200 166.583,205.425 166.805,205.700 166.811 C 206.229 166.822,208.800 170.673,208.800 171.455 C 208.800 171.708,209.053 172.012,209.362 172.130 C 209.672 172.249,210.055 172.943,210.214 173.673 C 210.374 174.403,210.841 175.429,211.252 175.954 C 211.663 176.479,212.000 177.201,212.000 177.560 C 212.000 177.918,212.343 178.852,212.762 179.634 C 213.181 180.416,213.654 182.124,213.813 183.428 C 213.972 184.733,214.357 186.302,214.669 186.915 C 216.100 189.729,216.096 213.009,214.664 215.281 C 214.345 215.786,213.959 217.280,213.806 218.600 C 213.653 219.920,213.207 221.540,212.816 222.200 C 212.424 222.860,211.998 224.097,211.869 224.950 C 211.740 225.802,211.357 226.806,211.017 227.181 C 210.678 227.556,210.400 228.129,210.400 228.454 C 210.400 228.779,209.950 229.655,209.400 230.400 C 208.850 231.145,208.400 231.984,208.400 232.264 C 208.400 232.543,208.061 232.953,207.646 233.175 C 207.231 233.397,206.778 234.034,206.638 234.589 C 206.499 235.145,206.213 235.600,206.003 235.600 C 205.792 235.600,205.356 236.095,205.033 236.700 C 204.332 238.011,202.185 240.287,200.601 241.400 C 199.974 241.840,199.087 242.515,198.631 242.899 C 197.385 243.949,194.247 245.984,193.863 245.993 C 193.678 245.997,193.069 246.360,192.509 246.800 C 191.950 247.240,191.162 247.600,190.758 247.600 C 190.355 247.600,189.311 247.972,188.440 248.426 C 187.568 248.880,185.810 249.360,184.533 249.492 C 183.256 249.624,181.993 249.950,181.726 250.217 C 180.568 251.375,166.451 251.381,164.600 250.225 C 164.160 249.950,162.760 249.605,161.490 249.458 C 160.219 249.311,158.512 248.833,157.696 248.395 C 156.880 247.958,155.984 247.600,155.706 247.600 C 155.079 247.600,151.052 245.514,150.865 245.092 C 150.789 244.922,150.159 244.494,149.464 244.140 C 148.240 243.516,147.735 243.126,145.878 241.370 C 145.395 240.914,144.685 240.424,144.300 240.283 C 143.915 240.141,143.600 239.846,143.600 239.627 C 143.600 239.409,142.914 238.548,142.076 237.715 C 141.237 236.882,140.252 235.750,139.887 235.200 C 139.521 234.650,138.590 233.300,137.817 232.200 C 137.045 231.100,136.409 229.907,136.406 229.549 C 136.403 229.191,136.131 228.675,135.802 228.402 C 135.473 228.128,134.987 227.161,134.721 226.253 C 134.456 225.344,134.077 224.488,133.879 224.351 C 133.681 224.215,133.278 223.135,132.984 221.951 C 132.689 220.768,132.176 219.080,131.842 218.200 C 131.508 217.320,131.221 215.700,131.203 214.600 C 131.186 213.500,130.898 211.520,130.563 210.200 C 129.573 206.290,129.336 195.802,130.180 193.259 C 130.560 192.118,131.005 189.702,131.171 187.892 C 131.337 186.081,131.756 184.053,132.103 183.385 C 132.449 182.716,132.911 181.192,133.128 179.998 C 133.345 178.803,133.720 177.760,133.961 177.680 C 134.203 177.599,134.400 177.213,134.400 176.822 C 134.400 176.432,134.850 175.449,135.400 174.638 C 135.950 173.828,136.400 172.916,136.400 172.613 C 136.400 172.310,136.850 171.527,137.400 170.873 C 137.950 170.219,138.400 169.574,138.400 169.439 C 138.400 168.302,143.851 162.312,146.684 160.336 C 147.738 159.601,148.744 158.775,148.920 158.500 C 149.096 158.225,149.473 158.000,149.759 158.000 C 150.044 158.000,150.698 157.635,151.213 157.189 C 151.727 156.743,152.609 156.264,153.174 156.123 C 153.738 155.983,154.650 155.556,155.200 155.174 C 155.750 154.792,157.005 154.363,157.990 154.221 C 158.974 154.078,160.081 153.689,160.449 153.356 C 161.649 152.269,172.904 151.730,180.355 152.401 M272.044 152.379 C 275.465 152.644,277.096 152.957,278.238 153.569 C 279.091 154.026,280.172 154.400,280.640 154.400 C 281.109 154.400,281.950 154.760,282.509 155.200 C 283.069 155.640,283.743 156.000,284.007 156.000 C 284.715 156.000,288.320 158.415,288.565 159.053 C 288.680 159.354,288.980 159.600,289.231 159.600 C 290.046 159.600,295.600 165.687,295.600 166.580 C 295.600 166.862,295.954 167.542,296.387 168.092 C 296.819 168.642,297.292 169.833,297.437 170.739 C 297.581 171.644,297.947 172.590,298.250 172.841 C 299.061 173.514,298.995 177.440,298.167 177.757 C 297.819 177.891,295.777 178.000,293.629 178.000 C 289.039 178.000,288.759 177.818,287.824 174.226 C 287.487 172.933,286.939 171.574,286.606 171.206 C 286.273 170.838,286.000 170.391,286.000 170.213 C 286.000 169.766,281.887 165.621,281.431 165.609 C 281.229 165.604,280.779 165.360,280.431 165.066 C 280.084 164.772,279.170 164.287,278.400 163.989 C 277.630 163.690,276.887 163.280,276.748 163.077 C 276.509 162.727,267.498 161.119,265.800 161.123 C 263.666 161.128,255.682 162.694,254.800 163.281 C 254.250 163.647,253.318 164.064,252.729 164.209 C 252.140 164.354,251.561 164.726,251.441 165.036 C 251.322 165.346,250.982 165.600,250.685 165.600 C 250.387 165.600,249.761 166.005,249.292 166.500 C 248.823 166.995,248.259 167.580,248.040 167.800 C 246.698 169.142,246.045 170.032,245.792 170.861 C 245.634 171.377,245.218 172.127,244.866 172.528 C 244.401 173.056,244.183 174.327,244.069 177.171 C 243.852 182.571,244.852 184.704,249.600 188.961 C 249.930 189.257,250.650 189.632,251.200 189.795 C 251.750 189.958,252.761 190.431,253.447 190.846 C 254.133 191.261,254.995 191.600,255.363 191.600 C 255.731 191.600,256.719 191.950,257.558 192.379 C 258.397 192.807,260.055 193.280,261.242 193.431 C 262.429 193.582,263.850 193.942,264.400 194.231 C 264.950 194.521,266.644 194.957,268.165 195.202 C 269.686 195.446,271.301 195.906,271.754 196.223 C 272.207 196.540,273.123 196.801,273.789 196.802 C 275.406 196.805,278.000 197.546,278.000 198.005 C 278.000 198.207,278.899 198.492,279.998 198.637 C 281.097 198.783,282.358 199.217,282.801 199.601 C 283.243 199.985,284.324 200.414,285.203 200.554 C 286.081 200.695,286.800 200.989,286.800 201.208 C 286.800 201.427,287.520 201.895,288.400 202.247 C 289.280 202.599,290.000 203.052,290.000 203.253 C 290.000 203.455,290.455 203.793,291.010 204.004 C 291.566 204.215,292.125 204.661,292.253 204.994 C 292.381 205.327,292.702 205.600,292.968 205.600 C 293.407 205.600,294.804 207.210,295.800 208.865 C 296.020 209.230,296.766 210.336,297.458 211.322 C 298.149 212.308,298.846 213.899,299.005 214.857 C 299.164 215.816,299.570 217.138,299.907 217.796 C 300.720 219.383,300.689 224.570,299.846 228.125 C 299.491 229.623,299.200 231.290,299.200 231.829 C 299.200 232.367,298.840 233.116,298.400 233.493 C 297.960 233.870,297.600 234.498,297.600 234.889 C 297.600 235.280,297.195 236.002,296.700 236.493 C 296.205 236.984,295.620 237.678,295.400 238.035 C 293.837 240.576,292.669 242.074,292.083 242.287 C 291.436 242.523,290.160 243.453,288.066 245.214 C 287.552 245.646,286.905 246.000,286.627 246.000 C 286.350 246.000,285.707 246.360,285.200 246.800 C 284.693 247.240,284.011 247.600,283.686 247.600 C 283.361 247.600,282.477 247.982,281.722 248.448 C 280.835 248.996,279.404 249.370,277.675 249.506 C 276.204 249.621,274.878 249.903,274.730 250.133 C 273.848 251.497,257.346 251.439,256.890 250.071 C 256.804 249.812,256.055 249.600,255.226 249.600 C 254.387 249.600,252.886 249.157,251.838 248.600 C 250.804 248.050,249.652 247.600,249.279 247.599 C 248.500 247.598,244.092 245.349,243.283 244.540 C 242.986 244.243,242.538 244.000,242.287 244.000 C 241.687 244.000,236.000 238.097,236.000 237.475 C 236.000 237.209,235.640 236.768,235.200 236.493 C 234.760 236.218,234.400 235.749,234.400 235.451 C 234.400 235.152,234.051 234.464,233.625 233.922 C 233.198 233.380,232.729 232.411,232.582 231.768 C 232.435 231.126,231.963 229.846,231.533 228.924 C 231.035 227.855,230.797 226.623,230.876 225.524 L 231.000 223.800 235.683 223.687 L 240.365 223.575 241.383 225.799 C 241.942 227.023,242.400 228.351,242.400 228.751 C 242.400 229.150,242.760 229.893,243.200 230.400 C 243.640 230.907,244.000 231.491,244.000 231.697 C 244.000 232.162,247.945 236.000,248.422 236.000 C 248.613 236.000,249.091 236.329,249.484 236.731 C 249.878 237.132,250.830 237.702,251.600 237.996 C 252.370 238.291,253.284 238.772,253.631 239.066 C 253.979 239.360,254.521 239.600,254.837 239.600 C 255.153 239.600,256.396 239.960,257.600 240.400 C 260.821 241.577,270.893 241.577,273.200 240.400 C 274.062 239.960,275.487 239.600,276.366 239.600 C 277.411 239.600,278.474 239.254,279.438 238.600 C 280.249 238.050,281.247 237.600,281.656 237.600 C 282.065 237.600,282.400 237.330,282.400 237.000 C 282.400 236.670,282.572 236.400,282.782 236.400 C 283.465 236.400,287.600 232.157,287.600 231.456 C 287.600 231.081,287.861 230.675,288.181 230.552 C 290.183 229.784,290.488 219.084,288.571 216.839 C 286.471 214.379,283.965 212.000,283.474 212.000 C 283.171 212.000,282.598 211.640,282.200 211.200 C 281.802 210.760,281.054 210.400,280.538 210.400 C 280.022 210.400,279.250 210.050,278.822 209.622 C 278.395 209.195,277.360 208.720,276.522 208.567 C 275.685 208.414,274.550 207.980,274.000 207.602 C 273.450 207.224,271.954 206.797,270.676 206.651 C 269.398 206.506,267.958 206.133,267.476 205.822 C 266.994 205.511,265.303 205.080,263.718 204.864 C 262.133 204.647,260.428 204.185,259.929 203.835 C 259.430 203.486,258.477 203.199,257.811 203.198 C 256.243 203.195,253.600 202.459,253.600 202.026 C 253.600 201.841,252.935 201.564,252.122 201.412 C 250.739 201.152,249.502 200.626,246.600 199.061 C 245.940 198.705,244.815 198.139,244.100 197.802 C 243.385 197.465,242.800 197.012,242.800 196.795 C 242.800 196.578,242.581 196.400,242.313 196.400 C 241.670 196.400,237.600 192.369,237.600 191.734 C 237.600 191.462,237.361 191.096,237.069 190.920 C 235.316 189.864,232.855 180.554,233.332 176.784 C 233.776 173.274,234.620 169.783,235.263 168.800 C 235.622 168.250,236.043 167.377,236.198 166.861 C 236.352 166.344,236.776 165.598,237.139 165.204 C 237.503 164.809,238.330 163.747,238.977 162.843 C 239.624 161.939,240.389 161.200,240.677 161.200 C 240.965 161.200,241.200 160.926,241.200 160.590 C 241.200 160.255,241.650 159.809,242.200 159.600 C 242.750 159.391,243.200 159.031,243.200 158.801 C 243.200 158.571,243.695 158.165,244.300 157.900 C 244.905 157.634,245.536 157.202,245.702 156.940 C 245.869 156.677,246.529 156.347,247.169 156.207 C 247.810 156.066,248.710 155.625,249.170 155.226 C 249.629 154.828,250.765 154.380,251.692 154.232 C 252.620 154.083,253.677 153.692,254.042 153.362 C 255.225 152.291,264.427 151.789,272.044 152.379 M168.200 162.001 C 165.340 162.357,162.280 162.961,161.400 163.344 C 157.762 164.927,154.836 166.529,154.637 167.047 C 154.521 167.351,154.239 167.600,154.013 167.600 C 153.479 167.600,149.069 172.007,148.136 173.473 C 147.742 174.093,147.190 174.744,146.910 174.920 C 146.629 175.096,146.400 175.546,146.400 175.920 C 146.399 176.294,145.949 177.123,145.400 177.762 C 144.850 178.401,144.400 179.354,144.400 179.878 C 144.400 180.403,144.058 181.320,143.640 181.916 C 143.222 182.512,142.767 183.784,142.628 184.742 C 142.490 185.700,142.135 186.960,141.840 187.542 C 140.267 190.638,140.246 212.512,141.813 214.993 C 142.094 215.437,142.449 216.610,142.604 217.600 C 142.758 218.590,143.206 219.940,143.599 220.600 C 143.992 221.260,144.437 222.385,144.589 223.100 C 144.740 223.815,145.007 224.400,145.183 224.400 C 145.359 224.400,145.740 224.985,146.029 225.700 C 147.186 228.558,151.095 233.103,154.200 235.200 C 155.014 235.750,155.997 236.489,156.383 236.842 C 156.768 237.195,157.578 237.608,158.182 237.760 C 158.786 237.911,159.757 238.369,160.340 238.777 C 160.923 239.186,162.335 239.618,163.478 239.738 C 164.622 239.859,166.098 240.237,166.759 240.579 C 168.652 241.558,177.164 241.445,180.200 240.400 C 181.479 239.960,182.881 239.600,183.315 239.600 C 183.750 239.600,184.667 239.261,185.353 238.846 C 186.039 238.431,187.024 237.963,187.541 237.806 C 190.215 236.994,198.800 229.059,198.800 227.399 C 198.800 227.138,199.142 226.614,199.560 226.236 C 199.979 225.857,200.432 224.954,200.568 224.229 C 200.704 223.503,201.172 222.587,201.608 222.193 C 202.044 221.799,202.400 221.004,202.400 220.427 C 202.400 219.850,202.678 218.981,203.017 218.497 C 203.357 218.012,203.887 216.178,204.196 214.420 C 204.505 212.663,204.948 210.872,205.179 210.439 C 205.843 209.199,205.723 195.370,205.028 192.973 C 204.714 191.888,204.332 189.920,204.180 188.600 C 204.028 187.280,203.588 185.480,203.202 184.600 C 202.817 183.720,202.383 182.343,202.240 181.540 C 202.096 180.737,201.725 179.870,201.415 179.613 C 201.105 179.355,200.734 178.609,200.590 177.955 C 200.446 177.301,199.895 176.331,199.364 175.801 C 198.834 175.270,198.400 174.601,198.400 174.314 C 198.400 174.027,198.040 173.568,197.600 173.293 C 197.160 173.018,196.800 172.531,196.800 172.211 C 196.800 171.890,196.440 171.435,196.000 171.200 C 195.560 170.965,195.200 170.508,195.200 170.186 C 195.200 169.864,195.020 169.600,194.800 169.600 C 194.580 169.600,193.998 169.195,193.507 168.700 C 193.016 168.205,192.312 167.620,191.943 167.400 C 191.573 167.180,190.438 166.417,189.421 165.704 C 188.404 164.991,187.083 164.293,186.486 164.153 C 185.889 164.012,184.860 163.584,184.200 163.202 C 183.479 162.784,181.245 162.312,178.600 162.018 C 176.180 161.749,174.020 161.489,173.800 161.442 C 173.580 161.394,171.060 161.646,168.200 162.001 M111.088 178.800 C 111.492 179.592,111.577 186.872,111.499 213.735 L 111.400 247.671 110.456 248.435 C 108.678 249.875,102.473 249.368,101.816 247.731 C 101.296 246.435,101.530 178.766,102.057 178.132 C 102.975 177.025,110.466 177.579,111.088 178.800 " stroke="none" fill="#f3f3f7" fill-rule="evenodd"></path><path id="path1" d="M260.507 153.202 C 258.697 153.360,256.987 153.678,256.707 153.908 C 256.428 154.138,255.135 154.522,253.833 154.762 C 252.531 155.002,251.181 155.454,250.833 155.768 C 250.485 156.081,249.660 156.465,249.000 156.621 C 248.340 156.777,247.440 157.221,247.000 157.607 C 246.560 157.992,245.801 158.429,245.313 158.577 C 244.214 158.910,239.123 163.872,238.269 165.444 C 237.923 166.080,237.338 167.230,236.969 168.000 C 236.600 168.770,236.014 169.940,235.666 170.600 C 234.287 173.215,234.553 185.106,235.999 185.484 C 236.533 185.623,236.808 186.206,237.000 187.600 C 237.196 189.027,237.463 189.575,238.032 189.724 C 238.471 189.839,238.800 190.273,238.800 190.736 C 238.800 191.195,239.147 191.656,239.600 191.800 C 240.040 191.940,240.400 192.317,240.400 192.640 C 240.400 192.962,240.715 193.343,241.100 193.486 C 241.485 193.630,242.035 194.074,242.323 194.474 C 242.610 194.873,243.099 195.200,243.409 195.200 C 243.718 195.200,244.152 195.536,244.372 195.947 C 244.592 196.358,245.344 196.809,246.043 196.949 C 246.742 197.088,247.520 197.484,247.771 197.828 C 248.022 198.172,248.994 198.556,249.929 198.681 C 251.013 198.827,251.775 199.180,252.029 199.655 C 252.555 200.638,254.079 200.607,254.707 199.600 C 255.021 199.097,255.640 198.800,256.375 198.800 C 257.017 198.800,257.781 198.565,258.071 198.277 C 258.362 197.989,259.487 197.507,260.572 197.205 C 262.341 196.712,262.454 196.616,261.672 196.267 C 261.192 196.053,260.800 195.639,260.800 195.346 C 260.800 194.806,260.227 194.618,257.423 194.239 C 256.556 194.121,255.698 193.760,255.516 193.436 C 255.335 193.112,254.335 192.720,253.293 192.565 C 252.152 192.395,251.193 191.988,250.877 191.541 C 250.590 191.134,249.988 190.800,249.540 190.800 C 249.062 190.800,248.639 190.470,248.516 190.000 C 248.396 189.540,247.970 189.200,247.516 189.200 C 247.062 189.200,246.636 188.860,246.516 188.400 C 246.401 187.960,246.070 187.600,245.780 187.600 C 245.491 187.600,245.133 187.195,244.984 186.700 C 244.836 186.205,244.385 185.530,243.981 185.200 C 242.362 183.875,242.722 172.864,244.446 170.974 C 244.861 170.520,245.200 169.943,245.200 169.693 C 245.200 169.074,249.258 164.800,249.846 164.800 C 250.103 164.800,250.409 164.553,250.525 164.251 C 250.641 163.950,251.234 163.578,251.843 163.425 C 252.453 163.272,253.440 162.799,254.037 162.373 C 254.635 161.948,255.506 161.600,255.975 161.600 C 256.443 161.600,257.495 161.312,258.313 160.959 C 262.710 159.065,272.741 160.020,278.712 162.903 C 280.094 163.570,281.311 164.256,281.417 164.427 C 281.523 164.598,282.102 164.851,282.705 164.988 C 283.843 165.246,286.400 167.307,286.400 167.965 C 286.400 168.172,286.822 168.674,287.338 169.080 C 287.857 169.488,288.399 170.468,288.549 171.271 C 288.699 172.069,289.077 172.821,289.389 172.940 C 289.701 173.060,290.067 173.752,290.204 174.479 L 290.452 175.800 293.421 175.800 C 296.733 175.800,296.713 175.819,296.487 172.915 C 296.361 171.301,296.153 170.775,295.562 170.588 C 295.047 170.424,294.800 169.976,294.800 169.202 C 294.800 168.090,293.925 166.800,293.171 166.800 C 292.967 166.800,292.800 166.281,292.800 165.647 C 292.800 164.816,292.568 164.433,291.970 164.276 C 291.514 164.157,291.046 163.698,290.931 163.257 C 290.816 162.816,290.469 162.359,290.161 162.240 C 289.852 162.122,289.600 161.784,289.600 161.489 C 289.600 160.736,284.622 157.176,282.741 156.584 C 282.224 156.421,281.173 155.953,280.406 155.544 C 279.639 155.135,278.559 154.799,278.006 154.798 C 277.453 154.796,276.460 154.508,275.800 154.157 C 273.788 153.087,266.816 152.652,260.507 153.202 M191.772 157.155 C 192.134 157.740,191.070 158.348,189.180 158.637 C 188.201 158.787,187.169 159.092,186.887 159.315 C 186.605 159.537,185.165 160.135,183.687 160.643 C 181.480 161.401,181.228 161.569,182.277 161.583 C 188.843 161.670,198.775 170.974,203.432 181.400 C 206.594 188.478,208.455 212.709,205.998 214.800 C 205.536 215.194,205.202 216.260,205.027 217.900 L 204.760 220.400 205.822 220.400 C 206.407 220.400,207.419 219.950,208.073 219.400 C 208.727 218.850,209.760 218.400,210.369 218.400 C 212.275 218.400,212.906 217.237,212.866 213.797 C 212.837 211.315,212.969 210.631,213.598 210.002 C 214.228 209.372,214.410 208.425,214.612 204.717 C 214.952 198.505,213.544 183.979,212.478 182.694 C 212.216 182.379,211.824 181.179,211.606 180.029 C 211.387 178.879,210.847 177.477,210.404 176.915 C 209.962 176.352,209.600 175.672,209.600 175.402 C 209.600 174.742,207.635 170.915,206.411 169.192 C 204.764 166.875,204.688 166.787,202.000 164.130 C 198.577 160.746,198.189 160.400,197.824 160.400 C 197.654 160.400,196.981 159.950,196.327 159.400 C 195.673 158.850,194.927 158.396,194.669 158.391 C 194.411 158.386,193.750 158.030,193.200 157.600 C 192.155 156.783,191.396 156.546,191.772 157.155 M143.837 177.400 C 143.476 177.950,142.847 178.400,142.437 178.400 C 142.028 178.400,140.254 179.120,138.496 180.000 C 135.163 181.668,134.028 181.943,133.959 181.100 C 133.936 180.825,133.676 181.590,133.381 182.800 C 133.086 184.010,132.579 185.930,132.254 187.067 C 130.898 191.807,131.113 212.303,132.555 215.753 C 132.898 216.575,133.291 218.181,133.428 219.323 C 133.565 220.465,133.992 221.850,134.376 222.400 C 134.760 222.950,135.203 224.084,135.359 224.921 C 135.523 225.794,135.933 226.548,136.322 226.692 C 137.207 227.018,137.586 227.602,137.594 228.653 C 137.598 229.167,137.918 229.590,138.400 229.716 C 138.978 229.867,139.200 230.262,139.200 231.136 C 139.200 231.995,139.432 232.420,140.000 232.600 C 140.440 232.740,140.800 233.109,140.800 233.422 C 140.800 233.734,141.700 234.894,142.800 236.000 C 143.900 237.106,144.800 238.256,144.800 238.555 C 144.800 238.855,145.326 239.205,145.968 239.334 C 146.661 239.472,147.241 239.899,147.394 240.383 C 147.537 240.831,148.091 241.308,148.627 241.442 C 149.162 241.577,149.600 241.918,149.600 242.201 C 149.600 243.288,152.145 243.555,153.222 242.581 C 153.598 242.240,154.782 241.745,155.853 241.481 C 158.505 240.826,159.061 238.800,156.589 238.800 C 155.459 238.800,155.077 238.617,154.915 237.996 C 154.799 237.553,154.282 237.085,153.767 236.956 C 153.251 236.826,152.720 236.378,152.587 235.960 C 152.455 235.542,152.071 235.200,151.736 235.200 C 151.400 235.200,151.035 234.857,150.926 234.437 C 150.816 234.017,150.369 233.581,149.933 233.467 C 149.497 233.353,149.043 232.886,148.924 232.430 C 148.804 231.973,148.453 231.600,148.143 231.600 C 147.834 231.600,147.418 231.175,147.221 230.655 C 147.023 230.135,146.587 229.604,146.253 229.476 C 145.918 229.347,145.527 228.619,145.384 227.858 C 145.218 226.971,144.851 226.402,144.362 226.274 C 143.758 226.116,143.600 225.710,143.600 224.317 C 143.600 223.351,143.401 222.361,143.157 222.117 C 142.342 221.302,140.735 216.231,140.395 213.400 C 140.210 211.860,139.794 209.191,139.470 207.469 C 138.830 204.069,139.157 194.419,139.985 192.240 C 140.213 191.639,140.404 190.305,140.409 189.274 C 140.414 188.243,140.754 186.659,141.165 185.754 C 141.576 184.848,142.033 183.561,142.180 182.893 C 142.326 182.225,142.796 180.992,143.223 180.154 C 143.650 179.316,144.000 178.412,144.000 178.144 C 144.000 177.876,144.283 177.374,144.629 177.029 C 144.974 176.683,145.085 176.400,144.875 176.400 C 144.664 176.400,144.197 176.850,143.837 177.400 M109.895 191.869 C 109.728 192.127,109.023 192.463,108.329 192.616 C 107.635 192.768,106.512 193.231,105.833 193.645 C 104.330 194.561,104.223 194.566,103.406 193.749 C 102.732 193.074,102.755 225.142,103.441 240.833 L 103.696 246.667 106.648 246.667 L 109.600 246.667 109.600 243.110 C 109.600 241.155,109.786 238.800,110.013 237.877 C 110.494 235.922,110.379 191.124,109.895 191.869 " stroke="none" fill="#d92f62" fill-rule="evenodd"></path><path id="path2" d="M262.400 196.570 C 260.970 197.088,259.260 197.800,258.600 198.153 C 257.940 198.506,256.927 198.796,256.349 198.798 C 254.728 198.801,254.110 199.802,255.045 200.908 C 256.171 202.238,256.346 202.315,258.933 202.615 C 260.245 202.768,262.057 203.228,262.959 203.637 C 263.862 204.047,265.178 204.386,265.885 204.391 C 266.592 204.396,268.032 204.738,269.085 205.151 C 270.138 205.564,271.810 206.032,272.800 206.190 C 273.790 206.348,274.960 206.702,275.400 206.978 C 275.840 207.253,276.920 207.709,277.800 207.990 C 278.680 208.271,279.670 208.727,280.000 209.003 C 280.330 209.279,281.050 209.641,281.600 209.807 C 285.746 211.055,290.817 218.430,290.789 223.171 C 290.777 225.306,289.525 230.350,288.912 230.735 C 288.680 230.881,288.227 231.630,287.906 232.400 C 287.371 233.684,285.936 235.157,282.945 237.495 C 282.315 237.987,281.634 238.392,281.431 238.395 C 281.229 238.398,280.779 238.640,280.431 238.932 C 277.258 241.608,259.540 242.884,256.372 240.665 C 255.849 240.299,255.181 240.000,254.886 240.000 C 254.171 240.000,249.957 238.021,249.200 237.330 C 248.870 237.028,247.914 236.257,247.076 235.615 C 246.237 234.974,245.024 233.763,244.380 232.924 C 243.736 232.086,242.982 231.140,242.705 230.822 C 241.872 229.867,240.408 226.659,240.404 225.780 C 240.397 224.398,239.585 224.000,236.770 224.000 C 231.339 224.000,230.784 224.514,232.391 228.056 C 232.826 229.015,233.186 230.125,233.191 230.522 C 233.217 232.629,236.496 237.954,239.715 241.115 C 247.883 249.137,269.030 252.878,279.800 248.206 C 280.460 247.920,281.630 247.457,282.400 247.177 C 283.170 246.897,284.084 246.428,284.431 246.134 C 284.779 245.840,285.350 245.600,285.701 245.600 C 286.052 245.600,286.873 245.150,287.527 244.600 C 288.181 244.050,288.870 243.599,289.058 243.598 C 289.485 243.594,293.153 240.100,294.113 238.780 C 294.506 238.241,295.212 237.282,295.682 236.649 C 297.121 234.714,298.774 231.067,298.787 229.800 C 298.794 229.140,299.094 227.116,299.454 225.301 C 300.053 222.283,300.055 221.773,299.480 219.301 C 299.135 217.816,298.727 215.973,298.573 215.206 C 298.420 214.439,298.017 213.359,297.678 212.806 C 295.593 209.408,294.339 207.709,293.421 207.036 C 292.848 206.616,291.957 205.896,291.442 205.436 C 290.048 204.193,283.866 200.805,282.985 200.802 C 282.756 200.801,281.863 200.440,281.000 200.000 C 280.137 199.560,279.064 199.196,278.615 199.191 C 278.167 199.186,277.015 198.826,276.056 198.391 C 275.097 197.956,273.837 197.596,273.256 197.592 C 272.675 197.587,270.940 197.138,269.400 196.593 C 265.992 195.389,265.670 195.388,262.400 196.570 M210.504 218.413 C 209.572 218.545,208.390 219.046,207.878 219.526 C 207.367 220.007,206.479 220.400,205.905 220.400 C 204.722 220.400,201.432 223.821,201.014 225.486 C 199.847 230.135,188.037 240.400,183.854 240.400 C 183.479 240.400,182.691 240.715,182.104 241.100 C 180.444 242.188,166.028 242.142,164.009 241.043 C 162.294 240.109,159.061 240.065,157.400 240.953 C 156.740 241.306,155.795 241.596,155.300 241.598 C 154.805 241.599,154.400 241.778,154.400 241.995 C 154.400 242.212,153.770 242.652,153.000 242.974 C 151.178 243.735,151.217 244.615,153.100 245.220 C 153.925 245.484,154.870 245.932,155.200 246.213 C 155.530 246.495,156.610 246.940,157.600 247.202 C 158.590 247.464,159.618 247.857,159.885 248.076 C 160.152 248.294,162.132 248.719,164.285 249.019 C 166.438 249.319,169.370 249.746,170.800 249.968 C 173.503 250.388,174.656 250.308,179.483 249.364 C 181.069 249.054,182.962 248.800,183.689 248.800 C 184.417 248.800,185.684 248.440,186.504 248.000 C 187.325 247.560,188.295 247.200,188.660 247.200 C 189.357 247.200,193.191 245.380,195.649 243.883 C 196.905 243.117,199.279 241.233,201.550 239.200 C 202.566 238.291,205.700 234.404,206.873 232.600 C 208.865 229.535,211.600 223.793,211.600 222.675 C 211.600 222.319,211.892 221.415,212.249 220.666 C 213.162 218.753,212.663 218.108,210.504 218.413 " stroke="none" fill="#237bbf" fill-rule="evenodd"></path><path id="path3" d="M103.792 150.943 C 101.092 152.200,99.993 155.064,101.037 158.126 C 103.160 164.356,111.931 163.285,112.300 156.751 C 112.598 151.464,108.573 148.716,103.792 150.943 M164.200 153.445 C 163.100 153.769,161.210 154.267,160.000 154.551 C 158.790 154.835,157.260 155.345,156.600 155.685 C 155.940 156.025,154.834 156.426,154.141 156.574 C 153.449 156.723,152.566 157.195,152.179 157.623 C 151.793 158.050,151.273 158.400,151.025 158.400 C 149.953 158.400,144.095 163.503,141.442 166.748 C 138.968 169.773,138.570 170.403,136.561 174.484 C 132.679 182.372,132.840 182.831,138.496 180.000 C 140.254 179.120,141.969 178.400,142.306 178.400 C 143.109 178.400,145.049 176.353,146.878 173.576 C 148.581 170.988,153.326 166.381,155.498 165.205 C 156.324 164.758,157.270 164.240,157.600 164.055 C 163.035 161.004,173.285 159.605,180.222 160.966 C 181.876 161.291,184.819 160.583,186.600 159.434 C 187.040 159.150,188.240 158.792,189.267 158.639 C 191.760 158.268,192.522 157.388,190.948 156.700 C 190.317 156.423,189.350 155.902,188.800 155.542 C 188.250 155.182,186.900 154.760,185.800 154.606 C 184.700 154.451,183.620 154.183,183.400 154.009 C 181.786 152.735,167.978 152.329,164.200 153.445 M103.214 179.174 C 102.493 180.520,102.677 193.020,103.429 193.771 C 104.219 194.562,104.338 194.557,105.800 193.666 C 106.460 193.264,107.539 192.800,108.198 192.636 C 110.357 192.095,110.400 191.957,110.400 185.584 C 110.400 182.329,110.291 179.381,110.157 179.033 C 109.762 178.002,103.776 178.123,103.214 179.174 " stroke="none" fill="#fcb525" fill-rule="evenodd"></path><path id="path4" d="M103.280 150.268 C 98.953 152.877,98.584 158.377,102.522 161.584 C 105.018 163.618,112.158 162.368,112.371 159.860 C 112.387 159.674,112.699 158.891,113.064 158.121 C 115.520 152.946,108.365 147.203,103.280 150.268 M109.232 150.816 C 112.851 152.663,113.631 157.950,110.684 160.651 C 108.703 162.466,104.818 162.637,102.866 160.995 C 97.404 156.398,102.911 147.591,109.232 150.816 M165.260 152.432 C 162.494 152.644,160.897 152.951,160.449 153.356 C 160.081 153.689,158.974 154.078,157.990 154.221 C 157.005 154.363,155.750 154.792,155.200 155.174 C 154.650 155.556,153.738 155.983,153.174 156.123 C 152.609 156.264,151.727 156.743,151.213 157.189 C 150.698 157.635,150.044 158.000,149.759 158.000 C 149.473 158.000,149.096 158.225,148.920 158.500 C 148.744 158.775,147.738 159.601,146.684 160.336 C 143.851 162.312,138.400 168.302,138.400 169.439 C 138.400 169.574,137.950 170.219,137.400 170.873 C 136.850 171.527,136.400 172.310,136.400 172.613 C 136.400 172.916,135.950 173.828,135.400 174.638 C 134.850 175.449,134.400 176.432,134.400 176.822 C 134.400 177.213,134.203 177.599,133.961 177.680 C 133.720 177.760,133.345 178.803,133.128 179.998 C 132.911 181.192,132.449 182.716,132.103 183.385 C 131.756 184.053,131.337 186.081,131.171 187.892 C 131.005 189.702,130.560 192.118,130.180 193.259 C 129.336 195.802,129.573 206.290,130.563 210.200 C 130.898 211.520,131.186 213.500,131.203 214.600 C 131.221 215.700,131.508 217.320,131.842 218.200 C 132.176 219.080,132.689 220.768,132.984 221.951 C 133.278 223.135,133.681 224.215,133.879 224.351 C 134.077 224.488,134.456 225.344,134.721 226.253 C 134.987 227.161,135.473 228.128,135.802 228.402 C 136.131 228.675,136.403 229.191,136.406 229.549 C 136.409 229.907,137.045 231.100,137.817 232.200 C 138.590 233.300,139.521 234.650,139.887 235.200 C 140.252 235.750,141.237 236.882,142.076 237.715 C 142.914 238.548,143.600 239.409,143.600 239.627 C 143.600 239.846,143.915 240.141,144.300 240.283 C 144.685 240.424,145.395 240.914,145.878 241.370 C 147.735 243.126,148.240 243.516,149.464 244.140 C 150.159 244.494,150.789 244.922,150.865 245.092 C 151.052 245.514,155.079 247.600,155.706 247.600 C 155.984 247.600,156.880 247.958,157.696 248.395 C 158.512 248.833,160.219 249.311,161.490 249.458 C 162.760 249.605,164.160 249.950,164.600 250.225 C 166.451 251.381,180.568 251.375,181.726 250.217 C 181.993 249.950,183.256 249.624,184.533 249.492 C 185.810 249.360,187.568 248.880,188.440 248.426 C 189.311 247.972,190.355 247.600,190.758 247.600 C 191.162 247.600,191.950 247.240,192.509 246.800 C 193.069 246.360,193.678 245.997,193.863 245.993 C 194.247 245.984,197.385 243.949,198.631 242.899 C 199.087 242.515,199.974 241.840,200.601 241.400 C 202.185 240.287,204.332 238.011,205.033 236.700 C 205.356 236.095,205.792 235.600,206.003 235.600 C 206.213 235.600,206.499 235.145,206.638 234.589 C 206.778 234.034,207.231 233.397,207.646 233.175 C 208.061 232.953,208.400 232.543,208.400 232.264 C 208.400 231.984,208.850 231.145,209.400 230.400 C 209.950 229.655,210.400 228.779,210.400 228.454 C 210.400 228.129,210.678 227.556,211.017 227.181 C 211.357 226.806,211.740 225.802,211.869 224.950 C 211.998 224.097,212.424 222.860,212.816 222.200 C 213.207 221.540,213.653 219.920,213.806 218.600 C 213.959 217.280,214.345 215.786,214.664 215.281 C 216.096 213.009,216.100 189.729,214.669 186.915 C 214.357 186.302,213.972 184.733,213.813 183.428 C 213.654 182.124,213.181 180.416,212.762 179.634 C 212.343 178.852,212.000 177.918,212.000 177.560 C 212.000 177.201,211.663 176.479,211.252 175.954 C 210.841 175.429,210.374 174.403,210.214 173.673 C 210.055 172.943,209.672 172.249,209.362 172.130 C 209.053 172.012,208.800 171.708,208.800 171.455 C 208.800 170.673,206.229 166.822,205.700 166.811 C 205.425 166.805,205.200 166.583,205.200 166.317 C 205.200 165.097,196.406 157.600,194.974 157.600 C 194.705 157.600,194.388 157.347,194.270 157.038 C 194.151 156.728,193.457 156.345,192.727 156.186 C 191.997 156.026,190.997 155.580,190.505 155.194 C 190.012 154.808,188.752 154.365,187.705 154.211 C 186.657 154.056,185.510 153.669,185.155 153.352 C 183.888 152.220,173.991 151.762,165.260 152.432 M258.652 152.437 C 256.097 152.648,254.471 152.974,254.042 153.362 C 253.677 153.692,252.620 154.083,251.692 154.232 C 250.765 154.380,249.629 154.828,249.170 155.226 C 248.710 155.625,247.810 156.066,247.169 156.207 C 246.529 156.347,245.869 156.677,245.702 156.940 C 245.536 157.202,244.905 157.634,244.300 157.900 C 243.695 158.165,243.200 158.571,243.200 158.801 C 243.200 159.031,242.750 159.391,242.200 159.600 C 241.650 159.809,241.200 160.255,241.200 160.590 C 241.200 160.926,240.965 161.200,240.677 161.200 C 240.389 161.200,239.624 161.939,238.977 162.843 C 238.330 163.747,237.503 164.809,237.139 165.204 C 236.776 165.598,236.352 166.344,236.198 166.861 C 236.043 167.377,235.622 168.250,235.263 168.800 C 234.620 169.783,233.776 173.274,233.332 176.784 C 232.855 180.554,235.316 189.864,237.069 190.920 C 237.361 191.096,237.600 191.462,237.600 191.734 C 237.600 192.369,241.670 196.400,242.313 196.400 C 242.581 196.400,242.800 196.578,242.800 196.795 C 242.800 197.012,243.385 197.465,244.100 197.802 C 244.815 198.139,245.940 198.705,246.600 199.061 C 249.502 200.626,250.739 201.152,252.122 201.412 C 252.935 201.564,253.600 201.841,253.600 202.026 C 253.600 202.459,256.243 203.195,257.811 203.198 C 258.477 203.199,259.430 203.486,259.929 203.835 C 260.428 204.185,262.133 204.647,263.718 204.864 C 265.303 205.080,266.994 205.511,267.476 205.822 C 267.958 206.133,269.398 206.506,270.676 206.651 C 271.954 206.797,273.450 207.224,274.000 207.602 C 274.550 207.980,275.685 208.414,276.522 208.567 C 277.360 208.720,278.395 209.195,278.822 209.622 C 279.250 210.050,280.022 210.400,280.538 210.400 C 281.054 210.400,281.802 210.760,282.200 211.200 C 282.598 211.640,283.171 212.000,283.474 212.000 C 284.021 212.000,287.082 214.941,288.591 216.916 C 289.026 217.486,289.447 217.886,289.527 217.807 C 290.224 217.109,283.580 210.403,281.600 209.807 C 281.050 209.641,280.330 209.279,280.000 209.003 C 279.670 208.727,278.680 208.271,277.800 207.990 C 276.920 207.709,275.840 207.253,275.400 206.978 C 274.960 206.702,273.790 206.348,272.800 206.190 C 271.810 206.032,270.138 205.564,269.085 205.151 C 268.032 204.738,266.592 204.396,265.885 204.391 C 265.178 204.386,263.862 204.047,262.959 203.637 C 262.057 203.228,260.194 202.762,258.819 202.602 C 256.905 202.380,256.123 202.088,255.487 201.356 C 254.983 200.776,254.218 200.400,253.542 200.400 C 252.865 200.400,252.272 200.108,252.029 199.655 C 251.775 199.180,251.013 198.827,249.929 198.681 C 248.994 198.556,248.022 198.172,247.771 197.828 C 247.520 197.484,246.742 197.088,246.043 196.949 C 245.344 196.809,244.592 196.358,244.372 195.947 C 244.152 195.536,243.718 195.200,243.409 195.200 C 243.099 195.200,242.610 194.873,242.323 194.474 C 242.035 194.074,241.485 193.630,241.100 193.486 C 240.715 193.343,240.400 192.962,240.400 192.640 C 240.400 192.317,240.040 191.940,239.600 191.800 C 239.147 191.656,238.800 191.195,238.800 190.736 C 238.800 190.273,238.471 189.839,238.032 189.724 C 237.463 189.575,237.196 189.027,237.000 187.600 C 236.808 186.206,236.533 185.623,235.999 185.484 C 234.553 185.106,234.287 173.215,235.666 170.600 C 236.014 169.940,236.600 168.770,236.969 168.000 C 237.338 167.230,237.923 166.080,238.269 165.444 C 239.123 163.872,244.214 158.910,245.313 158.577 C 245.801 158.429,246.560 157.992,247.000 157.607 C 247.440 157.221,248.340 156.777,249.000 156.621 C 249.660 156.465,250.485 156.081,250.833 155.768 C 251.181 155.454,252.531 155.002,253.833 154.762 C 255.135 154.522,256.417 154.147,256.682 153.929 C 258.272 152.619,273.240 152.798,275.800 154.158 C 276.460 154.508,277.453 154.796,278.006 154.798 C 278.559 154.799,279.639 155.135,280.406 155.544 C 281.173 155.953,282.224 156.421,282.741 156.584 C 284.622 157.176,289.600 160.736,289.600 161.489 C 289.600 161.784,289.852 162.122,290.161 162.240 C 290.469 162.359,290.816 162.816,290.931 163.257 C 291.046 163.698,291.514 164.157,291.970 164.276 C 292.568 164.433,292.800 164.816,292.800 165.647 C 292.800 166.281,292.967 166.800,293.171 166.800 C 293.925 166.800,294.800 168.090,294.800 169.202 C 294.800 169.976,295.047 170.424,295.562 170.588 C 296.153 170.775,296.361 171.301,296.487 172.915 C 296.713 175.819,296.733 175.800,293.421 175.800 L 290.452 175.800 290.204 174.479 C 290.067 173.752,289.701 173.060,289.389 172.940 C 289.077 172.821,288.699 172.069,288.549 171.271 C 288.399 170.468,287.857 169.488,287.338 169.080 C 286.822 168.674,286.400 168.172,286.400 167.965 C 286.400 167.307,283.843 165.246,282.705 164.988 C 282.102 164.851,281.523 164.598,281.417 164.427 C 281.093 163.904,276.310 161.719,274.400 161.222 C 270.151 160.118,268.360 159.923,264.200 160.115 C 261.471 160.241,259.235 160.562,258.313 160.959 C 257.495 161.312,256.443 161.600,255.975 161.600 C 255.506 161.600,254.635 161.948,254.037 162.373 C 253.440 162.799,252.453 163.272,251.843 163.425 C 251.234 163.578,250.641 163.950,250.525 164.251 C 250.409 164.553,250.103 164.800,249.846 164.800 C 249.258 164.800,245.200 169.074,245.200 169.693 C 245.200 169.943,244.861 170.520,244.446 170.974 C 242.722 172.864,242.362 183.875,243.981 185.200 C 244.385 185.530,244.836 186.205,244.984 186.700 C 245.133 187.195,245.491 187.600,245.780 187.600 C 246.070 187.600,246.401 187.960,246.516 188.400 C 246.636 188.860,247.062 189.200,247.516 189.200 C 247.970 189.200,248.396 189.540,248.516 190.000 C 248.639 190.470,249.062 190.800,249.540 190.800 C 249.988 190.800,250.590 191.134,250.877 191.541 C 251.193 191.988,252.152 192.395,253.293 192.565 C 254.335 192.720,255.335 193.112,255.516 193.436 C 255.698 193.760,256.556 194.121,257.423 194.239 C 260.240 194.619,260.800 194.806,260.800 195.365 C 260.800 196.250,261.988 196.460,264.198 195.965 C 266.071 195.546,266.541 195.600,269.298 196.552 C 270.968 197.128,272.779 197.600,273.324 197.600 C 273.868 197.600,275.097 197.956,276.056 198.391 C 277.015 198.826,278.167 199.186,278.615 199.191 C 279.064 199.196,280.137 199.560,281.000 200.000 C 281.863 200.440,282.756 200.801,282.985 200.802 C 283.866 200.805,290.048 204.193,291.442 205.436 C 291.957 205.896,292.848 206.616,293.421 207.036 C 294.339 207.709,295.593 209.408,297.678 212.806 C 298.017 213.359,298.420 214.439,298.573 215.206 C 298.727 215.973,299.135 217.816,299.480 219.301 C 300.055 221.773,300.053 222.283,299.454 225.301 C 299.094 227.116,298.794 229.140,298.787 229.800 C 298.774 231.067,297.121 234.714,295.682 236.649 C 295.212 237.282,294.506 238.241,294.113 238.780 C 293.153 240.100,289.485 243.594,289.058 243.598 C 288.870 243.599,288.181 244.050,287.527 244.600 C 286.873 245.150,286.052 245.600,285.701 245.600 C 285.350 245.600,284.779 245.840,284.431 246.134 C 284.084 246.428,283.170 246.897,282.400 247.177 C 281.630 247.457,280.460 247.920,279.800 248.206 C 270.796 252.112,254.102 250.196,243.235 244.008 C 239.272 241.752,233.229 233.637,233.191 230.522 C 233.186 230.125,232.826 229.015,232.391 228.056 C 230.784 224.514,231.339 224.000,236.770 224.000 C 239.585 224.000,240.397 224.398,240.404 225.780 C 240.408 226.659,241.872 229.867,242.705 230.822 C 242.982 231.140,243.736 232.086,244.380 232.924 C 245.024 233.763,246.237 234.974,247.076 235.615 C 247.914 236.257,248.870 237.028,249.200 237.330 C 249.957 238.021,254.171 240.000,254.886 240.000 C 255.181 240.000,255.849 240.299,256.372 240.665 C 259.540 242.884,277.258 241.608,280.431 238.932 C 280.779 238.640,281.229 238.398,281.431 238.395 C 281.634 238.392,282.315 237.987,282.945 237.495 C 285.936 235.157,287.371 233.684,287.906 232.400 C 288.227 231.630,288.680 230.881,288.912 230.735 C 290.256 229.891,291.192 222.249,290.264 219.689 C 289.846 218.536,289.786 218.921,289.764 222.889 C 289.739 227.535,289.196 230.162,288.181 230.552 C 287.861 230.675,287.600 231.081,287.600 231.456 C 287.600 232.157,283.465 236.400,282.782 236.400 C 282.572 236.400,282.400 236.670,282.400 237.000 C 282.400 237.330,282.065 237.600,281.656 237.600 C 281.247 237.600,280.249 238.050,279.438 238.600 C 278.474 239.254,277.411 239.600,276.366 239.600 C 275.487 239.600,274.062 239.960,273.200 240.400 C 270.893 241.577,260.821 241.577,257.600 240.400 C 256.396 239.960,255.153 239.600,254.837 239.600 C 254.521 239.600,253.979 239.360,253.631 239.066 C 253.284 238.772,252.370 238.291,251.600 237.996 C 250.830 237.702,249.878 237.132,249.484 236.731 C 249.091 236.329,248.613 236.000,248.422 236.000 C 247.945 236.000,244.000 232.162,244.000 231.697 C 244.000 231.491,243.640 230.907,243.200 230.400 C 242.760 229.893,242.400 229.150,242.400 228.751 C 242.400 228.351,241.942 227.023,241.383 225.799 L 240.365 223.575 235.683 223.687 L 231.000 223.800 230.876 225.524 C 230.797 226.623,231.035 227.855,231.533 228.924 C 231.963 229.846,232.435 231.126,232.582 231.768 C 232.729 232.411,233.198 233.380,233.625 233.922 C 234.051 234.464,234.400 235.152,234.400 235.451 C 234.400 235.749,234.760 236.218,235.200 236.493 C 235.640 236.768,236.000 237.209,236.000 237.475 C 236.000 238.097,241.687 244.000,242.287 244.000 C 242.538 244.000,242.986 244.243,243.283 244.540 C 244.092 245.349,248.500 247.598,249.279 247.599 C 249.652 247.600,250.804 248.050,251.838 248.600 C 252.886 249.157,254.387 249.600,255.226 249.600 C 256.055 249.600,256.804 249.812,256.890 250.071 C 257.346 251.439,273.848 251.497,274.730 250.133 C 274.878 249.903,276.204 249.621,277.675 249.506 C 279.404 249.370,280.835 248.996,281.722 248.448 C 282.477 247.982,283.361 247.600,283.686 247.600 C 284.011 247.600,284.693 247.240,285.200 246.800 C 285.707 246.360,286.350 246.000,286.627 246.000 C 286.905 246.000,287.552 245.646,288.066 245.214 C 290.160 243.453,291.436 242.523,292.083 242.287 C 292.669 242.074,293.837 240.576,295.400 238.035 C 295.620 237.678,296.205 236.984,296.700 236.493 C 297.195 236.002,297.600 235.280,297.600 234.889 C 297.600 234.498,297.960 233.870,298.400 233.493 C 298.840 233.116,299.200 232.367,299.200 231.829 C 299.200 231.290,299.491 229.623,299.846 228.125 C 300.689 224.570,300.720 219.383,299.907 217.796 C 299.570 217.138,299.164 215.816,299.005 214.857 C 298.846 213.899,298.149 212.308,297.458 211.322 C 296.766 210.336,296.020 209.230,295.800 208.865 C 294.804 207.210,293.407 205.600,292.968 205.600 C 292.702 205.600,292.381 205.327,292.253 204.994 C 292.125 204.661,291.566 204.215,291.010 204.004 C 290.455 203.793,290.000 203.455,290.000 203.253 C 290.000 203.052,289.280 202.599,288.400 202.247 C 287.520 201.895,286.800 201.427,286.800 201.208 C 286.800 200.989,286.081 200.695,285.203 200.554 C 284.324 200.414,283.243 199.985,282.801 199.601 C 282.358 199.217,281.097 198.783,279.998 198.637 C 278.899 198.492,278.000 198.207,278.000 198.005 C 278.000 197.546,275.406 196.805,273.789 196.802 C 273.123 196.801,272.207 196.540,271.754 196.223 C 271.301 195.906,269.686 195.446,268.165 195.202 C 266.644 194.957,264.950 194.521,264.400 194.231 C 263.850 193.942,262.429 193.582,261.242 193.431 C 260.055 193.280,258.397 192.807,257.558 192.379 C 256.719 191.950,255.731 191.600,255.363 191.600 C 254.995 191.600,254.133 191.261,253.447 190.846 C 252.761 190.431,251.750 189.958,251.200 189.795 C 250.650 189.632,249.930 189.257,249.600 188.961 C 244.852 184.704,243.852 182.571,244.069 177.171 C 244.183 174.327,244.401 173.056,244.866 172.528 C 245.218 172.127,245.634 171.377,245.792 170.861 C 246.045 170.032,246.698 169.142,248.040 167.800 C 248.259 167.580,248.823 166.995,249.292 166.500 C 249.761 166.005,250.387 165.600,250.685 165.600 C 250.982 165.600,251.322 165.346,251.441 165.036 C 251.561 164.726,252.140 164.354,252.729 164.209 C 253.318 164.064,254.250 163.647,254.800 163.281 C 255.682 162.694,263.666 161.128,265.800 161.123 C 267.498 161.119,276.509 162.727,276.748 163.077 C 276.887 163.280,277.630 163.690,278.400 163.989 C 279.170 164.287,280.084 164.772,280.431 165.066 C 280.779 165.360,281.229 165.604,281.431 165.609 C 281.887 165.621,286.000 169.766,286.000 170.213 C 286.000 170.391,286.273 170.838,286.606 171.206 C 286.939 171.574,287.487 172.933,287.824 174.226 C 288.759 177.818,289.039 178.000,293.629 178.000 C 295.777 178.000,297.819 177.891,298.167 177.757 C 298.995 177.440,299.061 173.514,298.250 172.841 C 297.947 172.590,297.581 171.644,297.437 170.739 C 297.292 169.833,296.819 168.642,296.387 168.092 C 295.954 167.542,295.600 166.862,295.600 166.580 C 295.600 165.687,290.046 159.600,289.231 159.600 C 288.980 159.600,288.680 159.354,288.565 159.053 C 288.320 158.415,284.715 156.000,284.007 156.000 C 283.743 156.000,283.069 155.640,282.509 155.200 C 281.950 154.760,281.109 154.400,280.640 154.400 C 280.172 154.400,279.091 154.026,278.238 153.569 C 275.725 152.222,267.223 151.731,258.652 152.437 M180.880 153.247 C 182.046 153.492,183.180 153.836,183.400 154.009 C 183.620 154.183,184.700 154.448,185.800 154.598 C 186.900 154.749,188.250 155.186,188.800 155.570 C 189.350 155.954,190.329 156.400,190.976 156.561 C 191.622 156.722,192.612 157.178,193.176 157.574 C 193.739 157.971,194.581 158.413,195.047 158.558 C 195.513 158.702,196.216 159.176,196.609 159.610 C 197.002 160.045,197.506 160.400,197.728 160.400 C 198.194 160.400,198.474 160.645,202.000 164.130 C 204.688 166.787,204.764 166.875,206.411 169.192 C 207.635 170.915,209.600 174.742,209.600 175.402 C 209.600 175.672,209.962 176.352,210.404 176.915 C 210.847 177.477,211.387 178.879,211.606 180.029 C 211.824 181.179,212.216 182.379,212.478 182.694 C 213.544 183.979,214.952 198.505,214.612 204.717 C 214.410 208.425,214.228 209.372,213.598 210.002 C 212.969 210.631,212.837 211.315,212.866 213.797 C 212.894 216.222,212.752 216.996,212.151 217.681 C 211.738 218.152,211.612 218.414,211.871 218.263 C 212.656 217.806,212.889 219.468,212.221 220.760 C 211.879 221.420,211.600 222.267,211.600 222.642 C 211.600 223.789,208.893 229.492,206.873 232.600 C 205.700 234.404,202.566 238.291,201.550 239.200 C 199.279 241.233,196.905 243.117,195.649 243.883 C 193.191 245.380,189.357 247.200,188.660 247.200 C 188.295 247.200,187.325 247.560,186.504 248.000 C 185.684 248.440,184.417 248.800,183.689 248.800 C 182.962 248.800,181.069 249.054,179.483 249.364 C 174.656 250.308,173.503 250.388,170.800 249.968 C 169.370 249.746,166.438 249.319,164.285 249.019 C 162.132 248.719,160.152 248.294,159.885 248.076 C 159.618 247.857,158.590 247.464,157.600 247.202 C 156.610 246.940,155.530 246.495,155.200 246.213 C 154.870 245.932,153.909 245.479,153.065 245.208 C 151.895 244.832,151.574 244.544,151.717 243.998 C 151.856 243.462,151.612 243.222,150.752 243.050 C 150.118 242.924,149.600 242.565,149.600 242.253 C 149.600 241.942,149.162 241.577,148.627 241.442 C 148.091 241.308,147.537 240.831,147.394 240.383 C 147.241 239.899,146.661 239.472,145.968 239.334 C 145.326 239.205,144.800 238.855,144.800 238.555 C 144.800 238.256,143.900 237.106,142.800 236.000 C 141.700 234.894,140.800 233.734,140.800 233.422 C 140.800 233.109,140.440 232.740,140.000 232.600 C 139.432 232.420,139.200 231.995,139.200 231.136 C 139.200 230.262,138.978 229.867,138.400 229.716 C 137.918 229.590,137.598 229.167,137.594 228.653 C 137.586 227.602,137.207 227.018,136.322 226.692 C 135.933 226.548,135.523 225.794,135.359 224.921 C 135.203 224.084,134.760 222.950,134.376 222.400 C 133.992 221.850,133.565 220.465,133.428 219.323 C 133.291 218.181,132.898 216.575,132.555 215.753 C 131.111 212.299,130.898 191.792,132.257 187.067 C 132.583 185.930,133.084 183.920,133.370 182.600 C 133.904 180.130,134.419 178.820,136.558 174.484 C 138.577 170.393,138.970 169.770,141.442 166.748 C 144.095 163.503,149.953 158.400,151.025 158.400 C 151.273 158.400,151.793 158.050,152.179 157.623 C 152.566 157.195,153.449 156.723,154.141 156.574 C 154.834 156.426,155.940 156.025,156.600 155.685 C 157.260 155.345,158.790 154.835,160.000 154.551 C 161.210 154.267,163.100 153.769,164.200 153.445 C 166.659 152.719,177.750 152.587,180.880 153.247 M166.800 160.850 C 166.250 161.070,164.900 161.425,163.800 161.639 C 162.059 161.977,159.582 162.942,157.600 164.055 C 157.270 164.240,156.324 164.758,155.498 165.205 C 153.223 166.437,148.487 171.096,146.762 173.798 C 145.919 175.119,145.034 176.427,144.796 176.703 C 144.557 176.980,144.098 177.955,143.776 178.869 C 143.453 179.783,143.032 180.726,142.841 180.965 C 142.649 181.204,142.362 182.009,142.203 182.754 C 142.043 183.498,141.576 184.848,141.165 185.754 C 140.754 186.659,140.414 188.243,140.409 189.274 C 140.404 190.305,140.213 191.639,139.985 192.240 C 139.157 194.419,138.830 204.069,139.470 207.469 C 139.794 209.191,140.210 211.860,140.395 213.400 C 140.735 216.231,142.342 221.302,143.157 222.117 C 143.401 222.361,143.600 223.351,143.600 224.317 C 143.600 225.710,143.758 226.116,144.362 226.274 C 144.851 226.402,145.218 226.971,145.384 227.858 C 145.527 228.619,145.918 229.347,146.253 229.476 C 146.587 229.604,147.023 230.135,147.221 230.655 C 147.418 231.175,147.834 231.600,148.143 231.600 C 148.453 231.600,148.804 231.973,148.924 232.430 C 149.043 232.886,149.514 233.357,149.970 233.476 C 150.427 233.596,150.800 233.959,150.800 234.284 C 150.800 234.609,151.154 234.967,151.587 235.081 C 152.019 235.194,152.476 235.609,152.601 236.003 C 152.726 236.398,153.251 236.826,153.767 236.956 C 154.282 237.085,154.799 237.553,154.915 237.996 C 155.076 238.613,155.459 238.800,156.563 238.800 C 157.707 238.800,158.000 238.955,158.000 239.558 C 158.000 240.217,158.302 240.313,160.300 240.295 C 161.840 240.281,163.063 240.526,164.000 241.037 C 166.027 242.142,180.438 242.192,182.104 241.100 C 182.691 240.715,183.479 240.400,183.854 240.400 C 188.004 240.400,199.470 230.488,201.002 225.577 C 201.329 224.530,203.462 221.599,204.266 221.093 C 204.534 220.925,204.877 219.523,205.030 217.979 C 205.231 215.935,205.493 215.072,205.991 214.805 C 208.492 213.466,206.574 188.433,203.432 181.400 C 198.898 171.249,188.765 161.600,182.640 161.600 C 182.138 161.600,180.844 161.332,179.764 161.004 C 177.495 160.316,168.407 160.208,166.800 160.850 M178.600 162.018 C 181.245 162.312,183.479 162.784,184.200 163.202 C 184.860 163.584,185.889 164.012,186.486 164.153 C 187.083 164.293,188.404 164.991,189.421 165.704 C 190.438 166.417,191.573 167.180,191.943 167.400 C 192.312 167.620,193.016 168.205,193.507 168.700 C 193.998 169.195,194.580 169.600,194.800 169.600 C 195.020 169.600,195.200 169.864,195.200 170.186 C 195.200 170.508,195.560 170.965,196.000 171.200 C 196.440 171.435,196.800 171.890,196.800 172.211 C 196.800 172.531,197.160 173.018,197.600 173.293 C 198.040 173.568,198.400 174.027,198.400 174.314 C 198.400 174.601,198.834 175.270,199.364 175.801 C 199.895 176.331,200.446 177.301,200.590 177.955 C 200.734 178.609,201.105 179.355,201.415 179.613 C 201.725 179.870,202.096 180.737,202.240 181.540 C 202.383 182.343,202.817 183.720,203.202 184.600 C 203.588 185.480,204.028 187.280,204.180 188.600 C 204.332 189.920,204.714 191.888,205.028 192.973 C 205.723 195.370,205.843 209.199,205.179 210.439 C 204.948 210.872,204.505 212.663,204.196 214.420 C 203.887 216.178,203.357 218.012,203.017 218.497 C 202.678 218.981,202.400 219.850,202.400 220.427 C 202.400 221.004,202.044 221.799,201.608 222.193 C 201.172 222.587,200.704 223.503,200.568 224.229 C 200.432 224.954,199.979 225.857,199.560 226.236 C 199.142 226.614,198.800 227.138,198.800 227.399 C 198.800 229.059,190.215 236.994,187.541 237.806 C 187.024 237.963,186.039 238.431,185.353 238.846 C 184.667 239.261,183.750 239.600,183.315 239.600 C 182.881 239.600,181.479 239.960,180.200 240.400 C 177.164 241.445,168.652 241.558,166.759 240.579 C 166.098 240.237,164.622 239.859,163.478 239.738 C 162.335 239.618,160.923 239.186,160.340 238.777 C 159.757 238.369,158.786 237.911,158.182 237.760 C 157.578 237.608,156.768 237.195,156.383 236.842 C 155.997 236.489,155.014 235.750,154.200 235.200 C 151.095 233.103,147.186 228.558,146.029 225.700 C 145.740 224.985,145.359 224.400,145.183 224.400 C 145.007 224.400,144.740 223.815,144.589 223.100 C 144.437 222.385,143.992 221.260,143.599 220.600 C 143.206 219.940,142.758 218.590,142.604 217.600 C 142.449 216.610,142.094 215.437,141.813 214.993 C 140.246 212.512,140.267 190.638,141.840 187.542 C 142.135 186.960,142.490 185.700,142.628 184.742 C 142.767 183.784,143.222 182.512,143.640 181.916 C 144.058 181.320,144.400 180.403,144.400 179.878 C 144.400 179.354,144.850 178.401,145.400 177.762 C 145.949 177.123,146.399 176.294,146.400 175.920 C 146.400 175.546,146.629 175.096,146.910 174.920 C 147.190 174.744,147.742 174.093,148.136 173.473 C 149.069 172.007,153.479 167.600,154.013 167.600 C 154.239 167.600,154.521 167.351,154.637 167.047 C 154.836 166.529,157.762 164.927,161.400 163.344 C 162.803 162.734,172.732 161.210,173.800 161.442 C 174.020 161.489,176.180 161.749,178.600 162.018 M102.057 178.132 C 101.530 178.766,101.296 246.435,101.816 247.731 C 102.473 249.368,108.678 249.875,110.456 248.435 L 111.400 247.671 111.499 213.735 C 111.577 186.872,111.492 179.592,111.088 178.800 C 110.466 177.579,102.975 177.025,102.057 178.132 M110.207 179.300 C 110.488 180.444,110.121 236.767,109.795 242.433 L 109.551 246.667 106.632 246.667 L 103.713 246.667 103.454 241.633 C 102.916 231.142,102.680 180.171,103.166 179.264 C 103.885 177.920,109.874 177.951,110.207 179.300 " stroke="none" fill="#df98b5" fill-rule="evenodd"></path></g></svg>