<svg xmlns="http://www.w3.org/2000/svg" xmlns:xlink="http://www.w3.org/1999/xlink" width="500" zoomAndPan="magnify" viewBox="0 0 375 374.999991" height="500" preserveAspectRatio="xMidYMid meet" version="1.0"><defs><g/><clipPath id="2cc837a5d2"><path d="M 131.234375 28.925781 L 178.742188 28.925781 L 178.742188 76.433594 L 131.234375 76.433594 Z M 131.234375 28.925781 " clip-rule="nonzero"/></clipPath><clipPath id="6444c55a13"><path d="M 154.988281 28.925781 C 141.867188 28.925781 131.234375 39.5625 131.234375 52.679688 C 131.234375 65.800781 141.867188 76.433594 154.988281 76.433594 C 168.105469 76.433594 178.742188 65.800781 178.742188 52.679688 C 178.742188 39.5625 168.105469 28.925781 154.988281 28.925781 Z M 154.988281 28.925781 " clip-rule="nonzero"/></clipPath><clipPath id="899407b0d1"><path d="M 196.792969 28.925781 L 244.300781 28.925781 L 244.300781 76.433594 L 196.792969 76.433594 Z M 196.792969 28.925781 " clip-rule="nonzero"/></clipPath><clipPath id="8f1d25f6dd"><path d="M 220.546875 28.925781 C 207.429688 28.925781 196.792969 39.5625 196.792969 52.679688 C 196.792969 65.800781 207.429688 76.433594 220.546875 76.433594 C 233.667969 76.433594 244.300781 65.800781 244.300781 52.679688 C 244.300781 39.5625 233.667969 28.925781 220.546875 28.925781 Z M 220.546875 28.925781 " clip-rule="nonzero"/></clipPath></defs><rect x="-37.5" width="450" fill="#ffffff" y="-37.499999" height="449.999989" fill-opacity="1"/><rect x="-37.5" width="450" fill="#ffffff" y="-37.499999" height="449.999989" fill-opacity="1"/><g fill="#000000" fill-opacity="1"><g transform="translate(121.642955, 248.613431)"><g><path d="M 53.96875 -10 C 53.96875 6.59375 48.15625 20.707031 36.53125 32.34375 C 24.894531 43.96875 10.78125 49.78125 -5.8125 49.78125 L -5.8125 47.921875 C -0.226562 47.921875 4.5 45.984375 8.375 42.109375 C 12.25 38.234375 14.1875 33.503906 14.1875 27.921875 L 14.1875 -159.59375 L 53.96875 -159.59375 Z M 53.96875 -10 "/></g></g></g><g fill="#ff3131" fill-opacity="1"><g transform="translate(187.491136, 248.613431)"><g><path d="M 53.96875 -10 C 53.96875 6.59375 48.15625 20.707031 36.53125 32.34375 C 24.894531 43.96875 10.78125 49.78125 -5.8125 49.78125 L -5.8125 47.921875 C -0.226562 47.921875 4.5 45.984375 8.375 42.109375 C 12.25 38.234375 14.1875 33.503906 14.1875 27.921875 L 14.1875 -159.59375 L 53.96875 -159.59375 Z M 53.96875 -10 "/></g></g></g><g clip-path="url(#2cc837a5d2)"><g clip-path="url(#6444c55a13)"><path fill="#ff3131" d="M 131.234375 28.925781 L 178.742188 28.925781 L 178.742188 76.433594 L 131.234375 76.433594 Z M 131.234375 28.925781 " fill-opacity="1" fill-rule="nonzero"/></g></g><g clip-path="url(#899407b0d1)"><g clip-path="url(#8f1d25f6dd)"><path fill="#000000" d="M 196.792969 28.925781 L 244.300781 28.925781 L 244.300781 76.433594 L 196.792969 76.433594 Z M 196.792969 28.925781 " fill-opacity="1" fill-rule="nonzero"/></g></g><g fill="#000000" fill-opacity="1"><g transform="translate(67.120964, 335.80697)"><g><path d="M 3.578125 0.0625 C 2.867188 0.0625 2.203125 -0.113281 1.578125 -0.46875 C 0.953125 -0.820312 0.453125 -1.304688 0.078125 -1.921875 L 0.359375 -2.171875 C 0.742188 -1.578125 1.210938 -1.117188 1.765625 -0.796875 C 2.328125 -0.484375 2.9375 -0.328125 3.59375 -0.328125 C 4.625 -0.328125 5.382812 -0.625 5.875 -1.21875 C 6.375 -1.8125 6.625 -2.71875 6.625 -3.9375 L 6.625 -13.671875 L 1.359375 -13.671875 L 1.359375 -14.0625 L 7.03125 -14.0625 L 7.03125 -3.890625 C 7.03125 -1.253906 5.878906 0.0625 3.578125 0.0625 Z M 3.578125 0.0625 "/></g></g></g><g fill="#000000" fill-opacity="1"><g transform="translate(81.65703, 335.80697)"><g><path d="M 7.96875 0.0625 C 6.257812 0.0625 4.925781 -0.4375 3.96875 -1.4375 C 3.019531 -2.445312 2.546875 -3.929688 2.546875 -5.890625 L 2.546875 -14.0625 L 2.953125 -14.0625 L 2.953125 -5.90625 C 2.953125 -4.050781 3.382812 -2.65625 4.25 -1.71875 C 5.113281 -0.789062 6.351562 -0.328125 7.96875 -0.328125 C 9.59375 -0.328125 10.832031 -0.789062 11.6875 -1.71875 C 12.550781 -2.65625 12.984375 -4.050781 12.984375 -5.90625 L 12.984375 -14.0625 L 13.390625 -14.0625 L 13.390625 -5.890625 C 13.390625 -3.929688 12.914062 -2.445312 11.96875 -1.4375 C 11.019531 -0.4375 9.6875 0.0625 7.96875 0.0625 Z M 7.96875 0.0625 "/></g></g></g><g fill="#000000" fill-opacity="1"><g transform="translate(102.556616, 335.80697)"><g><path d="M 13.71875 -14.0625 L 13.71875 0 L 13.375 0 L 3.078125 -13.3125 L 3.078125 0 L 2.671875 0 L 2.671875 -14.0625 L 3.015625 -14.0625 L 13.3125 -0.75 L 13.3125 -14.0625 Z M 13.71875 -14.0625 "/></g></g></g><g fill="#000000" fill-opacity="1"><g transform="translate(123.897829, 335.80697)"><g><path d="M 11.203125 -4.234375 L 2.609375 -4.234375 L 0.640625 0 L 0.1875 0 L 6.703125 -14.0625 L 7.109375 -14.0625 L 13.640625 0 L 13.171875 0 Z M 11.015625 -4.625 L 6.90625 -13.515625 L 2.796875 -4.625 Z M 11.015625 -4.625 "/></g></g></g><g fill="#000000" fill-opacity="1"><g transform="translate(142.669548, 335.80697)"><g><path d="M 2.671875 -14.0625 L 3.078125 -14.0625 L 3.078125 0 L 2.671875 0 Z M 2.671875 -14.0625 "/></g></g></g><g fill="#000000" fill-opacity="1"><g transform="translate(153.371444, 335.80697)"><g><path d="M 2.671875 -14.0625 L 7.984375 -14.0625 C 9.441406 -14.0625 10.726562 -13.757812 11.84375 -13.15625 C 12.96875 -12.550781 13.84375 -11.710938 14.46875 -10.640625 C 15.09375 -9.566406 15.40625 -8.363281 15.40625 -7.03125 C 15.40625 -5.6875 15.09375 -4.476562 14.46875 -3.40625 C 13.84375 -2.34375 12.96875 -1.507812 11.84375 -0.90625 C 10.726562 -0.300781 9.441406 0 7.984375 0 L 2.671875 0 Z M 7.953125 -0.375 C 9.359375 -0.375 10.59375 -0.660156 11.65625 -1.234375 C 12.71875 -1.804688 13.539062 -2.597656 14.125 -3.609375 C 14.707031 -4.617188 15 -5.757812 15 -7.03125 C 15 -8.300781 14.707031 -9.441406 14.125 -10.453125 C 13.539062 -11.460938 12.71875 -12.25 11.65625 -12.8125 C 10.59375 -13.382812 9.359375 -13.671875 7.953125 -13.671875 L 3.078125 -13.671875 L 3.078125 -0.375 Z M 7.953125 -0.375 "/></g></g></g><g fill="#000000" fill-opacity="1"><g transform="translate(174.913395, 335.80697)"><g/></g></g><g fill="#000000" fill-opacity="1"><g transform="translate(184.89262, 335.80697)"><g><path d="M 12.28125 0.203125 L 10.125 -2.171875 C 9.050781 -0.679688 7.503906 0.0625 5.484375 0.0625 C 4.640625 0.0625 3.882812 -0.078125 3.21875 -0.359375 C 2.5625 -0.648438 2.046875 -1.050781 1.671875 -1.5625 C 1.304688 -2.082031 1.125 -2.6875 1.125 -3.375 C 1.125 -4.164062 1.40625 -4.898438 1.96875 -5.578125 C 2.53125 -6.265625 3.515625 -7.03125 4.921875 -7.875 L 4.765625 -8.03125 C 4.066406 -8.78125 3.59375 -9.390625 3.34375 -9.859375 C 3.101562 -10.335938 2.984375 -10.851562 2.984375 -11.40625 C 2.984375 -12.21875 3.257812 -12.867188 3.8125 -13.359375 C 4.363281 -13.859375 5.101562 -14.109375 6.03125 -14.109375 C 6.894531 -14.109375 7.582031 -13.882812 8.09375 -13.4375 C 8.601562 -12.988281 8.859375 -12.378906 8.859375 -11.609375 C 8.859375 -11.148438 8.753906 -10.726562 8.546875 -10.34375 C 8.335938 -9.96875 7.992188 -9.578125 7.515625 -9.171875 C 7.046875 -8.773438 6.375 -8.316406 5.5 -7.796875 L 10.09375 -2.765625 C 10.59375 -3.554688 10.960938 -4.578125 11.203125 -5.828125 L 11.546875 -5.75 C 11.285156 -4.445312 10.890625 -3.367188 10.359375 -2.515625 L 12.59375 -0.0625 Z M 3.390625 -11.40625 C 3.390625 -10.90625 3.503906 -10.4375 3.734375 -10 C 3.972656 -9.5625 4.4375 -8.96875 5.125 -8.21875 L 5.265625 -8.078125 C 6.109375 -8.578125 6.753906 -9.007812 7.203125 -9.375 C 7.648438 -9.738281 7.972656 -10.09375 8.171875 -10.4375 C 8.367188 -10.789062 8.46875 -11.179688 8.46875 -11.609375 C 8.46875 -12.265625 8.253906 -12.78125 7.828125 -13.15625 C 7.398438 -13.539062 6.800781 -13.734375 6.03125 -13.734375 C 5.207031 -13.734375 4.5625 -13.519531 4.09375 -13.09375 C 3.625 -12.675781 3.390625 -12.113281 3.390625 -11.40625 Z M 5.484375 -0.28125 C 7.398438 -0.28125 8.863281 -0.992188 9.875 -2.421875 L 5.1875 -7.59375 C 4.226562 -7.007812 3.488281 -6.492188 2.96875 -6.046875 C 2.445312 -5.597656 2.078125 -5.164062 1.859375 -4.75 C 1.640625 -4.34375 1.53125 -3.882812 1.53125 -3.375 C 1.53125 -2.445312 1.894531 -1.695312 2.625 -1.125 C 3.351562 -0.5625 4.304688 -0.28125 5.484375 -0.28125 Z M 5.484375 -0.28125 "/></g></g></g><g fill="#000000" fill-opacity="1"><g transform="translate(202.580332, 335.80697)"><g/></g></g><g fill="#000000" fill-opacity="1"><g transform="translate(212.559557, 335.80697)"><g><path d="M 3.578125 0.0625 C 2.867188 0.0625 2.203125 -0.113281 1.578125 -0.46875 C 0.953125 -0.820312 0.453125 -1.304688 0.078125 -1.921875 L 0.359375 -2.171875 C 0.742188 -1.578125 1.210938 -1.117188 1.765625 -0.796875 C 2.328125 -0.484375 2.9375 -0.328125 3.59375 -0.328125 C 4.625 -0.328125 5.382812 -0.625 5.875 -1.21875 C 6.375 -1.8125 6.625 -2.71875 6.625 -3.9375 L 6.625 -13.671875 L 1.359375 -13.671875 L 1.359375 -14.0625 L 7.03125 -14.0625 L 7.03125 -3.890625 C 7.03125 -1.253906 5.878906 0.0625 3.578125 0.0625 Z M 3.578125 0.0625 "/></g></g></g><g fill="#000000" fill-opacity="1"><g transform="translate(227.095624, 335.80697)"><g><path d="M 11.203125 -4.234375 L 2.609375 -4.234375 L 0.640625 0 L 0.1875 0 L 6.703125 -14.0625 L 7.109375 -14.0625 L 13.640625 0 L 13.171875 0 Z M 11.015625 -4.625 L 6.90625 -13.515625 L 2.796875 -4.625 Z M 11.015625 -4.625 "/></g></g></g><g fill="#000000" fill-opacity="1"><g transform="translate(245.867343, 335.80697)"><g><path d="M 20.78125 -14.0625 L 15.96875 0 L 15.5625 0 L 10.84375 -13.5 L 6.125 0 L 5.71875 0 L 0.90625 -14.0625 L 1.34375 -14.0625 L 5.9375 -0.640625 L 10.640625 -14.0625 L 11.046875 -14.0625 L 15.765625 -0.609375 L 20.359375 -14.0625 Z M 20.78125 -14.0625 "/></g></g></g><g fill="#000000" fill-opacity="1"><g transform="translate(272.508134, 335.80697)"><g><path d="M 11.203125 -4.234375 L 2.609375 -4.234375 L 0.640625 0 L 0.1875 0 L 6.703125 -14.0625 L 7.109375 -14.0625 L 13.640625 0 L 13.171875 0 Z M 11.015625 -4.625 L 6.90625 -13.515625 L 2.796875 -4.625 Z M 11.015625 -4.625 "/></g></g></g><g fill="#000000" fill-opacity="1"><g transform="translate(291.279854, 335.80697)"><g><path d="M 2.671875 -14.0625 L 7.984375 -14.0625 C 9.441406 -14.0625 10.726562 -13.757812 11.84375 -13.15625 C 12.96875 -12.550781 13.84375 -11.710938 14.46875 -10.640625 C 15.09375 -9.566406 15.40625 -8.363281 15.40625 -7.03125 C 15.40625 -5.6875 15.09375 -4.476562 14.46875 -3.40625 C 13.84375 -2.34375 12.96875 -1.507812 11.84375 -0.90625 C 10.726562 -0.300781 9.441406 0 7.984375 0 L 2.671875 0 Z M 7.953125 -0.375 C 9.359375 -0.375 10.59375 -0.660156 11.65625 -1.234375 C 12.71875 -1.804688 13.539062 -2.597656 14.125 -3.609375 C 14.707031 -4.617188 15 -5.757812 15 -7.03125 C 15 -8.300781 14.707031 -9.441406 14.125 -10.453125 C 13.539062 -11.460938 12.71875 -12.25 11.65625 -12.8125 C 10.59375 -13.382812 9.359375 -13.671875 7.953125 -13.671875 L 3.078125 -13.671875 L 3.078125 -0.375 Z M 7.953125 -0.375 "/></g></g></g><g fill="#000000" fill-opacity="1"><g transform="translate(133.014459, 355.627769)"><g><path d="M 4.421875 0.0625 C 3.691406 0.0625 3.03125 -0.0976562 2.4375 -0.421875 C 1.851562 -0.742188 1.390625 -1.191406 1.046875 -1.765625 C 0.710938 -2.347656 0.546875 -2.992188 0.546875 -3.703125 C 0.546875 -4.410156 0.710938 -5.050781 1.046875 -5.625 C 1.390625 -6.207031 1.851562 -6.660156 2.4375 -6.984375 C 3.03125 -7.304688 3.695312 -7.46875 4.4375 -7.46875 C 4.976562 -7.46875 5.484375 -7.375 5.953125 -7.1875 C 6.421875 -7.007812 6.816406 -6.742188 7.140625 -6.390625 L 6.640625 -5.890625 C 6.066406 -6.472656 5.335938 -6.765625 4.453125 -6.765625 C 3.867188 -6.765625 3.335938 -6.628906 2.859375 -6.359375 C 2.378906 -6.097656 2.003906 -5.734375 1.734375 -5.265625 C 1.460938 -4.796875 1.328125 -4.273438 1.328125 -3.703125 C 1.328125 -3.117188 1.460938 -2.59375 1.734375 -2.125 C 2.003906 -1.664062 2.378906 -1.300781 2.859375 -1.03125 C 3.335938 -0.769531 3.867188 -0.640625 4.453125 -0.640625 C 5.335938 -0.640625 6.066406 -0.929688 6.640625 -1.515625 L 7.140625 -1.03125 C 6.816406 -0.675781 6.421875 -0.40625 5.953125 -0.21875 C 5.484375 -0.03125 4.972656 0.0625 4.421875 0.0625 Z M 4.421875 0.0625 "/></g></g></g><g fill="#000000" fill-opacity="1"><g transform="translate(143.237796, 355.627769)"><g><path d="M 4.4375 0.0625 C 3.707031 0.0625 3.046875 -0.0976562 2.453125 -0.421875 C 1.859375 -0.753906 1.390625 -1.207031 1.046875 -1.78125 C 0.710938 -2.351562 0.546875 -2.992188 0.546875 -3.703125 C 0.546875 -4.410156 0.710938 -5.050781 1.046875 -5.625 C 1.390625 -6.195312 1.859375 -6.644531 2.453125 -6.96875 C 3.046875 -7.300781 3.707031 -7.46875 4.4375 -7.46875 C 5.175781 -7.46875 5.835938 -7.304688 6.421875 -6.984375 C 7.015625 -6.660156 7.476562 -6.207031 7.8125 -5.625 C 8.15625 -5.050781 8.328125 -4.410156 8.328125 -3.703125 C 8.328125 -2.992188 8.15625 -2.347656 7.8125 -1.765625 C 7.476562 -1.191406 7.015625 -0.742188 6.421875 -0.421875 C 5.835938 -0.0976562 5.175781 0.0625 4.4375 0.0625 Z M 4.4375 -0.640625 C 5.03125 -0.640625 5.5625 -0.769531 6.03125 -1.03125 C 6.5 -1.289062 6.867188 -1.65625 7.140625 -2.125 C 7.410156 -2.59375 7.546875 -3.117188 7.546875 -3.703125 C 7.546875 -4.273438 7.410156 -4.796875 7.140625 -5.265625 C 6.867188 -5.742188 6.5 -6.113281 6.03125 -6.375 C 5.5625 -6.632812 5.03125 -6.765625 4.4375 -6.765625 C 3.851562 -6.765625 3.320312 -6.632812 2.84375 -6.375 C 2.375 -6.113281 2.003906 -5.742188 1.734375 -5.265625 C 1.460938 -4.796875 1.328125 -4.273438 1.328125 -3.703125 C 1.328125 -3.117188 1.460938 -2.59375 1.734375 -2.125 C 2.003906 -1.65625 2.375 -1.289062 2.84375 -1.03125 C 3.320312 -0.769531 3.851562 -0.640625 4.4375 -0.640625 Z M 4.4375 -0.640625 "/></g></g></g><g fill="#000000" fill-opacity="1"><g transform="translate(154.73098, 355.627769)"><g><path d="M 7.390625 -7.40625 L 7.390625 0 L 6.75 0 L 1.984375 -6.015625 L 1.984375 0 L 1.203125 0 L 1.203125 -7.40625 L 1.84375 -7.40625 L 6.625 -1.390625 L 6.625 -7.40625 Z M 7.390625 -7.40625 "/></g></g></g><g fill="#000000" fill-opacity="1"><g transform="translate(165.949025, 355.627769)"><g><path d="M 3.25 0.0625 C 2.695312 0.0625 2.164062 -0.0234375 1.65625 -0.203125 C 1.15625 -0.378906 0.769531 -0.613281 0.5 -0.90625 L 0.796875 -1.5 C 1.066406 -1.226562 1.421875 -1.007812 1.859375 -0.84375 C 2.304688 -0.6875 2.769531 -0.609375 3.25 -0.609375 C 3.90625 -0.609375 4.398438 -0.726562 4.734375 -0.96875 C 5.066406 -1.207031 5.234375 -1.523438 5.234375 -1.921875 C 5.234375 -2.210938 5.144531 -2.445312 4.96875 -2.625 C 4.789062 -2.800781 4.566406 -2.9375 4.296875 -3.03125 C 4.035156 -3.125 3.675781 -3.226562 3.21875 -3.34375 C 2.65625 -3.476562 2.207031 -3.613281 1.875 -3.75 C 1.550781 -3.882812 1.269531 -4.082031 1.03125 -4.34375 C 0.789062 -4.613281 0.671875 -4.976562 0.671875 -5.4375 C 0.671875 -5.8125 0.769531 -6.148438 0.96875 -6.453125 C 1.164062 -6.765625 1.46875 -7.007812 1.875 -7.1875 C 2.289062 -7.375 2.800781 -7.46875 3.40625 -7.46875 C 3.832031 -7.46875 4.242188 -7.410156 4.640625 -7.296875 C 5.046875 -7.179688 5.398438 -7.019531 5.703125 -6.8125 L 5.4375 -6.1875 C 5.125 -6.394531 4.789062 -6.546875 4.4375 -6.640625 C 4.082031 -6.742188 3.738281 -6.796875 3.40625 -6.796875 C 2.757812 -6.796875 2.269531 -6.671875 1.9375 -6.421875 C 1.613281 -6.171875 1.453125 -5.847656 1.453125 -5.453125 C 1.453125 -5.160156 1.539062 -4.921875 1.71875 -4.734375 C 1.894531 -4.554688 2.117188 -4.421875 2.390625 -4.328125 C 2.660156 -4.234375 3.023438 -4.128906 3.484375 -4.015625 C 4.035156 -3.878906 4.476562 -3.742188 4.8125 -3.609375 C 5.144531 -3.484375 5.425781 -3.289062 5.65625 -3.03125 C 5.894531 -2.769531 6.015625 -2.410156 6.015625 -1.953125 C 6.015625 -1.578125 5.910156 -1.234375 5.703125 -0.921875 C 5.503906 -0.617188 5.195312 -0.378906 4.78125 -0.203125 C 4.363281 -0.0234375 3.851562 0.0625 3.25 0.0625 Z M 3.25 0.0625 "/></g></g></g><g fill="#000000" fill-opacity="1"><g transform="translate(175.071831, 355.627769)"><g><path d="M 4.1875 0.0625 C 3.226562 0.0625 2.476562 -0.210938 1.9375 -0.765625 C 1.40625 -1.316406 1.140625 -2.113281 1.140625 -3.15625 L 1.140625 -7.40625 L 1.921875 -7.40625 L 1.921875 -3.1875 C 1.921875 -2.332031 2.113281 -1.691406 2.5 -1.265625 C 2.894531 -0.847656 3.457031 -0.640625 4.1875 -0.640625 C 4.925781 -0.640625 5.488281 -0.847656 5.875 -1.265625 C 6.269531 -1.691406 6.46875 -2.332031 6.46875 -3.1875 L 6.46875 -7.40625 L 7.21875 -7.40625 L 7.21875 -3.15625 C 7.21875 -2.113281 6.953125 -1.316406 6.421875 -0.765625 C 5.890625 -0.210938 5.144531 0.0625 4.1875 0.0625 Z M 4.1875 0.0625 "/></g></g></g><g fill="#000000" fill-opacity="1"><g transform="translate(186.067657, 355.627769)"><g><path d="M 1.203125 -7.40625 L 1.984375 -7.40625 L 1.984375 -0.671875 L 6.140625 -0.671875 L 6.140625 0 L 1.203125 0 Z M 1.203125 -7.40625 "/></g></g></g><g fill="#000000" fill-opacity="1"><g transform="translate(194.915335, 355.627769)"><g><path d="M 2.640625 -6.734375 L 0.046875 -6.734375 L 0.046875 -7.40625 L 6.03125 -7.40625 L 6.03125 -6.734375 L 3.421875 -6.734375 L 3.421875 0 L 2.640625 0 Z M 2.640625 -6.734375 "/></g></g></g><g fill="#000000" fill-opacity="1"><g transform="translate(203.604284, 355.627769)"><g><path d="M 5.84375 -1.984375 L 1.71875 -1.984375 L 0.828125 0 L 0.015625 0 L 3.40625 -7.40625 L 4.171875 -7.40625 L 7.5625 0 L 6.734375 0 Z M 5.5625 -2.609375 L 3.78125 -6.59375 L 2.015625 -2.609375 Z M 5.5625 -2.609375 "/></g></g></g><g fill="#000000" fill-opacity="1"><g transform="translate(213.806463, 355.627769)"><g><path d="M 7.390625 -7.40625 L 7.390625 0 L 6.75 0 L 1.984375 -6.015625 L 1.984375 0 L 1.203125 0 L 1.203125 -7.40625 L 1.84375 -7.40625 L 6.625 -1.390625 L 6.625 -7.40625 Z M 7.390625 -7.40625 "/></g></g></g><g fill="#000000" fill-opacity="1"><g transform="translate(225.02451, 355.627769)"><g><path d="M 4.421875 0.0625 C 3.691406 0.0625 3.03125 -0.0976562 2.4375 -0.421875 C 1.851562 -0.742188 1.390625 -1.191406 1.046875 -1.765625 C 0.710938 -2.347656 0.546875 -2.992188 0.546875 -3.703125 C 0.546875 -4.410156 0.710938 -5.050781 1.046875 -5.625 C 1.390625 -6.207031 1.851562 -6.660156 2.4375 -6.984375 C 3.03125 -7.304688 3.695312 -7.46875 4.4375 -7.46875 C 4.976562 -7.46875 5.484375 -7.375 5.953125 -7.1875 C 6.421875 -7.007812 6.816406 -6.742188 7.140625 -6.390625 L 6.640625 -5.890625 C 6.066406 -6.472656 5.335938 -6.765625 4.453125 -6.765625 C 3.867188 -6.765625 3.335938 -6.628906 2.859375 -6.359375 C 2.378906 -6.097656 2.003906 -5.734375 1.734375 -5.265625 C 1.460938 -4.796875 1.328125 -4.273438 1.328125 -3.703125 C 1.328125 -3.117188 1.460938 -2.59375 1.734375 -2.125 C 2.003906 -1.664062 2.378906 -1.300781 2.859375 -1.03125 C 3.335938 -0.769531 3.867188 -0.640625 4.453125 -0.640625 C 5.335938 -0.640625 6.066406 -0.929688 6.640625 -1.515625 L 7.140625 -1.03125 C 6.816406 -0.675781 6.421875 -0.40625 5.953125 -0.21875 C 5.484375 -0.03125 4.972656 0.0625 4.421875 0.0625 Z M 4.421875 0.0625 "/></g></g></g><g fill="#000000" fill-opacity="1"><g transform="translate(235.247843, 355.627769)"><g><path d="M 3.75 -2.5625 L 3.75 0 L 2.96875 0 L 2.96875 -2.5625 L 0.015625 -7.40625 L 0.84375 -7.40625 L 3.390625 -3.25 L 5.921875 -7.40625 L 6.703125 -7.40625 Z M 3.75 -2.5625 "/></g></g></g></svg>