<svg width="44" height="46" viewBox="0 0 44 46" fill="none" xmlns="http://www.w3.org/2000/svg">
<path fill-rule="evenodd" clip-rule="evenodd" d="M24.1841 0.0771604C23.368 0.251713 22.4548 0.707007 22.2929 1.02002C22.2366 1.12883 22.239 1.14854 22.317 1.22117C22.3645 1.26547 22.5342 1.37121 22.6941 1.45614C22.854 1.54106 22.985 1.6255 22.9852 1.64383C22.9854 1.66216 22.8311 1.67712 22.6422 1.67712C21.9037 1.67712 18.3041 1.94339 16.6152 2.12292C13.1504 2.49129 11.0318 2.89655 9.89519 3.40831C8.17416 4.18328 6.59937 5.56168 5.19491 7.52247C1.26681 13.0065 -0.751559 22.2462 0.257802 30.1233C0.73476 33.8453 1.8943 37.0569 3.57914 39.3223C6.19753 42.8429 10.4249 45.1093 15.6607 45.7997C16.8927 45.9621 17.5243 46.0001 18.9902 46C21.0424 45.9999 22.5535 45.8536 24.4883 45.4679C31.0812 44.1536 36.7627 40.6781 40.1084 35.9128C41.3295 34.1736 42.21 32.3117 42.8059 30.2089C43.5264 27.6664 43.828 25.581 43.828 23.1411C43.828 17.7431 41.9355 12.7104 38.3835 8.66234C37.4534 7.60233 35.9222 6.2167 34.8276 5.44439C34.5772 5.26775 34.203 4.98448 33.9961 4.81495C33.5712 4.46677 32.8017 3.94294 32.1749 3.5751C31.6961 3.29418 29.9343 2.41458 29.2671 2.12345C28.0323 1.58452 26.353 0.764407 25.6307 0.347602C24.9646 -0.0368405 24.8325 -0.0615229 24.1841 0.0771604ZM22.2722 4.31384C23.6421 4.59622 24.6108 5.00424 27.2916 6.42801L28.3349 6.98207L28.7344 6.98163C29.1771 6.9811 29.5221 6.89307 30.1735 6.6145L30.547 6.45469L30.9503 6.66893C33.2533 7.89226 34.3744 8.58426 35.127 9.24735C37.6107 11.4356 39.3059 14.2585 40.1155 17.5546C40.4722 19.007 40.6116 20.168 40.6314 21.8537C40.6441 22.9326 40.6328 23.2398 40.5465 24.1621C40.3456 26.3089 39.7109 28.7845 38.8297 30.8581C37.1193 34.8828 34.3688 38.2388 31.1094 40.2777C28.9438 41.6324 26.6442 42.3595 23.3851 42.7201C22.507 42.8172 20.0751 42.8562 19.1012 42.7888C15.3865 42.5315 12.1369 41.6358 9.5123 40.1456C7.26753 38.8711 5.74618 37.2844 4.78259 35.2127C3.81043 33.1228 3.26147 30.8755 2.95605 27.7357C2.8772 26.9249 2.87663 23.3251 2.95525 22.4752C3.22538 19.5545 3.70438 17.184 4.48907 14.884C5.75049 11.1869 7.61117 8.48167 9.92 6.98811C10.8 6.41882 12.6945 5.65464 14.5731 5.11122C16.9043 4.43681 18.8047 4.15367 20.7881 4.18523C21.5765 4.1978 21.8055 4.21764 22.2722 4.31384ZM13.5418 16.7925C13.119 16.8692 12.8718 16.9943 12.6282 17.2546C12.2582 17.6502 12.1039 18.0957 12.1039 18.7684C12.1039 19.4861 12.319 20.041 12.7584 20.4565C13.2104 20.884 13.7973 21.0506 14.4955 20.9496C14.9745 20.8804 15.2827 20.7362 15.5401 20.461C15.7854 20.1988 15.9068 19.9687 15.9932 19.6021C16.2455 18.5323 15.7577 17.3507 14.8976 16.9482C14.4253 16.7272 14.105 16.6904 13.5418 16.7925ZM28.4015 17.0233C27.9462 17.0994 27.3406 17.4161 27.0952 17.7063C26.4777 18.4367 26.5719 19.8291 27.2944 20.6481C27.647 21.0478 28.0149 21.2149 28.5414 21.2143C29.9115 21.2127 30.984 19.8394 30.6416 18.5249C30.5017 17.9878 30.0529 17.4229 29.5836 17.1933C29.2516 17.0308 28.7703 16.9616 28.4015 17.0233ZM9.24594 24.4038C8.96902 24.5172 8.91335 24.804 8.99863 25.6774C9.19005 27.638 10.0422 29.3512 11.5292 30.7651C13.5081 32.6468 16.2784 33.8549 19.6738 34.3167C20.6529 34.4499 22.9506 34.4605 23.8734 34.3361C26.3822 33.9978 28.3058 33.2731 29.9108 32.0616C31.0363 31.2121 31.8175 30.2672 32.3984 29.0529C32.814 28.184 33.1023 27.1928 33.1789 26.3696C33.2063 26.0739 33.2033 26.0611 33.0846 25.9677C32.9223 25.84 32.7446 25.8458 32.5804 25.984C32.5067 26.046 32.2505 26.3499 32.011 26.6594C31.5174 27.2974 30.6481 28.1931 30.0884 28.6406C28.3057 30.0657 26.32 30.9135 23.8734 31.2941C23.3096 31.3818 23.0562 31.3944 21.8313 31.3962C20.7163 31.3978 20.3115 31.3817 19.8336 31.317C17.9194 31.0578 16.3927 30.6029 14.7507 29.8028C12.861 28.8819 11.444 27.7009 10.6462 26.3818C10.3977 25.9708 10.2564 25.6476 10.0674 25.0576C9.90047 24.5364 9.75783 24.3606 9.50559 24.3647C9.41161 24.3662 9.29477 24.3839 9.24594 24.4038Z" fill="black"/>
</svg>
