<svg width="157" height="50" viewBox="0 0 157 50" fill="none" xmlns="http://www.w3.org/2000/svg">
<path d="M19.0698 41.3418L23.8736 49.6393L28.6774 41.3418H19.0698Z" fill="#89BA2A"/>
<path d="M14.2656 33.0443L19.0694 24.7468L23.8732 33.0443H14.2656Z" fill="#07788A"/>
<path d="M14.2656 33.0443L19.0694 41.3418L23.8732 33.0443H14.2656Z" fill="#1E998C"/>
<path d="M9.60742 24.8924L14.4112 33.1899L19.215 24.8924H9.60742Z" fill="#0064AF"/>
<path d="M4.80371 16.5949L9.60751 24.7468L14.4113 16.4493L4.80371 16.5949Z" fill="#002E7D"/>
<path d="M0 8.29749L4.8038 16.595L9.60759 8.29749H0Z" fill="#0B1025"/>
<path d="M33.481 16.595L38.2848 8.29749L43.0886 16.595H33.481Z" fill="#AE261B"/>
<path d="M9.60742 24.7468L14.4112 16.4493L19.215 24.7468H9.60742Z" fill="#005086"/>
<path d="M4.80371 16.595L9.60751 8.29749L14.4113 16.595H4.80371Z" fill="#121A4F"/>
<path d="M28.6774 41.3418L23.8736 33.0443L19.0698 41.3418H28.6774Z" fill="#46A736"/>
<path d="M33.4811 33.0443L28.6773 41.3418L23.8735 33.0443H33.4811Z" fill="#FCE517"/>
<path d="M38.1393 24.8924L33.481 33.0443L28.6772 24.7468H38.1393V24.8924Z" fill="#FF9D00"/>
<path d="M42.943 16.5949L38.1392 24.7468L33.481 16.5949H42.943Z" fill="#C7451A"/>
<path d="M42.943 0L38.1392 8.29747H47.7468L42.943 0Z" fill="#C2041C"/>
<path d="M42.9429 0L47.7467 8.29747L52.5505 0H42.9429Z" fill="#A50C1A"/>
<path d="M33.4811 33.0443L28.6773 24.7468L23.8735 33.0443H33.4811Z" fill="#FFC200"/>
<path d="M38.1393 24.7468L33.481 16.5949L28.6772 24.7468H38.1393Z" fill="#DE6716"/>
<path d="M67.8906 24.8672L62.0444 6.97437H64.5468L67.337 15.7879C68.1121 18.2017 68.7764 20.3719 69.2414 22.4756H69.2857C69.7951 20.394 70.5258 18.1353 71.323 15.8101L74.3568 6.97437H76.837L70.4372 24.8672H67.8906Z" fill="white"/>
<path d="M83.5025 8.3916C83.5247 9.18881 82.9489 9.831 82.0188 9.831C81.1995 9.831 80.6016 9.18881 80.6016 8.3916C80.6016 7.59439 81.2216 6.93005 82.0631 6.93005C82.9046 6.93005 83.5025 7.57225 83.5025 8.3916ZM80.8894 24.8672V12.0233H83.2368V24.8672H80.8894Z" fill="white"/>
<path d="M88.3076 23.5164L94.1317 15.9429C94.6853 15.2564 95.2167 14.6364 95.8147 13.9499V13.9056H88.8612V12.0233H98.6713V13.4849L92.9137 20.9476C92.3822 21.6562 91.8508 22.2984 91.275 22.9628V23.007H98.782V24.8672H88.3519V23.5164H88.3076Z" fill="white"/>
<path d="M106.599 8.3252V12.0233H109.943V13.7949H106.599V20.7262C106.599 22.3206 107.042 23.2285 108.349 23.2285C108.969 23.2285 109.412 23.14 109.7 23.0735L109.81 24.8229C109.367 25.0001 108.637 25.133 107.729 25.133C106.644 25.133 105.758 24.7787 105.204 24.1586C104.54 23.4721 104.296 22.3206 104.296 20.8148V13.7949H102.303V12.0233H104.296V8.94524L106.577 8.3252H106.599Z" fill="white"/>
<path d="M116.365 18.866C116.409 22.0327 118.446 23.3392 120.772 23.3392C122.432 23.3392 123.451 23.0514 124.337 22.6749L124.736 24.3358C123.916 24.7122 122.499 25.133 120.462 25.133C116.498 25.133 114.15 22.5199 114.15 18.6446C114.15 14.7693 116.431 11.7133 120.174 11.7133C124.381 11.7133 125.488 15.4115 125.488 17.7588C125.488 18.246 125.444 18.6003 125.4 18.8439H116.365V18.866ZM123.208 17.2052C123.23 15.7215 122.587 13.3963 119.974 13.3963C117.605 13.3963 116.564 15.5665 116.387 17.2052H123.208Z" fill="white"/>
<path d="M140.193 24.3801C139.573 24.6901 138.222 25.133 136.495 25.133C132.619 25.133 130.095 22.4978 130.095 18.5782C130.095 14.6586 132.796 11.7576 137.004 11.7576C138.377 11.7576 139.595 12.1119 140.237 12.422L139.705 14.2378C139.152 13.9278 138.266 13.6178 137.004 13.6178C134.059 13.6178 132.464 15.788 132.464 18.4675C132.464 21.4348 134.369 23.2728 136.937 23.2728C138.266 23.2728 139.152 22.9185 139.794 22.6306L140.193 24.3801Z" fill="white"/>
<path d="M147.877 17.9138H147.921C148.231 17.4709 148.696 16.8952 149.073 16.4523L152.837 12.0233H155.65L150.689 17.3159L156.336 24.8894H153.502L149.073 18.7332L147.877 20.0618V24.8894H145.574V6H147.877V17.8917V17.9138Z" fill="white"/>
<path d="M62.2436 39.704C62.6201 39.9255 63.1737 40.1026 63.7716 40.1026C64.6352 40.1026 65.1445 39.6819 65.1445 39.084C65.1445 38.5304 64.7902 38.1982 63.9044 37.8882C62.8194 37.5339 62.155 37.0467 62.155 36.2052C62.155 35.2751 62.9965 34.5886 64.2809 34.5886C64.9674 34.5886 65.4546 34.7215 65.7424 34.8765L65.4988 35.4966C65.2774 35.3858 64.8345 35.2087 64.2366 35.2087C63.3287 35.2087 62.9965 35.6959 62.9965 36.0945C62.9965 36.6481 63.3951 36.936 64.303 37.246C65.4103 37.6446 65.986 38.1318 65.986 38.9954C65.986 39.9255 65.2331 40.7227 63.683 40.7227C63.0408 40.7227 62.3543 40.5455 62 40.3462L62.2214 39.704H62.2436Z" fill="white"/>
<path d="M78.8075 37.6004C78.8075 39.6599 77.4346 40.7449 75.7516 40.7449C74.0686 40.7449 72.7842 39.527 72.7842 37.7111C72.7842 35.8067 74.0907 34.5666 75.8401 34.5666C77.5896 34.5666 78.8075 35.8067 78.8075 37.5783V37.6004ZM73.6921 37.689C73.6921 38.9734 74.445 40.1027 75.7959 40.1027C77.1467 40.1027 77.9217 38.9734 77.9217 37.6225C77.9217 36.4267 77.2352 35.1866 75.818 35.1866C74.4007 35.1866 73.6921 36.3603 73.6921 37.6668V37.689Z" fill="white"/>
<path d="M85.8721 34.6773H86.7357V39.992H89.5481V40.6342H85.8721V34.6773Z" fill="white"/>
<path d="M96.9662 34.6773V38.1983C96.9662 39.527 97.6305 40.1027 98.4942 40.1027C99.4685 40.1027 100.111 39.527 100.111 38.1983V34.6773H100.974V38.154C100.974 39.992 99.9114 40.7449 98.472 40.7449C97.1212 40.7449 96.1025 40.0363 96.1025 38.1983V34.6773H96.9662Z" fill="white"/>
<path d="M109.655 35.3416H107.64V34.6773H112.534V35.3416H110.519V40.6564H109.655V35.3416Z" fill="white"/>
<path d="M120.085 34.6773V40.6342H119.222V34.6773H120.085Z" fill="white"/>
<path d="M133.195 37.6004C133.195 39.6599 131.822 40.7449 130.139 40.7449C128.456 40.7449 127.171 39.527 127.171 37.7111C127.171 35.8067 128.478 34.5666 130.227 34.5666C131.977 34.5666 133.195 35.8067 133.195 37.5783V37.6004ZM128.079 37.689C128.079 38.9734 128.832 40.1027 130.183 40.1027C131.534 40.1027 132.309 38.9734 132.309 37.6225C132.309 36.4267 131.622 35.1866 130.205 35.1866C128.788 35.1866 128.079 36.3603 128.079 37.6668V37.689Z" fill="white"/>
<path d="M140.259 40.6564V34.6995H141.189L143.315 37.7111C143.802 38.4198 144.179 39.0398 144.511 39.6599C144.422 38.8627 144.422 38.1319 144.422 37.2018V34.6995H145.22V40.6564H144.356L142.252 37.6226C141.787 36.9582 141.344 36.2717 141.012 35.6295H140.99C141.034 36.3825 141.056 37.1132 141.056 38.1097V40.6564H140.259Z" fill="white"/>
<path d="M152.549 39.7042C152.926 39.9256 153.479 40.1028 154.077 40.1028C154.941 40.1028 155.45 39.682 155.45 39.0841C155.45 38.5305 155.096 38.1983 154.21 37.8883C153.125 37.534 152.461 37.0468 152.461 36.2053C152.461 35.2752 153.302 34.5887 154.587 34.5887C155.251 34.5887 155.76 34.7216 156.048 34.8766L155.805 35.4967C155.583 35.386 155.14 35.2088 154.542 35.2088C153.634 35.2088 153.302 35.696 153.302 36.0946C153.302 36.6482 153.701 36.9361 154.609 37.2461C155.716 37.6447 156.292 38.1319 156.292 38.9955C156.292 39.9256 155.539 40.7228 153.989 40.7228C153.346 40.7228 152.66 40.5457 152.306 40.3463L152.527 39.7042H152.549Z" fill="white"/>
</svg>
