<svg width="88" height="71" viewBox="0 0 88 71" fill="none" xmlns="http://www.w3.org/2000/svg">
<path fill-rule="evenodd" clip-rule="evenodd" d="M39.2601 0.0398889C35.9277 0.49482 34.0886 1.01101 31.9259 2.09797C30.5957 2.76638 28.6594 4.02753 27.6626 4.87458L27.0699 5.37825L27.9095 6.32878L28.7491 7.27931L29.836 6.44788C33.6787 3.50859 38.0494 2.203 42.4347 2.68453C50.1101 3.52746 56.2995 8.79769 58.2564 16.1564C58.4899 17.0343 58.6825 18.516 58.7906 20.2666C58.8836 21.7721 58.9856 23.0296 59.0171 23.061C59.0485 23.0924 59.6509 22.6291 60.3555 22.0314C62.1993 20.4675 63.1025 20.1033 65.138 20.1033C66.549 20.1033 66.905 20.1658 67.7509 20.5615C70.2555 21.7333 71.6594 24.3535 71.3804 27.3356L71.2733 28.4802L71.8433 28.3664C72.1569 28.3038 73.0397 28.2082 73.8052 28.154C80.9 27.6517 86.6443 34.2498 85.1679 41.2061C84.6204 43.7852 82.918 46.2547 80.6531 47.7551C79.7344 48.3636 77.562 49.2098 76.3722 49.4223C75.8496 49.5156 75.8159 49.4858 75.5222 48.6706C75.0984 47.4943 74.1534 46.305 73.0414 45.5484C71.2308 44.3164 72.9654 44.3858 43.9886 44.3858C15.0118 44.3858 16.7464 44.3164 14.9358 45.5484C13.8596 46.2807 12.7798 47.6068 12.4918 48.55C12.2614 49.3045 12.228 49.3018 10.3734 48.3816C8.72647 47.5646 7.78541 46.8435 6.27572 45.2417C2.42188 41.1532 1.4435 34.5623 3.94963 29.5711C5.9896 25.5083 9.67356 22.7636 14.2418 21.9027C15.6839 21.631 18.4867 21.6782 19.8954 21.9981C22.4727 22.5831 24.7483 23.8214 26.6658 25.6825C27.2482 26.2477 27.7527 26.7102 27.7868 26.7102C27.821 26.7102 28.2816 26.3583 28.8107 25.9282L29.7727 25.1462L28.4983 23.902C26.991 22.4305 25.5117 21.3981 23.7407 20.5814L22.4509 19.9867L22.5615 18.9098C22.8414 16.183 24.1771 12.8732 26.0033 10.3808C26.5328 9.65813 26.9659 9.03039 26.9659 8.98595C26.9659 8.94133 26.5426 8.54389 26.0252 8.10268L25.0846 7.30076L23.9642 8.81125C21.9622 11.5103 20.6142 14.7056 20.0808 18.0154L19.8643 19.3596L19.2833 19.2508C18.9638 19.1911 17.8341 19.1411 16.7731 19.1398C10.0941 19.1322 3.95186 23.0528 1.39467 28.9561C-0.695857 33.7816 -0.422289 39.4318 2.12166 43.9719C3.96716 47.2653 7.42105 50.2063 10.91 51.4551L11.9861 51.8404L12.0394 58.8814L12.0925 65.9225L12.6321 67.059C12.9288 67.6842 13.4497 68.5029 13.7896 68.8782C14.5783 69.7497 16.1066 70.5598 17.4115 70.7984C18.1063 70.9253 24.5074 70.9849 37.4863 70.9849H56.5407V69.6978V68.4108H37.3999C15.9556 68.4108 17.0544 68.472 15.7866 67.2068C14.5988 66.0213 14.5647 65.7291 14.6218 57.2177L14.6717 49.7639L15.192 48.9241C15.5144 48.404 16.0327 47.8867 16.5542 47.565L17.3959 47.0457H43.9886H70.5813L71.423 47.565C71.9444 47.8867 72.4628 48.404 72.7852 48.9241L73.3055 49.7638L73.3571 57.2122C73.4159 65.7214 73.3811 66.0186 72.1906 67.2068C71.1967 68.1987 70.2818 68.4108 66.9981 68.4108H64.2783V69.6978V70.9849H66.9118C70.0359 70.9849 71.2433 70.7934 72.5778 70.0864C73.8203 69.4281 74.6527 68.5175 75.3451 67.059L75.8847 65.9225L75.9383 59.016L75.9918 52.1093L76.4542 52.0132C79.3938 51.4023 81.2931 50.5928 83.0205 49.2145C89.1316 44.3379 89.6992 35.5259 84.2721 29.7842C81.8316 27.2022 78.1313 25.5409 74.7634 25.515L73.9861 25.509L73.7847 24.4517C73.1789 21.2708 70.554 18.5572 67.2525 17.699C65.5657 17.2605 64.03 17.3568 61.594 18.0535C61.268 18.1469 61.2194 18.0688 61.115 17.2833C60.9255 15.8578 60.182 13.5196 59.3794 11.826C56.6255 6.01457 51.1667 1.73211 44.9016 0.467877C43.2288 0.130326 40.2517 -0.0955092 39.2601 0.0398889ZM22.2776 50.3973C19.5722 51.0742 18.1669 53.5484 19.2104 55.7977C19.7235 56.9037 20.4144 57.395 22.8624 58.3939C24.1246 58.9091 25.3707 59.5347 25.6318 59.7843C26.9508 61.0454 25.147 62.8517 22.9941 62.4258C21.7906 62.1876 21.331 61.9462 20.3793 61.0511L19.4862 60.2112L18.5484 61.0526L17.6106 61.8938L18.5484 62.8444C21.2841 65.617 25.519 65.8053 27.709 63.2518C28.7761 62.0074 28.9663 60.4606 28.2326 58.9913C27.6317 57.7874 26.7045 57.1403 24.1356 56.1318C21.771 55.2032 21.4636 54.993 21.4636 54.3047C21.4636 52.5841 24.3248 52.3693 26.3424 53.9381L27.165 54.5777L28.0063 53.6431L28.8477 52.7087L28.2077 52.129C26.7042 50.7668 23.9804 49.9716 22.2776 50.3973ZM63.1902 50.4564C60.693 51.156 59.3262 53.6865 60.3056 55.7977C60.8103 56.8856 61.4995 57.383 63.7797 58.3045C66.7382 59.5001 67.1856 59.8196 67.1959 60.7446C67.1993 61.0538 67.0243 61.4065 66.7127 61.7174C65.431 62.9966 63.1574 62.6666 61.3552 60.9399L60.5814 60.1985L59.6536 61.0562L58.7256 61.9139L59.6536 62.8543C61.8055 65.0354 65.2113 65.702 67.4657 64.3833C69.5815 63.1459 70.3298 60.9977 69.3371 59.0098C68.7314 57.7965 67.9146 57.2084 65.4582 56.2171C62.8039 55.1459 62.5588 54.9861 62.5588 54.3272C62.5588 52.5859 65.3892 52.3592 67.4571 53.935L68.2881 54.5683L69.1186 53.6385L69.9491 52.7087L69.306 52.129C67.7059 50.6863 65.0058 49.9479 63.1902 50.4564ZM39.6899 53.4844V54.1744L38.9592 53.7859C38.3556 53.4652 37.9589 53.3977 36.6809 53.3979C35.3227 53.3982 35.0223 53.4566 34.2248 53.8745C33.1054 54.4612 32.1164 55.4565 31.5868 56.5294C30.9967 57.7243 31.003 60.075 31.5995 61.2846C32.1361 62.3733 33.1873 63.4223 34.2781 63.9579C35.4496 64.5333 37.8556 64.564 38.9506 64.0176L39.6727 63.6574L39.7243 64.3609L39.7759 65.0644L41.0225 65.1149L42.2691 65.1654V58.9799V52.7945H40.9795H39.6899V53.4844ZM53.6176 53.4713V54.1482L52.8009 53.7734C51.6512 53.2457 49.3998 53.2429 48.257 53.7677C47.1149 54.292 45.9646 55.4181 45.4188 56.5453C44.8 57.8238 44.7531 59.8285 45.3131 61.0619C45.8061 62.1475 46.971 63.3707 48.0225 63.9066C49.2557 64.5352 51.1165 64.6335 52.414 64.1385C52.9341 63.9399 53.4176 63.7776 53.4886 63.7776C53.5597 63.7774 53.6176 64.0897 53.6176 64.4714V65.1654L54.8642 65.1149L56.1108 65.0644L56.1561 58.9295L56.2011 52.7945H54.9094H53.6176V53.4713ZM37.7444 56.066C40.044 56.9332 40.3468 60.2308 38.2397 61.4631C36.2314 62.6377 33.6718 61.218 33.6718 58.9293C33.6718 56.8252 35.7964 55.3314 37.7444 56.066ZM51.8292 56.2104C53.5321 56.9823 54.0447 59.2183 52.8707 60.7544C51.7492 62.2219 49.4271 62.2827 48.2408 60.8757C46.1161 58.3556 48.8165 54.8449 51.8292 56.2104ZM59.1553 69.6549L59.2059 70.8991L60.4525 70.9495L61.6991 71V69.7054V68.4108H60.4019H59.1048L59.1553 69.6549Z" fill="#0064AF"/>
</svg>
