<svg width="53" height="70" viewBox="0 0 53 70" fill="none" xmlns="http://www.w3.org/2000/svg">
<path fill-rule="evenodd" clip-rule="evenodd" d="M4.24672 0.148194C2.18772 0.714008 0.601832 2.38559 0.163987 4.45153C-0.0546623 5.48381 -0.0546623 64.5028 0.163987 65.5351C0.617411 67.6749 2.36305 69.4375 4.47575 69.8889C4.91305 69.9823 10.8156 70.0171 22.012 69.9922L38.889 69.9547L39.8077 69.5189C41.5687 68.6836 42.7576 67.1412 43.0579 65.3023C43.1317 64.8507 43.1924 62.28 43.1928 59.5894L43.1936 54.6976H46.654C50.6601 54.6976 51.0691 54.6186 52.026 53.6604C53.4003 52.2842 53.3097 50.1245 51.821 48.7778C50.917 47.9601 50.3174 47.8558 46.5168 47.8558H43.1936V47.1798V46.5037L46.8492 46.4615C50.8943 46.4145 51.0836 46.3776 52.0034 45.4567C53.5925 43.8656 53.2057 41.2126 51.2245 40.1134L50.5047 39.7141L42.4573 39.6757C33.5013 39.633 33.486 39.6342 32.4477 40.5242C32.1268 40.7991 31.764 41.2952 31.5935 41.6922L31.2969 42.3824H26.9495C22.3298 42.3824 21.7937 42.4426 20.9291 43.0592C20.6986 43.2235 20.3404 43.6466 20.1335 43.9991C19.7585 44.6379 19.757 44.6507 19.7134 47.6163L19.6697 50.5925H17.0855H14.5015L14.2353 50.0701C13.8908 49.394 13.0334 48.623 12.3615 48.3855C11.9944 48.2556 11.137 48.1979 9.5763 48.1979C7.49448 48.1979 7.27214 48.2223 6.67837 48.5151C5.47047 49.1109 4.76751 50.2214 4.75959 51.5468C4.74893 53.3291 6.05536 54.7445 7.88559 54.9336L8.61971 55.0096V56.6765C8.61971 58.6807 8.81608 59.3776 9.60281 60.1654C10.3995 60.963 11.0917 61.1288 13.626 61.1288C14.8861 61.1288 15.8472 61.0675 16.0517 60.9742C16.7451 60.658 16.8068 59.5727 16.1514 59.2215C15.9924 59.1364 14.9681 59.0763 13.6745 59.0763H11.4684L11.069 58.6763C10.6716 58.2784 10.6695 58.2679 10.6695 56.6238V54.9712L11.2503 54.9699C12.3544 54.9674 14.0928 53.8266 14.3094 52.9625L14.3889 52.645L22.9492 52.6534L31.5096 52.6617L31.9229 53.2318C32.4037 53.8948 33.0497 54.3642 33.7483 54.5585C34.0202 54.6342 35.7988 54.6963 37.7006 54.6967L41.1586 54.6976L41.117 59.9999L41.0755 65.3023L40.7043 66.0069C40.5003 66.3944 40.1025 66.9019 39.8204 67.1347C38.7448 68.0225 39.7539 67.9785 21.3212 67.9386L4.58836 67.9022L4.02219 67.5989C3.25309 67.1871 2.506 66.277 2.26206 65.4545C2.08673 64.8631 2.06022 60.8646 2.06022 34.9933C2.06022 2.01449 1.99244 4.40295 2.9601 3.27105C3.87624 2.19922 4.23674 2.09139 7.077 2.03967L9.56564 1.99438L9.63806 2.31306C9.67783 2.48835 9.8302 3.1962 9.97656 3.88626C10.1228 4.57618 10.3737 5.39815 10.5341 5.71287C10.9743 6.57699 11.7978 7.39362 12.6798 7.8408L13.471 8.242H21.5366H29.602L30.5159 7.79154C32.114 7.00378 32.7932 5.97231 33.2652 3.61546L33.5718 2.08441L35.8089 2.04665C38.3245 2.00436 38.9442 2.12875 39.8204 2.85192C40.1025 3.08468 40.5003 3.5922 40.7043 3.97972L41.0755 4.68428L41.1124 20.3785L41.1494 36.0725L41.5066 36.354C42.0895 36.8129 42.6698 36.7054 42.9937 36.0781C43.1656 35.7452 43.1935 33.578 43.1928 20.5982C43.1924 11.3805 43.1398 5.18565 43.0579 4.68428C42.7576 2.84535 41.5687 1.30295 39.8077 0.467704L38.889 0.0318841L21.8753 0.00561178C8.73176 -0.0147767 4.72173 0.0176533 4.24672 0.148194ZM31.383 2.52913C31.0028 4.73176 30.618 5.48901 29.6371 5.96451C29.041 6.25337 28.919 6.25789 21.602 6.25789C14.2975 6.25789 14.1621 6.25296 13.5702 5.96602C12.5376 5.46548 12.1206 4.67621 11.8267 2.66596L11.7318 2.016H21.6017H31.4717L31.383 2.52913ZM18.9334 3.55813C18.4539 3.97123 18.4261 4.69482 18.8759 5.05948C19.1341 5.26898 19.4884 5.30004 21.6172 5.30004C23.8797 5.30004 24.0822 5.27965 24.3351 5.02637C24.7033 4.65774 24.6962 3.91677 24.3212 3.5766C24.0665 3.34535 23.7671 3.31114 21.674 3.2731C19.3517 3.23096 19.308 3.23547 18.9334 3.55813ZM35.9747 4.65883C35.4644 5.20275 35.6393 5.98559 36.3245 6.22464C36.799 6.39034 37.2364 6.23531 37.5206 5.80086C38.1441 4.84821 36.7577 3.82427 35.9747 4.65883ZM23.3041 14.8039C22.9325 15.176 22.8901 15.433 23.1272 15.8796C23.2144 16.0439 24.4833 17.7625 25.9469 19.6984L28.608 23.2183L25.515 27.3242C22.2253 31.6913 22.0959 31.9301 22.6953 32.5303C22.9686 32.8039 23.4329 32.8795 23.8521 32.7184C23.9745 32.6713 25.3704 30.9164 26.9541 28.8186C28.538 26.7208 29.8726 25.0072 29.92 25.0108C29.9675 25.0143 31.2363 26.6526 32.7395 28.6515C36.0879 33.104 36.0644 33.0776 36.6678 33.0776C37.4161 33.0776 37.8803 32.3531 37.5457 31.7076C37.4475 31.5185 35.9736 29.5269 34.2701 27.2818L31.1731 23.1997L33.9066 19.5887C35.4559 17.5419 36.675 15.8026 36.7208 15.5739C36.8245 15.0546 36.288 14.468 35.7094 14.468C35.206 14.468 35.1173 14.5678 32.2642 18.3459C30.3455 20.8867 29.8727 21.437 29.7359 21.2879C29.6435 21.187 28.5962 19.8114 27.4085 18.231C26.221 16.6505 25.0623 15.1572 24.8337 14.9127C24.3205 14.3635 23.7821 14.3251 23.3041 14.8039ZM5.76865 14.9269L5.46651 15.2491L5.50573 21.8029C5.54454 28.2967 5.54782 28.3629 5.8568 29.034C7.17853 31.9045 10.575 33.595 13.5922 32.8841C15.6382 32.402 17.5176 30.9717 18.3624 29.2539L18.8006 28.3631L18.8386 21.8047L18.8767 15.2465L18.5756 14.9257C18.2091 14.5351 17.6488 14.5107 17.21 14.8663L16.8874 15.1278L16.8191 21.5371C16.741 28.8547 16.8055 28.4572 15.5044 29.648C14.5179 30.5507 13.5248 30.9294 12.1044 30.9449C11.1907 30.9547 10.8838 30.8969 10.2357 30.5927C9.21484 30.1135 8.245 29.205 7.84869 28.3568L7.52919 27.6726L7.52783 21.4747L7.52646 15.2766L7.19097 14.9408C6.75832 14.5074 6.16769 14.5017 5.76865 14.9269ZM50.506 42.1161C50.6978 42.3082 50.8904 42.6847 50.9338 42.9524C51.0001 43.3621 50.9471 43.5131 50.5992 43.903L50.1856 44.3665L42.3529 44.404C34.1321 44.4434 33.9699 44.433 33.5539 43.8383C33.3226 43.5075 33.292 42.755 33.4945 42.376C33.8551 41.7012 33.8241 41.7034 42.2682 41.7361L50.1571 41.7666L50.506 42.1161ZM31.7262 44.7428C32.0371 45.3491 32.7377 45.9453 33.455 46.2141C34.1141 46.461 34.5206 46.4875 37.6643 46.4875H41.1438V47.1716V47.8558H37.8708C36.0207 47.8558 34.2953 47.9208 33.9019 48.0052C32.9319 48.2135 32.1405 48.8501 31.6633 49.8057L31.2706 50.5925H26.5045H21.7387V47.9137V45.2349L22.1381 44.8349L22.5376 44.4349H27.0529H31.5683L31.7262 44.7428ZM50.4917 50.3065C51.1932 50.9666 51.0191 52.1531 50.1691 52.5057C49.9301 52.6048 47.2832 52.6396 41.9156 52.6141L34.0139 52.5766L33.6842 52.1927C33.3271 51.777 33.2455 51.052 33.5019 50.5724C33.849 49.9228 33.9966 49.9124 42.3286 49.9456L50.1412 49.9768L50.4917 50.3065ZM12.1058 50.5999C12.2975 50.792 12.4912 51.1753 12.536 51.4514C12.6079 51.8956 12.5617 52.0093 12.1355 52.4361L11.6535 52.9187H9.66881C7.75344 52.9187 7.66995 52.9068 7.27979 52.5781C6.79098 52.1663 6.66717 51.6359 6.91875 51.0328C7.22117 50.3083 7.70848 50.1738 9.8809 50.2148C11.688 50.2491 11.7698 50.2633 12.1058 50.5999ZM21.3601 57.0395C20.1289 57.6498 19.294 59.1979 19.4901 60.5072C19.6286 61.4318 20.3196 62.481 21.1126 62.9712L21.785 63.3866L26.8522 63.4281C30.4577 63.4576 32.0875 63.4227 32.5017 63.3072C33.2361 63.1025 34.2737 62.1975 34.601 61.4763C35.3224 59.886 34.5768 57.8006 33.0288 57.0788C32.3309 56.7534 32.3195 56.7528 27.1366 56.7516C22.1244 56.7504 21.9233 56.7604 21.3601 57.0395ZM32.4476 59.1633C32.9652 59.6818 32.9487 60.4615 32.4083 61.0025L32.0089 61.4025H27.2902C24.0525 61.4025 22.4643 61.3536 22.2299 61.2466C21.7972 61.0492 21.413 60.2614 21.5274 59.8055C21.5745 59.6172 21.7616 59.3147 21.943 59.1329L22.2729 58.8026H27.18H32.0872L32.4476 59.1633Z" fill="#0064AF"/>
</svg>
