<svg width="71" height="71" viewBox="0 0 71 71" fill="none" xmlns="http://www.w3.org/2000/svg">
<path fill-rule="evenodd" clip-rule="evenodd" d="M3.31316 0.20275C1.73404 0.639558 0.484405 1.98332 0.132181 3.62316C0.010102 4.19209 -0.0200014 10.8299 0.0117667 30.223L0.0542167 56.0646L0.414071 56.8288C0.612032 57.249 1.02599 57.8438 1.33396 58.1504C2.51313 59.3246 3.8675 59.6662 7.02143 59.5851C8.69099 59.5423 8.88327 59.5106 9.16016 59.2332C9.52834 58.8643 9.55941 58.188 9.22536 57.8181C9.01089 57.5808 8.72637 57.5479 6.46237 57.4979C3.73072 57.4374 3.46631 57.3737 2.73356 56.598C2.14578 55.976 2.06574 55.5692 2.06574 53.2075V50.9936H21.0018H39.9378V51.8794V52.7652L39.1691 52.8291C38.3541 52.8968 37.8725 53.1651 37.38 53.8257C37.1368 54.1519 37.0866 54.4573 37.0447 55.8664L36.9953 57.5234H25.656C14.4685 57.5234 10.3133 57.5272 10.0638 57.8031C9.71757 58.1863 9.74185 58.8587 10.1154 59.2332C10.4163 59.5346 14.4776 59.5384 19.6183 59.5791L24.8167 59.6201V61.4025V63.1847L22.8399 63.2468C20.5896 63.3175 19.8784 63.5352 18.9547 64.4366C18.134 65.2373 17.8803 66.1087 17.8814 68.1224C17.8824 69.9552 18.0299 70.4179 18.7392 70.812C18.9946 70.954 22.3997 70.9911 35.5234 70.9951L51.9872 71L52.4694 70.5444C53.0574 69.9893 53.1896 69.3161 53.0783 67.4472C52.9672 65.5821 52.5173 64.7112 51.231 63.871C50.5421 63.421 49.4232 63.2197 47.6116 63.2197H46.1805V62.5945V61.9693H55.9764H65.7724L66.3115 61.6659C66.9074 61.3304 67.4055 60.4831 67.4055 59.8046C67.4055 59.4402 67.4798 59.3683 68.0772 59.1559C68.9523 58.8446 69.8781 58.0172 70.3926 57.0865L70.804 56.3425L70.8934 52.3134C70.9426 50.0974 70.9888 38.3436 70.996 26.1939C71.0098 2.77941 71.0237 3.32014 70.3817 2.28648C69.7239 1.22752 68.7625 0.499651 67.6188 0.194553C66.6264 -0.0701155 4.27092 -0.0621963 3.31316 0.20275ZM67.7402 2.55656C68.8002 3.36627 68.7916 3.32195 68.7922 7.95886L68.7927 12.0921H35.4986H2.20446V7.98665C2.20446 3.60121 2.22153 3.47853 2.91959 2.82748C3.77275 2.03195 1.23338 2.08655 35.6481 2.12406L67.219 2.15838L67.7402 2.55656ZM6.43559 4.2874C5.26933 4.83924 4.66282 5.79636 4.65949 7.09052C4.65436 9.12368 6.53131 10.5226 8.49678 9.95033C10.9694 9.23052 11.4322 5.93043 9.26213 4.49233C8.50926 3.99328 7.25019 3.902 6.43559 4.2874ZM14.2042 4.28629C11.8678 5.38706 11.7855 8.63588 14.0655 9.76486C15.2157 10.3345 16.6167 10.1161 17.5023 9.22913C18.9088 7.82048 18.6867 5.58976 17.0308 4.49233C16.2789 3.99397 15.0195 3.90228 14.2042 4.28629ZM21.9729 4.28629C19.6364 5.38706 19.5542 8.63588 21.8341 9.76486C22.9843 10.3345 24.3853 10.1161 25.2709 9.22913C26.6775 7.82048 26.4554 5.58976 24.7994 4.49233C24.0475 3.99397 22.7881 3.90228 21.9729 4.28629ZM8.30839 6.39586C8.82361 6.91186 8.59513 7.706 7.85586 7.96872C7.29319 8.16865 6.53825 7.41257 6.73787 6.84906C7.00021 6.10868 7.79316 5.87986 8.30839 6.39586ZM16.077 6.39586C16.5922 6.91186 16.3638 7.706 15.6245 7.96872C15.0618 8.16865 14.3069 7.41257 14.5065 6.84906C14.7688 6.10868 15.5618 5.87986 16.077 6.39586ZM23.8456 6.39586C24.4437 6.9948 24.0088 7.97039 23.1436 7.97039C22.3459 7.97039 21.9586 7.13318 22.4606 6.49408C22.8202 6.03616 23.4425 5.99212 23.8456 6.39586ZM68.7927 31.5428V48.9096H68.0991H67.4055V46.057C67.4055 42.9072 67.3364 42.5579 66.5892 41.9283C66.2701 41.6593 65.9261 41.5337 65.3218 41.4652L64.4922 41.3713V40.3651V39.359L65.3218 39.2651C65.9261 39.1966 66.2701 39.071 66.5892 38.802C67.3378 38.1711 67.4055 37.8258 67.4052 34.6386C67.4051 31.4002 67.326 31.0559 66.4485 30.4689C65.9902 30.1623 65.8823 30.1535 62.5449 30.1535C59.416 30.1535 59.0847 30.1762 58.7967 30.4097C58.3797 30.7479 58.374 31.4513 58.7849 31.8632C59.0772 32.1562 59.2103 32.1697 62.2069 32.2101L65.3246 32.2522V34.7464V37.2405L52.2497 37.2051L39.1748 37.1697L39.1369 34.7072L39.0991 32.2449L46.2429 32.2064L53.3867 32.168L53.6911 31.8632C54.1021 31.4513 54.0966 30.748 53.6794 30.4097C53.3811 30.1678 52.9471 30.1535 45.9198 30.1535H38.4762L37.9714 30.4971C37.1007 31.0896 36.997 31.5944 37.049 34.984C37.0907 37.7073 37.1146 37.9419 37.386 38.306C37.7973 38.8583 38.4089 39.1804 39.2307 39.278L39.9378 39.3619V40.3665V41.3713L39.1039 41.4658C38.3971 41.5458 38.1876 41.6386 37.7303 42.0743C37.0332 42.7385 36.9591 43.2237 37.0648 46.44L37.146 48.9096H19.6058H2.06574V31.5428V14.1761H35.4292H68.7927V31.5428ZM6.68252 19.3514C4.86966 21.1252 4.47124 21.7076 4.69112 22.2624C4.89144 22.7678 8.32684 26.096 8.75578 26.2C9.06167 26.2742 9.21648 26.2089 9.5676 25.8573C10.1949 25.229 10.0567 24.9068 8.47624 23.311L7.13463 21.9566L8.39981 20.6713C9.09579 19.9645 9.73587 19.2468 9.82244 19.0765C10.1586 18.4147 9.62101 17.6495 8.81987 17.6495C8.4983 17.6495 8.08892 17.9754 6.68252 19.3514ZM13.4855 17.9621C13.1395 18.3462 10.632 24.7388 10.632 25.2368C10.632 26.0365 11.7688 26.4851 12.3239 25.9045C12.5933 25.6227 15.2447 18.9587 15.2447 18.5632C15.2447 18.4358 15.0914 18.1781 14.9041 17.9906C14.4703 17.556 13.8623 17.5439 13.4855 17.9621ZM15.9484 18.0156C15.4213 18.6866 15.5446 18.9609 17.0745 20.5178L18.4881 21.9564L17.0745 23.3951C15.6563 24.8385 15.4924 25.133 15.7943 25.6978C15.8677 25.835 16.111 26.0234 16.3349 26.1164C16.9335 26.3646 17.2759 26.1317 19.233 24.1438C21.5127 21.8286 21.5231 22.0569 19.0231 19.558C17.3754 17.9108 17.0538 17.6495 16.6749 17.6495C16.3658 17.6495 16.1508 17.7578 15.9484 18.0156ZM41.2705 33.9394C40.7688 34.391 40.7355 34.9815 41.1863 35.433C41.446 35.6931 41.6487 35.7109 44.3508 35.7109C47.0646 35.7109 47.2561 35.6939 47.5415 35.4276C47.9817 35.0169 47.9518 34.2868 47.4796 33.9149C47.1378 33.6455 46.9361 33.6269 44.3661 33.6269C41.7117 33.6269 41.6061 33.6375 41.2705 33.9394ZM49.9697 33.7668C49.3279 34.0257 49.1762 34.9232 49.6922 35.4088C49.971 35.6711 50.172 35.7109 51.2181 35.7109C52.6209 35.7109 52.978 35.5015 52.978 34.679C52.978 33.924 52.485 33.6248 51.2599 33.6356C50.7171 33.6405 50.1365 33.6995 49.9697 33.7668ZM55.1026 33.7668C54.4521 34.0293 54.3207 34.8452 54.8446 35.3698L55.185 35.7109H59.0819H62.9789L63.3193 35.3698C63.5066 35.1822 63.6599 34.9352 63.6599 34.8207C63.6599 34.4303 63.3525 33.9357 63.0138 33.7811C62.6047 33.5945 55.5612 33.5817 55.1026 33.7668ZM62.4114 40.3651V41.4071H52.215H42.0187V40.3651V39.3231H52.215H62.4114V40.3651ZM65.3246 45.9919V48.4928H52.215H39.1055V46.0846C39.1055 44.76 39.1471 43.6347 39.198 43.5838C39.2488 43.5328 45.1481 43.4911 52.3075 43.4911H65.3246V45.9919ZM41.2884 45.1931C40.7084 45.6342 40.7519 46.4861 41.3751 46.8952C41.6677 47.0872 42.1208 47.1136 44.4897 47.0769C46.9858 47.0383 47.291 47.0076 47.5536 46.7693C47.9477 46.4115 47.9417 45.676 47.5415 45.3027C47.2564 45.0366 47.0644 45.0194 44.3774 45.0194C42.3032 45.0194 41.4541 45.0672 41.2884 45.1931ZM49.6727 45.3409C49.3005 45.7378 49.2862 46.2729 49.6364 46.7059C49.8696 46.9945 50.0408 47.0396 51.0583 47.0815C52.0762 47.1231 52.2608 47.0929 52.5965 46.8282C53.0705 46.4546 53.1206 45.718 52.7006 45.2973C52.465 45.0614 52.2382 45.0194 51.1987 45.0194C50.0983 45.0194 49.9439 45.0519 49.6727 45.3409ZM54.7916 45.3855C54.4331 45.8418 54.4256 46.2809 54.769 46.7059L55.0341 47.0339L58.817 47.0752C62.861 47.1193 63.2259 47.0716 63.5031 46.4622C63.734 45.955 63.698 45.7396 63.3193 45.3605L62.9789 45.0194H59.0289H55.079L54.7916 45.3855ZM62.4114 51.6882V52.7997H52.215H42.0187V51.6882V50.5768H52.215H62.4114V51.6882ZM68.7927 53.2915C68.7927 55.8542 68.6561 56.3727 67.8248 56.9655L67.4055 57.2645V55.8601C67.4055 54.7268 67.3515 54.3501 67.1262 53.9076C66.7815 53.2309 66.0013 52.7997 65.122 52.7997H64.4922V51.8966V50.9936H66.6425H68.7927V53.2915ZM65.3246 57.3845V59.8853H52.215H39.1055V57.3845V54.8837H52.215H65.3246V57.3845ZM41.6516 56.3692C40.928 56.5109 40.6113 57.5197 41.1153 58.0774C41.3535 58.3411 41.5379 58.357 44.3292 58.357C47.1053 58.357 47.3076 58.3397 47.5677 58.0792C48.1276 57.5184 47.8525 56.6432 47.0458 56.4188C46.5567 56.2828 42.2931 56.2436 41.6516 56.3692ZM50.1556 56.4071C49.3806 56.6562 49.1274 57.4869 49.654 58.0529C49.9033 58.3209 50.0807 58.357 51.1491 58.357C52.6387 58.357 52.978 58.1791 52.978 57.3981C52.978 56.6297 52.6392 56.386 51.4903 56.3278C50.9733 56.3017 50.3727 56.3374 50.1556 56.4071ZM55.2885 56.4113C54.4944 56.6582 54.2525 57.5162 54.825 58.055C55.1392 58.3506 55.2311 58.357 59.1155 58.357H63.0849L63.3723 57.9909C63.7466 57.5144 63.7352 57.2099 63.3253 56.7323L62.9907 56.3425L59.3369 56.3155C57.3273 56.3007 55.5056 56.3438 55.2885 56.4113ZM37.0948 60.168C37.1468 60.4763 37.3522 60.9224 37.5513 61.1595C38.1659 61.8908 38.5446 61.9693 41.4594 61.9693H44.0996V62.5945V63.2197H35.4986H26.8976V61.4136V59.6074H31.9489H37.0002L37.0948 60.168ZM49.9162 65.5471C50.7316 65.9635 50.9601 66.4203 51.0155 67.7452L51.0643 68.916H35.5129H19.9613V67.7976C19.9613 66.3088 20.3263 65.649 21.2851 65.405C21.4345 65.3671 27.8305 65.3289 35.4986 65.3201C48.5166 65.3053 49.472 65.3203 49.9162 65.5471Z" fill="#0064AF"/>
</svg>
